G04*
G04 #@! TF.GenerationSoftware,Altium Limited,Altium Designer,20.2.6 (244)*
G04*
G04 Layer_Physical_Order=1*
G04 Layer_Color=255*
%FSLAX24Y24*%
%MOIN*%
G70*
G04*
G04 #@! TF.SameCoordinates,67DAE9A7-D567-40AA-987E-AE02A1C53A3D*
G04*
G04*
G04 #@! TF.FilePolarity,Positive*
G04*
G01*
G75*
%ADD10C,0.0100*%
%ADD14R,0.0394X0.0433*%
%ADD15R,0.0433X0.0394*%
%ADD33C,0.0300*%
%ADD34C,0.0350*%
%ADD35C,0.0700*%
%ADD36R,0.0700X0.0700*%
%ADD37R,0.0591X0.0591*%
%ADD38C,0.0591*%
%ADD39R,0.0800X0.0800*%
%ADD40C,0.0800*%
%ADD41R,0.0800X0.0800*%
%ADD42R,0.0709X0.0709*%
%ADD43C,0.0709*%
%ADD44R,0.0591X0.0591*%
%ADD45R,0.0709X0.0709*%
G04:AMPARAMS|DCode=46|XSize=106.3mil|YSize=82.7mil|CornerRadius=0mil|HoleSize=0mil|Usage=FLASHONLY|Rotation=0.000|XOffset=0mil|YOffset=0mil|HoleType=Round|Shape=Octagon|*
%AMOCTAGOND46*
4,1,8,0.0531,-0.0207,0.0531,0.0207,0.0325,0.0413,-0.0325,0.0413,-0.0531,0.0207,-0.0531,-0.0207,-0.0325,-0.0413,0.0325,-0.0413,0.0531,-0.0207,0.0*
%
%ADD46OCTAGOND46*%

%ADD47C,0.0600*%
%ADD48R,0.0600X0.0600*%
%ADD49C,0.0500*%
G36*
X40050Y19800D02*
X10050D01*
Y49850D01*
X40050D01*
Y19800D01*
D02*
G37*
%LPC*%
G36*
X35550Y48499D02*
X35447Y48485D01*
X35351Y48445D01*
X35268Y48382D01*
X35205Y48299D01*
X35165Y48203D01*
X35151Y48100D01*
X35165Y47997D01*
X35205Y47901D01*
X35268Y47818D01*
X35351Y47755D01*
X35447Y47715D01*
X35550Y47701D01*
X35653Y47715D01*
X35749Y47755D01*
X35832Y47818D01*
X35895Y47901D01*
X35935Y47997D01*
X35949Y48100D01*
X35935Y48203D01*
X35895Y48299D01*
X35832Y48382D01*
X35749Y48445D01*
X35653Y48485D01*
X35550Y48499D01*
D02*
G37*
G36*
X34550D02*
X34447Y48485D01*
X34351Y48445D01*
X34268Y48382D01*
X34205Y48299D01*
X34165Y48203D01*
X34151Y48100D01*
X34165Y47997D01*
X34205Y47901D01*
X34268Y47818D01*
X34351Y47755D01*
X34447Y47715D01*
X34550Y47701D01*
X34653Y47715D01*
X34749Y47755D01*
X34832Y47818D01*
X34895Y47901D01*
X34935Y47997D01*
X34949Y48100D01*
X34935Y48203D01*
X34895Y48299D01*
X34832Y48382D01*
X34749Y48445D01*
X34653Y48485D01*
X34550Y48499D01*
D02*
G37*
G36*
X31561D02*
X31457Y48485D01*
X31361Y48445D01*
X31279Y48382D01*
X31215Y48299D01*
X31176Y48203D01*
X31162Y48100D01*
X31176Y47997D01*
X31215Y47901D01*
X31279Y47818D01*
X31361Y47755D01*
X31457Y47715D01*
X31561Y47701D01*
X31664Y47715D01*
X31760Y47755D01*
X31843Y47818D01*
X31906Y47901D01*
X31946Y47997D01*
X31959Y48100D01*
X31946Y48203D01*
X31906Y48299D01*
X31843Y48382D01*
X31760Y48445D01*
X31664Y48485D01*
X31561Y48499D01*
D02*
G37*
G36*
X35550Y47499D02*
X35447Y47485D01*
X35351Y47445D01*
X35268Y47382D01*
X35205Y47299D01*
X35165Y47203D01*
X35151Y47100D01*
X35165Y46997D01*
X35205Y46901D01*
X35268Y46818D01*
X35351Y46755D01*
X35447Y46715D01*
X35550Y46701D01*
X35653Y46715D01*
X35749Y46755D01*
X35832Y46818D01*
X35895Y46901D01*
X35935Y46997D01*
X35949Y47100D01*
X35935Y47203D01*
X35895Y47299D01*
X35832Y47382D01*
X35749Y47445D01*
X35653Y47485D01*
X35550Y47499D01*
D02*
G37*
G36*
X34550D02*
X34447Y47485D01*
X34351Y47445D01*
X34268Y47382D01*
X34205Y47299D01*
X34165Y47203D01*
X34151Y47100D01*
X34165Y46997D01*
X34205Y46901D01*
X34268Y46818D01*
X34351Y46755D01*
X34447Y46715D01*
X34550Y46701D01*
X34653Y46715D01*
X34749Y46755D01*
X34832Y46818D01*
X34895Y46901D01*
X34935Y46997D01*
X34949Y47100D01*
X34935Y47203D01*
X34895Y47299D01*
X34832Y47382D01*
X34749Y47445D01*
X34653Y47485D01*
X34550Y47499D01*
D02*
G37*
G36*
X31561D02*
X31457Y47485D01*
X31361Y47445D01*
X31279Y47382D01*
X31215Y47299D01*
X31176Y47203D01*
X31162Y47100D01*
X31176Y46997D01*
X31215Y46901D01*
X31279Y46818D01*
X31361Y46755D01*
X31457Y46715D01*
X31561Y46701D01*
X31664Y46715D01*
X31760Y46755D01*
X31843Y46818D01*
X31906Y46901D01*
X31946Y46997D01*
X31959Y47100D01*
X31946Y47203D01*
X31906Y47299D01*
X31843Y47382D01*
X31760Y47445D01*
X31664Y47485D01*
X31561Y47499D01*
D02*
G37*
G36*
X18450Y49077D02*
X11350D01*
X11278Y49068D01*
X11211Y49040D01*
X11154Y48996D01*
X10654Y48496D01*
X10610Y48439D01*
X10582Y48372D01*
X10573Y48300D01*
Y47218D01*
X10582Y47147D01*
X10610Y47080D01*
X10654Y47022D01*
X11123Y46554D01*
Y45862D01*
X11005D01*
Y45071D01*
X11795D01*
Y45862D01*
X11677D01*
Y46449D01*
X11947D01*
Y47068D01*
X11947Y47082D01*
Y47118D01*
X11947Y47132D01*
Y47297D01*
X12950D01*
Y47000D01*
X13850D01*
Y47900D01*
X12950D01*
Y47603D01*
X11947D01*
Y47751D01*
X11353D01*
Y47178D01*
X11303Y47158D01*
X11127Y47333D01*
Y48185D01*
X11465Y48523D01*
X18335D01*
X18973Y47885D01*
Y46915D01*
X18742Y46684D01*
X18733D01*
X18697Y46718D01*
X18697Y46734D01*
Y47351D01*
X18103D01*
Y47188D01*
X16929D01*
X16808Y47309D01*
X16838Y47383D01*
X16854Y47500D01*
X16838Y47617D01*
X16793Y47727D01*
X16721Y47821D01*
X16627Y47893D01*
X16517Y47938D01*
X16400Y47954D01*
X16283Y47938D01*
X16173Y47893D01*
X16079Y47821D01*
X16007Y47727D01*
X15962Y47617D01*
X15946Y47500D01*
X15962Y47383D01*
X16007Y47273D01*
X16079Y47179D01*
X16173Y47107D01*
X16283Y47062D01*
X16400Y47046D01*
X16517Y47062D01*
X16591Y47092D01*
X16688Y46996D01*
X16668Y46950D01*
X15950D01*
Y46752D01*
X13735D01*
X13721Y46771D01*
X13627Y46843D01*
X13517Y46888D01*
X13400Y46904D01*
X13283Y46888D01*
X13173Y46843D01*
X13079Y46771D01*
X13007Y46677D01*
X12962Y46567D01*
X12946Y46450D01*
X12962Y46333D01*
X13007Y46223D01*
X13079Y46129D01*
X13123Y46096D01*
Y44874D01*
X12900D01*
Y44652D01*
X11751D01*
X11745Y44666D01*
X11682Y44749D01*
X11599Y44812D01*
X11503Y44852D01*
X11400Y44865D01*
X11297Y44852D01*
X11201Y44812D01*
X11118Y44749D01*
X11055Y44666D01*
X11015Y44570D01*
X11001Y44467D01*
X11015Y44364D01*
X11055Y44267D01*
X11118Y44185D01*
X11201Y44121D01*
X11297Y44082D01*
X11400Y44068D01*
X11503Y44082D01*
X11544Y44099D01*
X11558Y44097D01*
X12900D01*
Y43874D01*
X13900D01*
Y44874D01*
X13677D01*
Y46096D01*
X13721Y46129D01*
X13774Y46198D01*
X15950D01*
Y46050D01*
X16850D01*
Y46869D01*
X16865Y46882D01*
X18103D01*
Y46732D01*
X18103Y46718D01*
Y46682D01*
X18103Y46668D01*
Y46049D01*
X18123D01*
Y44792D01*
X18043Y44731D01*
X17963Y44626D01*
X17927Y44539D01*
X17873D01*
X17837Y44626D01*
X17757Y44731D01*
X17652Y44811D01*
X17531Y44861D01*
X17400Y44879D01*
X17269Y44861D01*
X17148Y44811D01*
X17043Y44731D01*
X16963Y44626D01*
X16927Y44539D01*
X16873D01*
X16837Y44626D01*
X16757Y44731D01*
X16652Y44811D01*
X16531Y44861D01*
X16400Y44879D01*
X16269Y44861D01*
X16148Y44811D01*
X16043Y44731D01*
X15963Y44626D01*
X15927Y44539D01*
X15873D01*
X15837Y44626D01*
X15757Y44731D01*
X15652Y44811D01*
X15531Y44861D01*
X15400Y44879D01*
X15269Y44861D01*
X15148Y44811D01*
X15043Y44731D01*
X14963Y44626D01*
X14913Y44505D01*
X14896Y44374D01*
X14913Y44244D01*
X14963Y44122D01*
X15043Y44018D01*
X15148Y43938D01*
X15269Y43887D01*
X15400Y43870D01*
X15527Y43887D01*
X16444Y42970D01*
X16527Y42915D01*
X16624Y42895D01*
X19694D01*
X20345Y42244D01*
Y36820D01*
X20364Y36722D01*
X20420Y36640D01*
X22152Y34908D01*
X22147Y34870D01*
X22160Y34766D01*
X22201Y34668D01*
X22241Y34615D01*
X22259Y34592D01*
X22221Y34559D01*
X18560Y38221D01*
X18571Y38280D01*
X18652Y38313D01*
X18757Y38393D01*
X18837Y38498D01*
X18887Y38619D01*
X18904Y38750D01*
X18887Y38881D01*
X18837Y39002D01*
X18757Y39107D01*
X18652Y39187D01*
X18531Y39237D01*
X18400Y39254D01*
X18301Y39241D01*
X17546Y39996D01*
X17489Y40040D01*
X17422Y40068D01*
X17350Y40077D01*
X17013D01*
X16977Y40106D01*
X16891Y40141D01*
X16800Y40153D01*
X16709Y40141D01*
X16623Y40106D01*
X16550Y40050D01*
X16494Y39977D01*
X16459Y39891D01*
X16447Y39800D01*
X16459Y39709D01*
X16494Y39623D01*
X16550Y39550D01*
X16623Y39494D01*
X16709Y39459D01*
X16800Y39447D01*
X16891Y39459D01*
X16977Y39494D01*
X17013Y39523D01*
X17235D01*
X17464Y39294D01*
X17442Y39249D01*
X17400Y39254D01*
X17269Y39237D01*
X17148Y39187D01*
X17043Y39107D01*
X16963Y39002D01*
X16927Y38915D01*
X16873D01*
X16837Y39002D01*
X16757Y39107D01*
X16652Y39187D01*
X16531Y39237D01*
X16400Y39254D01*
X16269Y39237D01*
X16148Y39187D01*
X16043Y39107D01*
X15963Y39002D01*
X15927Y38915D01*
X15873D01*
X15837Y39002D01*
X15757Y39107D01*
X15652Y39187D01*
X15531Y39237D01*
X15400Y39254D01*
X15269Y39237D01*
X15148Y39187D01*
X15043Y39107D01*
X14963Y39002D01*
X14913Y38881D01*
X14896Y38750D01*
X14913Y38619D01*
X14963Y38498D01*
X15043Y38393D01*
X15148Y38313D01*
X15269Y38263D01*
X15400Y38246D01*
X15527Y38262D01*
X16270Y37520D01*
X16352Y37464D01*
X16450Y37445D01*
X18046D01*
X18444Y37047D01*
X18425Y37001D01*
X18103D01*
Y36953D01*
X16850D01*
Y37250D01*
X15950D01*
Y36350D01*
X16850D01*
Y36647D01*
X18103D01*
Y36382D01*
X18103Y36368D01*
Y36332D01*
X18103Y36318D01*
Y35699D01*
X18173D01*
Y34735D01*
X18126Y34716D01*
X17646Y35196D01*
X17589Y35240D01*
X17522Y35268D01*
X17450Y35277D01*
X16863D01*
X16827Y35306D01*
X16741Y35341D01*
X16650Y35353D01*
X16617Y35349D01*
X16604Y35397D01*
X16627Y35407D01*
X16721Y35479D01*
X16793Y35573D01*
X16838Y35683D01*
X16854Y35800D01*
X16838Y35917D01*
X16793Y36027D01*
X16721Y36121D01*
X16627Y36193D01*
X16517Y36238D01*
X16400Y36254D01*
X16283Y36238D01*
X16173Y36193D01*
X16079Y36121D01*
X16007Y36027D01*
X15962Y35917D01*
X15946Y35800D01*
X15962Y35683D01*
X16007Y35573D01*
X16079Y35479D01*
X16173Y35407D01*
X16283Y35362D01*
X16400Y35346D01*
X16459Y35354D01*
X16473Y35306D01*
X16400Y35250D01*
X16344Y35177D01*
X16309Y35091D01*
X16297Y35000D01*
X16309Y34909D01*
X16344Y34823D01*
X16400Y34750D01*
X16473Y34694D01*
X16559Y34659D01*
X16650Y34647D01*
X16741Y34659D01*
X16827Y34694D01*
X16863Y34723D01*
X17335D01*
X17514Y34544D01*
X17492Y34499D01*
X17450Y34504D01*
X17319Y34487D01*
X17198Y34437D01*
X17093Y34357D01*
X17013Y34252D01*
X16977Y34165D01*
X16923D01*
X16887Y34252D01*
X16807Y34357D01*
X16702Y34437D01*
X16581Y34487D01*
X16450Y34504D01*
X16319Y34487D01*
X16198Y34437D01*
X16093Y34357D01*
X16013Y34252D01*
X15977Y34165D01*
X15923D01*
X15887Y34252D01*
X15807Y34357D01*
X15702Y34437D01*
X15581Y34487D01*
X15450Y34504D01*
X15319Y34487D01*
X15198Y34437D01*
X15093Y34357D01*
X15013Y34252D01*
X14963Y34131D01*
X14946Y34000D01*
X14963Y33869D01*
X15013Y33748D01*
X15093Y33643D01*
X15198Y33563D01*
X15319Y33513D01*
X15450Y33496D01*
X15577Y33512D01*
X16387Y32703D01*
X16369Y32650D01*
X16283Y32638D01*
X16173Y32593D01*
X16079Y32521D01*
X16007Y32427D01*
X15962Y32317D01*
X15946Y32200D01*
X15962Y32083D01*
X16007Y31973D01*
X16079Y31879D01*
X16173Y31807D01*
X16283Y31762D01*
X16400Y31746D01*
X16517Y31762D01*
X16627Y31807D01*
X16721Y31879D01*
X16735Y31897D01*
X18103D01*
Y31682D01*
X18103Y31668D01*
Y31632D01*
X18103Y31618D01*
Y30999D01*
X18123D01*
Y30035D01*
X18076Y30016D01*
X17696Y30396D01*
X17639Y30440D01*
X17572Y30468D01*
X17500Y30477D01*
X17013D01*
X16977Y30506D01*
X16891Y30541D01*
X16800Y30553D01*
X16709Y30541D01*
X16623Y30506D01*
X16550Y30450D01*
X16494Y30377D01*
X16459Y30291D01*
X16447Y30200D01*
X16459Y30109D01*
X16494Y30023D01*
X16550Y29950D01*
X16623Y29894D01*
X16709Y29859D01*
X16800Y29847D01*
X16891Y29859D01*
X16977Y29894D01*
X17013Y29923D01*
X17385D01*
X17464Y29844D01*
X17442Y29799D01*
X17400Y29804D01*
X17269Y29787D01*
X17148Y29737D01*
X17043Y29657D01*
X16963Y29552D01*
X16927Y29465D01*
X16873D01*
X16837Y29552D01*
X16757Y29657D01*
X16652Y29737D01*
X16531Y29787D01*
X16400Y29804D01*
X16269Y29787D01*
X16148Y29737D01*
X16043Y29657D01*
X15963Y29552D01*
X15927Y29465D01*
X15873D01*
X15837Y29552D01*
X15757Y29657D01*
X15652Y29737D01*
X15531Y29787D01*
X15400Y29804D01*
X15269Y29787D01*
X15148Y29737D01*
X15043Y29657D01*
X14963Y29552D01*
X14913Y29431D01*
X14896Y29300D01*
X14913Y29169D01*
X14963Y29048D01*
X15043Y28943D01*
X15148Y28863D01*
X15269Y28813D01*
X15400Y28796D01*
X15527Y28812D01*
X16270Y28070D01*
X16352Y28015D01*
X16450Y27995D01*
X21930D01*
X22028Y28015D01*
X22110Y28070D01*
X22221Y28181D01*
X22259Y28148D01*
X22241Y28125D01*
X22201Y28072D01*
X22160Y27974D01*
X22147Y27870D01*
X22160Y27766D01*
X22201Y27668D01*
X22265Y27585D01*
X22348Y27521D01*
X22446Y27480D01*
X22550Y27467D01*
X22654Y27480D01*
X22752Y27521D01*
X22835Y27585D01*
X22899Y27668D01*
X22940Y27766D01*
X22953Y27870D01*
X22940Y27974D01*
X22899Y28072D01*
X22835Y28155D01*
X22752Y28219D01*
X22654Y28260D01*
X22550Y28273D01*
X22446Y28260D01*
X22348Y28219D01*
X22295Y28179D01*
X22272Y28161D01*
X22239Y28199D01*
X22512Y28472D01*
X22550Y28467D01*
X22654Y28480D01*
X22752Y28521D01*
X22835Y28585D01*
X22899Y28668D01*
X22940Y28766D01*
X22953Y28870D01*
X22940Y28974D01*
X22899Y29072D01*
X22835Y29155D01*
X22752Y29219D01*
X22654Y29260D01*
X22550Y29273D01*
X22446Y29260D01*
X22348Y29219D01*
X22304Y29186D01*
X22275Y29196D01*
X22256Y29212D01*
X22257Y29216D01*
X22512Y29472D01*
X22550Y29467D01*
X22654Y29480D01*
X22752Y29521D01*
X22835Y29585D01*
X22899Y29668D01*
X22940Y29766D01*
X22953Y29870D01*
X22940Y29974D01*
X22899Y30072D01*
X22835Y30155D01*
X22752Y30219D01*
X22654Y30260D01*
X22550Y30273D01*
X22446Y30260D01*
X22348Y30219D01*
X22265Y30155D01*
X22201Y30072D01*
X22160Y29974D01*
X22147Y29870D01*
X22152Y29832D01*
X21224Y28905D01*
X18782D01*
X18765Y28955D01*
X18837Y29048D01*
X18887Y29169D01*
X18904Y29300D01*
X18887Y29431D01*
X18837Y29552D01*
X18757Y29657D01*
X18677Y29717D01*
Y30999D01*
X18697D01*
Y31618D01*
X18697Y31632D01*
Y31668D01*
X18697Y31682D01*
Y32301D01*
X18103D01*
Y32203D01*
X16853D01*
X16838Y32317D01*
X16793Y32427D01*
X16721Y32521D01*
X16689Y32545D01*
X16706Y32595D01*
X19894D01*
X21200Y31290D01*
X21282Y31235D01*
X21380Y31215D01*
X21844D01*
X22152Y30908D01*
X22147Y30870D01*
X22160Y30766D01*
X22201Y30668D01*
X22265Y30585D01*
X22348Y30521D01*
X22446Y30480D01*
X22550Y30467D01*
X22654Y30480D01*
X22752Y30521D01*
X22835Y30585D01*
X22899Y30668D01*
X22940Y30766D01*
X22953Y30870D01*
X22940Y30974D01*
X22899Y31072D01*
X22835Y31155D01*
X22752Y31219D01*
X22654Y31260D01*
X22550Y31273D01*
X22512Y31268D01*
X22239Y31541D01*
X22272Y31579D01*
X22348Y31521D01*
X22446Y31480D01*
X22550Y31467D01*
X22654Y31480D01*
X22752Y31521D01*
X22835Y31585D01*
X22899Y31668D01*
X22940Y31766D01*
X22953Y31870D01*
X22940Y31974D01*
X22899Y32072D01*
X22835Y32155D01*
X22752Y32219D01*
X22654Y32260D01*
X22550Y32273D01*
X22446Y32260D01*
X22348Y32219D01*
X22265Y32155D01*
X22241Y32125D01*
X21786D01*
X20380Y33530D01*
X20298Y33586D01*
X20200Y33605D01*
X18832D01*
X18815Y33655D01*
X18887Y33748D01*
X18937Y33869D01*
X18954Y34000D01*
X18937Y34131D01*
X18887Y34252D01*
X18807Y34357D01*
X18727Y34417D01*
Y35946D01*
X18718Y36017D01*
X18697Y36068D01*
Y36318D01*
X18697Y36332D01*
Y36368D01*
X18697Y36382D01*
Y36729D01*
X18743Y36748D01*
X20067Y35424D01*
Y35098D01*
X20087Y35000D01*
X20142Y34918D01*
X22152Y32908D01*
X22147Y32870D01*
X22160Y32766D01*
X22201Y32668D01*
X22265Y32585D01*
X22348Y32521D01*
X22446Y32480D01*
X22550Y32467D01*
X22654Y32480D01*
X22752Y32521D01*
X22835Y32585D01*
X22899Y32668D01*
X22940Y32766D01*
X22953Y32870D01*
X22940Y32974D01*
X22899Y33072D01*
X22835Y33155D01*
X22752Y33219D01*
X22654Y33260D01*
X22550Y33273D01*
X22512Y33268D01*
X22257Y33524D01*
X22256Y33528D01*
X22275Y33544D01*
X22304Y33554D01*
X22348Y33521D01*
X22446Y33480D01*
X22550Y33467D01*
X22654Y33480D01*
X22752Y33521D01*
X22835Y33585D01*
X22899Y33668D01*
X22940Y33766D01*
X22953Y33870D01*
X22940Y33974D01*
X22899Y34072D01*
X22835Y34155D01*
X22752Y34219D01*
X22654Y34260D01*
X22550Y34273D01*
X22512Y34268D01*
X22239Y34541D01*
X22272Y34579D01*
X22295Y34561D01*
X22348Y34521D01*
X22446Y34480D01*
X22550Y34467D01*
X22654Y34480D01*
X22752Y34521D01*
X22835Y34585D01*
X22899Y34668D01*
X22940Y34766D01*
X22953Y34870D01*
X22940Y34974D01*
X22899Y35072D01*
X22835Y35155D01*
X22752Y35219D01*
X22654Y35260D01*
X22550Y35273D01*
X22512Y35268D01*
X22257Y35524D01*
X22256Y35528D01*
X22275Y35544D01*
X22304Y35554D01*
X22348Y35521D01*
X22446Y35480D01*
X22550Y35467D01*
X22654Y35480D01*
X22752Y35521D01*
X22835Y35585D01*
X22899Y35668D01*
X22940Y35766D01*
X22953Y35870D01*
X22940Y35974D01*
X22899Y36072D01*
X22835Y36155D01*
X22752Y36219D01*
X22654Y36260D01*
X22550Y36273D01*
X22512Y36268D01*
X22239Y36541D01*
X22272Y36579D01*
X22295Y36561D01*
X22348Y36521D01*
X22446Y36480D01*
X22550Y36467D01*
X22654Y36480D01*
X22752Y36521D01*
X22835Y36585D01*
X22899Y36668D01*
X22940Y36766D01*
X22953Y36870D01*
X22940Y36974D01*
X22899Y37072D01*
X22835Y37155D01*
X22752Y37219D01*
X22654Y37260D01*
X22550Y37273D01*
X22446Y37260D01*
X22348Y37219D01*
X22265Y37155D01*
X22201Y37072D01*
X22160Y36974D01*
X22147Y36870D01*
X22160Y36766D01*
X22201Y36668D01*
X22241Y36615D01*
X22259Y36592D01*
X22221Y36559D01*
X21380Y37401D01*
Y42575D01*
X21360Y42673D01*
X21305Y42755D01*
X20330Y43730D01*
X20248Y43786D01*
X20150Y43805D01*
X17341D01*
X17322Y43830D01*
X17349Y43877D01*
X17400Y43870D01*
X17531Y43887D01*
X17652Y43938D01*
X17757Y44018D01*
X17837Y44122D01*
X17873Y44210D01*
X17927D01*
X17963Y44122D01*
X18043Y44018D01*
X18148Y43938D01*
X18269Y43887D01*
X18400Y43870D01*
X18531Y43887D01*
X18652Y43938D01*
X18757Y44018D01*
X18837Y44122D01*
X18887Y44244D01*
X18904Y44374D01*
X18887Y44505D01*
X18837Y44626D01*
X18757Y44731D01*
X18677Y44792D01*
Y46049D01*
X18697D01*
Y46130D01*
X18857D01*
X18929Y46139D01*
X18996Y46167D01*
X19053Y46211D01*
X19446Y46604D01*
X19490Y46661D01*
X19518Y46728D01*
X19527Y46800D01*
Y48000D01*
X19518Y48072D01*
X19490Y48139D01*
X19446Y48196D01*
X18646Y48996D01*
X18589Y49040D01*
X18522Y49068D01*
X18450Y49077D01*
D02*
G37*
G36*
X37754Y47480D02*
X36846D01*
Y46571D01*
X37754D01*
Y47480D01*
D02*
G37*
G36*
X38678Y47483D02*
X38559Y47468D01*
X38449Y47422D01*
X38354Y47349D01*
X38281Y47254D01*
X38235Y47144D01*
X38220Y47025D01*
X38235Y46907D01*
X38281Y46796D01*
X38354Y46701D01*
X38449Y46628D01*
X38559Y46583D01*
X38678Y46567D01*
X38797Y46583D01*
X38907Y46628D01*
X39002Y46701D01*
X39075Y46796D01*
X39121Y46907D01*
X39136Y47025D01*
X39121Y47144D01*
X39075Y47254D01*
X39002Y47349D01*
X38907Y47422D01*
X38797Y47468D01*
X38678Y47483D01*
D02*
G37*
G36*
X29000Y46794D02*
X28881Y46779D01*
X28771Y46733D01*
X28676Y46660D01*
X28603Y46565D01*
X28557Y46455D01*
X28542Y46336D01*
X28557Y46218D01*
X28603Y46107D01*
X28676Y46012D01*
X28771Y45939D01*
X28881Y45894D01*
X29000Y45878D01*
X29119Y45894D01*
X29229Y45939D01*
X29324Y46012D01*
X29397Y46107D01*
X29443Y46218D01*
X29458Y46336D01*
X29443Y46455D01*
X29397Y46565D01*
X29324Y46660D01*
X29229Y46733D01*
X29119Y46779D01*
X29000Y46794D01*
D02*
G37*
G36*
X25450D02*
X25331Y46779D01*
X25221Y46733D01*
X25126Y46660D01*
X25053Y46565D01*
X25007Y46455D01*
X24992Y46336D01*
X25007Y46218D01*
X25053Y46107D01*
X25126Y46012D01*
X25221Y45939D01*
X25331Y45894D01*
X25450Y45878D01*
X25569Y45894D01*
X25679Y45939D01*
X25774Y46012D01*
X25847Y46107D01*
X25893Y46218D01*
X25908Y46336D01*
X25893Y46455D01*
X25847Y46565D01*
X25774Y46660D01*
X25679Y46733D01*
X25569Y46779D01*
X25450Y46794D01*
D02*
G37*
G36*
X35550Y46499D02*
X35447Y46485D01*
X35351Y46445D01*
X35268Y46382D01*
X35205Y46299D01*
X35165Y46203D01*
X35151Y46100D01*
X35165Y45997D01*
X35205Y45901D01*
X35268Y45818D01*
X35351Y45755D01*
X35447Y45715D01*
X35550Y45701D01*
X35653Y45715D01*
X35749Y45755D01*
X35832Y45818D01*
X35895Y45901D01*
X35935Y45997D01*
X35949Y46100D01*
X35935Y46203D01*
X35895Y46299D01*
X35832Y46382D01*
X35749Y46445D01*
X35653Y46485D01*
X35550Y46499D01*
D02*
G37*
G36*
X34550D02*
X34447Y46485D01*
X34351Y46445D01*
X34268Y46382D01*
X34205Y46299D01*
X34165Y46203D01*
X34151Y46100D01*
X34165Y45997D01*
X34205Y45901D01*
X34268Y45818D01*
X34351Y45755D01*
X34447Y45715D01*
X34550Y45701D01*
X34653Y45715D01*
X34749Y45755D01*
X34832Y45818D01*
X34895Y45901D01*
X34935Y45997D01*
X34949Y46100D01*
X34935Y46203D01*
X34895Y46299D01*
X34832Y46382D01*
X34749Y46445D01*
X34653Y46485D01*
X34550Y46499D01*
D02*
G37*
G36*
X31561D02*
X31457Y46485D01*
X31361Y46445D01*
X31279Y46382D01*
X31215Y46299D01*
X31176Y46203D01*
X31162Y46100D01*
X31176Y45997D01*
X31215Y45901D01*
X31279Y45818D01*
X31361Y45755D01*
X31457Y45715D01*
X31561Y45701D01*
X31664Y45715D01*
X31760Y45755D01*
X31843Y45818D01*
X31906Y45901D01*
X31946Y45997D01*
X31959Y46100D01*
X31946Y46203D01*
X31906Y46299D01*
X31843Y46382D01*
X31760Y46445D01*
X31664Y46485D01*
X31561Y46499D01*
D02*
G37*
G36*
X35550Y45499D02*
X35447Y45485D01*
X35351Y45445D01*
X35268Y45382D01*
X35205Y45299D01*
X35165Y45203D01*
X35151Y45100D01*
X35165Y44997D01*
X35205Y44901D01*
X35268Y44818D01*
X35351Y44755D01*
X35447Y44715D01*
X35550Y44701D01*
X35653Y44715D01*
X35749Y44755D01*
X35832Y44818D01*
X35895Y44901D01*
X35935Y44997D01*
X35949Y45100D01*
X35935Y45203D01*
X35895Y45299D01*
X35832Y45382D01*
X35749Y45445D01*
X35653Y45485D01*
X35550Y45499D01*
D02*
G37*
G36*
X34550D02*
X34447Y45485D01*
X34351Y45445D01*
X34268Y45382D01*
X34205Y45299D01*
X34165Y45203D01*
X34151Y45100D01*
X34165Y44997D01*
X34205Y44901D01*
X34268Y44818D01*
X34351Y44755D01*
X34447Y44715D01*
X34550Y44701D01*
X34653Y44715D01*
X34749Y44755D01*
X34832Y44818D01*
X34895Y44901D01*
X34935Y44997D01*
X34949Y45100D01*
X34935Y45203D01*
X34895Y45299D01*
X34832Y45382D01*
X34749Y45445D01*
X34653Y45485D01*
X34550Y45499D01*
D02*
G37*
G36*
X31561D02*
X31457Y45485D01*
X31361Y45445D01*
X31279Y45382D01*
X31215Y45299D01*
X31176Y45203D01*
X31162Y45100D01*
X31176Y44997D01*
X31215Y44901D01*
X31279Y44818D01*
X31361Y44755D01*
X31457Y44715D01*
X31561Y44701D01*
X31664Y44715D01*
X31760Y44755D01*
X31843Y44818D01*
X31906Y44901D01*
X31946Y44997D01*
X31959Y45100D01*
X31946Y45203D01*
X31906Y45299D01*
X31843Y45382D01*
X31760Y45445D01*
X31664Y45485D01*
X31561Y45499D01*
D02*
G37*
G36*
X35945Y44495D02*
X35155D01*
Y43705D01*
X35945D01*
Y44495D01*
D02*
G37*
G36*
X34550Y44499D02*
X34447Y44485D01*
X34351Y44445D01*
X34268Y44382D01*
X34205Y44299D01*
X34165Y44203D01*
X34151Y44100D01*
X34165Y43997D01*
X34205Y43901D01*
X34268Y43818D01*
X34351Y43755D01*
X34447Y43715D01*
X34550Y43701D01*
X34653Y43715D01*
X34749Y43755D01*
X34832Y43818D01*
X34895Y43901D01*
X34935Y43997D01*
X34949Y44100D01*
X34935Y44203D01*
X34895Y44299D01*
X34832Y44382D01*
X34749Y44445D01*
X34653Y44485D01*
X34550Y44499D01*
D02*
G37*
G36*
X31561D02*
X31457Y44485D01*
X31361Y44445D01*
X31279Y44382D01*
X31215Y44299D01*
X31176Y44203D01*
X31162Y44100D01*
X31176Y43997D01*
X31215Y43901D01*
X31279Y43818D01*
X31361Y43755D01*
X31457Y43715D01*
X31561Y43701D01*
X31664Y43715D01*
X31760Y43755D01*
X31843Y43818D01*
X31906Y43901D01*
X31946Y43997D01*
X31959Y44100D01*
X31946Y44203D01*
X31906Y44299D01*
X31843Y44382D01*
X31760Y44445D01*
X31664Y44485D01*
X31561Y44499D01*
D02*
G37*
G36*
X37754Y43254D02*
X36846D01*
Y42346D01*
X37754D01*
Y43254D01*
D02*
G37*
G36*
X38678Y43258D02*
X38559Y43243D01*
X38449Y43197D01*
X38354Y43124D01*
X38281Y43029D01*
X38235Y42919D01*
X38220Y42800D01*
X38235Y42681D01*
X38281Y42571D01*
X38354Y42476D01*
X38449Y42403D01*
X38559Y42357D01*
X38678Y42342D01*
X38797Y42357D01*
X38907Y42403D01*
X39002Y42476D01*
X39075Y42571D01*
X39121Y42681D01*
X39136Y42800D01*
X39121Y42919D01*
X39075Y43029D01*
X39002Y43124D01*
X38907Y43197D01*
X38797Y43243D01*
X38678Y43258D01*
D02*
G37*
G36*
X13850Y42500D02*
X12950D01*
Y42203D01*
X12147D01*
Y42251D01*
X11553D01*
Y41632D01*
X11553Y41618D01*
X11553D01*
Y41582D01*
X11553D01*
Y41341D01*
X11204Y40992D01*
X11160Y40934D01*
X11132Y40867D01*
X11123Y40796D01*
Y40238D01*
X11005D01*
Y39447D01*
X11795D01*
Y40238D01*
X11677D01*
Y40681D01*
X11945Y40949D01*
X12147D01*
Y41582D01*
X12147D01*
X12147Y41618D01*
X12150Y41667D01*
X12153Y41683D01*
Y41702D01*
X12147Y41732D01*
Y41897D01*
X12950D01*
Y41600D01*
X13850D01*
Y42500D01*
D02*
G37*
G36*
X16850Y41500D02*
X15950D01*
Y40600D01*
X16850D01*
Y41500D01*
D02*
G37*
G36*
X16400Y42504D02*
X16283Y42488D01*
X16173Y42443D01*
X16079Y42371D01*
X16007Y42277D01*
X15962Y42167D01*
X15946Y42050D01*
X15962Y41933D01*
X16007Y41823D01*
X16079Y41729D01*
X16173Y41657D01*
X16283Y41612D01*
X16400Y41596D01*
X16517Y41612D01*
X16627Y41657D01*
X16721Y41729D01*
X16793Y41823D01*
X16824Y41897D01*
X18103D01*
Y41732D01*
X18103Y41718D01*
Y41682D01*
X18103Y41668D01*
Y41049D01*
X18123D01*
Y40813D01*
X18094Y40777D01*
X18059Y40691D01*
X18047Y40600D01*
X18059Y40509D01*
X18094Y40423D01*
X18150Y40350D01*
X18223Y40294D01*
X18309Y40259D01*
X18400Y40247D01*
X18491Y40259D01*
X18577Y40294D01*
X18650Y40350D01*
X18706Y40423D01*
X18741Y40509D01*
X18753Y40600D01*
X18741Y40691D01*
X18706Y40777D01*
X18677Y40813D01*
Y41049D01*
X18697D01*
Y41306D01*
X18699Y41324D01*
X18697Y41342D01*
Y41668D01*
X18697Y41682D01*
Y41718D01*
X18697Y41732D01*
Y42351D01*
X18103D01*
Y42203D01*
X16824D01*
X16793Y42277D01*
X16721Y42371D01*
X16627Y42443D01*
X16517Y42488D01*
X16400Y42504D01*
D02*
G37*
G36*
X25450Y47969D02*
X25352Y47950D01*
X25270Y47894D01*
X25125Y47750D01*
X25103Y47745D01*
X25020Y47690D01*
X22370Y45040D01*
X22315Y44957D01*
X22295Y44859D01*
Y39870D01*
X22315Y39772D01*
X22370Y39690D01*
X22452Y39634D01*
X22550Y39615D01*
X22648Y39634D01*
X22730Y39690D01*
X22785Y39772D01*
X22805Y39870D01*
Y44754D01*
X25321Y47270D01*
X25343Y47274D01*
X25426Y47330D01*
X25630Y47534D01*
X25686Y47617D01*
X25705Y47714D01*
X25686Y47812D01*
X25630Y47894D01*
X25548Y47950D01*
X25450Y47969D01*
D02*
G37*
G36*
X32550Y40273D02*
X32446Y40260D01*
X32348Y40219D01*
X32265Y40155D01*
X32201Y40072D01*
X32160Y39974D01*
X32147Y39870D01*
X32160Y39766D01*
X32201Y39668D01*
X32265Y39585D01*
X32348Y39521D01*
X32446Y39480D01*
X32550Y39467D01*
X32654Y39480D01*
X32752Y39521D01*
X32835Y39585D01*
X32899Y39668D01*
X32940Y39766D01*
X32953Y39870D01*
X32940Y39974D01*
X32899Y40072D01*
X32835Y40155D01*
X32752Y40219D01*
X32654Y40260D01*
X32550Y40273D01*
D02*
G37*
G36*
X13400Y41504D02*
X13283Y41488D01*
X13173Y41443D01*
X13079Y41371D01*
X13007Y41277D01*
X12962Y41167D01*
X12946Y41050D01*
X12962Y40933D01*
X13007Y40823D01*
X13079Y40729D01*
X13123Y40696D01*
Y39250D01*
X12900D01*
Y39074D01*
X11721D01*
X11682Y39124D01*
X11599Y39188D01*
X11503Y39228D01*
X11400Y39241D01*
X11297Y39228D01*
X11201Y39188D01*
X11118Y39124D01*
X11055Y39042D01*
X11015Y38946D01*
X11001Y38842D01*
X11015Y38739D01*
X11055Y38643D01*
X11118Y38560D01*
X11201Y38497D01*
X11297Y38457D01*
X11400Y38444D01*
X11503Y38457D01*
X11599Y38497D01*
X11628Y38519D01*
X12900D01*
Y38250D01*
X13900D01*
Y39250D01*
X13677D01*
Y40696D01*
X13721Y40729D01*
X13793Y40823D01*
X13838Y40933D01*
X13854Y41050D01*
X13838Y41167D01*
X13793Y41277D01*
X13721Y41371D01*
X13627Y41443D01*
X13517Y41488D01*
X13400Y41504D01*
D02*
G37*
G36*
X22550Y39273D02*
X22446Y39260D01*
X22348Y39219D01*
X22265Y39155D01*
X22201Y39072D01*
X22160Y38974D01*
X22147Y38870D01*
X22160Y38766D01*
X22201Y38668D01*
X22265Y38585D01*
X22348Y38521D01*
X22446Y38480D01*
X22550Y38467D01*
X22654Y38480D01*
X22752Y38521D01*
X22835Y38585D01*
X22899Y38668D01*
X22940Y38766D01*
X22953Y38870D01*
X22940Y38974D01*
X22899Y39072D01*
X22835Y39155D01*
X22752Y39219D01*
X22654Y39260D01*
X22550Y39273D01*
D02*
G37*
G36*
X32550Y39233D02*
X32446Y39220D01*
X32348Y39179D01*
X32265Y39115D01*
X32201Y39032D01*
X32160Y38934D01*
X32147Y38830D01*
X32160Y38726D01*
X32201Y38628D01*
X32265Y38545D01*
X32348Y38481D01*
X32446Y38440D01*
X32550Y38427D01*
X32654Y38440D01*
X32752Y38481D01*
X32835Y38545D01*
X32899Y38628D01*
X32940Y38726D01*
X32953Y38830D01*
X32940Y38934D01*
X32899Y39032D01*
X32835Y39115D01*
X32752Y39179D01*
X32654Y39220D01*
X32550Y39233D01*
D02*
G37*
G36*
X38950Y38750D02*
X37950D01*
Y37750D01*
X38220D01*
X38230Y37700D01*
X38198Y37687D01*
X38093Y37607D01*
X38015Y37505D01*
X35745D01*
X35667Y37607D01*
X35563Y37687D01*
X35531Y37700D01*
X35541Y37750D01*
X35811D01*
Y38750D01*
X34811D01*
Y37750D01*
X35081D01*
X35090Y37700D01*
X35058Y37687D01*
X34954Y37607D01*
X34874Y37502D01*
X34824Y37381D01*
X34806Y37250D01*
X34823Y37123D01*
X33282Y35582D01*
X33227Y35499D01*
X33207Y35401D01*
Y33848D01*
X32879Y33519D01*
X32841Y33552D01*
X32859Y33575D01*
X32899Y33628D01*
X32940Y33726D01*
X32953Y33830D01*
X32940Y33934D01*
X32899Y34032D01*
X32835Y34115D01*
X32752Y34179D01*
X32654Y34220D01*
X32550Y34233D01*
X32446Y34220D01*
X32348Y34179D01*
X32265Y34115D01*
X32201Y34032D01*
X32160Y33934D01*
X32147Y33830D01*
X32160Y33726D01*
X32201Y33628D01*
X32265Y33545D01*
X32348Y33481D01*
X32446Y33440D01*
X32550Y33427D01*
X32654Y33440D01*
X32752Y33481D01*
X32805Y33521D01*
X32828Y33539D01*
X32861Y33501D01*
X32588Y33228D01*
X32550Y33233D01*
X32446Y33220D01*
X32348Y33179D01*
X32265Y33115D01*
X32201Y33032D01*
X32160Y32934D01*
X32147Y32830D01*
X32160Y32726D01*
X32201Y32628D01*
X32265Y32545D01*
X32348Y32481D01*
X32446Y32440D01*
X32550Y32427D01*
X32654Y32440D01*
X32752Y32481D01*
X32796Y32514D01*
X32825Y32504D01*
X32844Y32488D01*
X32843Y32484D01*
X32588Y32228D01*
X32550Y32233D01*
X32446Y32220D01*
X32348Y32179D01*
X32265Y32115D01*
X32201Y32032D01*
X32160Y31934D01*
X32147Y31830D01*
X32160Y31726D01*
X32201Y31628D01*
X32265Y31545D01*
X32348Y31481D01*
X32446Y31440D01*
X32550Y31427D01*
X32647Y31439D01*
X32661Y31423D01*
X32672Y31394D01*
X32506Y31228D01*
X32446Y31220D01*
X32348Y31179D01*
X32265Y31115D01*
X32201Y31032D01*
X32160Y30934D01*
X32147Y30830D01*
X32160Y30726D01*
X32201Y30628D01*
X32265Y30545D01*
X32348Y30481D01*
X32446Y30440D01*
X32550Y30427D01*
X32654Y30440D01*
X32752Y30481D01*
X32835Y30545D01*
X32899Y30628D01*
X32940Y30726D01*
X32953Y30830D01*
X32940Y30934D01*
X32938Y30939D01*
X34360Y32360D01*
X34406Y32341D01*
Y30803D01*
X34395Y30750D01*
Y30036D01*
X32879Y28519D01*
X32841Y28552D01*
X32859Y28575D01*
X32899Y28628D01*
X32940Y28726D01*
X32953Y28830D01*
X32940Y28934D01*
X32899Y29032D01*
X32835Y29115D01*
X32752Y29179D01*
X32654Y29220D01*
X32550Y29233D01*
X32446Y29220D01*
X32348Y29179D01*
X32265Y29115D01*
X32201Y29032D01*
X32160Y28934D01*
X32147Y28830D01*
X32160Y28726D01*
X32201Y28628D01*
X32265Y28545D01*
X32348Y28481D01*
X32446Y28440D01*
X32550Y28427D01*
X32654Y28440D01*
X32752Y28481D01*
X32805Y28521D01*
X32828Y28539D01*
X32861Y28501D01*
X32588Y28228D01*
X32550Y28233D01*
X32446Y28220D01*
X32348Y28179D01*
X32265Y28115D01*
X32201Y28032D01*
X32160Y27934D01*
X32147Y27830D01*
X32160Y27726D01*
X32201Y27628D01*
X32265Y27545D01*
X32348Y27481D01*
X32446Y27440D01*
X32550Y27427D01*
X32654Y27440D01*
X32752Y27481D01*
X32796Y27514D01*
X32825Y27504D01*
X32844Y27488D01*
X32843Y27484D01*
X32588Y27228D01*
X32550Y27233D01*
X32446Y27220D01*
X32348Y27179D01*
X32265Y27115D01*
X32201Y27032D01*
X32160Y26934D01*
X32147Y26830D01*
X32160Y26726D01*
X32201Y26628D01*
X32265Y26545D01*
X32348Y26481D01*
X32446Y26440D01*
X32550Y26427D01*
X32654Y26440D01*
X32752Y26481D01*
X32796Y26514D01*
X32825Y26504D01*
X32844Y26488D01*
X32843Y26484D01*
X32588Y26228D01*
X32550Y26233D01*
X32446Y26220D01*
X32348Y26179D01*
X32265Y26115D01*
X32201Y26032D01*
X32160Y25934D01*
X32147Y25830D01*
X32160Y25726D01*
X32201Y25628D01*
X32265Y25545D01*
X32348Y25481D01*
X32446Y25440D01*
X32550Y25427D01*
X32654Y25440D01*
X32752Y25481D01*
X32796Y25514D01*
X32825Y25504D01*
X32844Y25488D01*
X32843Y25484D01*
X32588Y25228D01*
X32550Y25233D01*
X32446Y25220D01*
X32348Y25179D01*
X32265Y25115D01*
X32201Y25032D01*
X32160Y24934D01*
X32147Y24830D01*
X32160Y24726D01*
X32201Y24628D01*
X32265Y24545D01*
X32348Y24481D01*
X32446Y24440D01*
X32550Y24427D01*
X32654Y24440D01*
X32752Y24481D01*
X32796Y24514D01*
X32825Y24504D01*
X32844Y24488D01*
X32843Y24484D01*
X32588Y24228D01*
X32550Y24233D01*
X32446Y24220D01*
X32348Y24179D01*
X32265Y24115D01*
X32201Y24032D01*
X32160Y23934D01*
X32147Y23830D01*
X32160Y23726D01*
X32201Y23628D01*
X32265Y23545D01*
X32348Y23481D01*
X32446Y23440D01*
X32550Y23427D01*
X32654Y23440D01*
X32752Y23481D01*
X32796Y23514D01*
X32825Y23504D01*
X32844Y23488D01*
X32843Y23484D01*
X32588Y23228D01*
X32550Y23233D01*
X32446Y23220D01*
X32348Y23179D01*
X32265Y23115D01*
X32201Y23032D01*
X32160Y22934D01*
X32147Y22830D01*
X32160Y22726D01*
X32201Y22628D01*
X32265Y22545D01*
X32348Y22481D01*
X32446Y22440D01*
X32550Y22427D01*
X32654Y22440D01*
X32752Y22481D01*
X32805Y22521D01*
X32828Y22539D01*
X32861Y22501D01*
X32588Y22228D01*
X32550Y22233D01*
X32446Y22220D01*
X32348Y22179D01*
X32265Y22115D01*
X32201Y22032D01*
X32160Y21934D01*
X32147Y21830D01*
X32160Y21726D01*
X32201Y21628D01*
X32234Y21585D01*
X32209Y21535D01*
X26246D01*
X22948Y24832D01*
X22953Y24870D01*
X22940Y24974D01*
X22899Y25072D01*
X22835Y25155D01*
X22752Y25219D01*
X22654Y25260D01*
X22550Y25273D01*
X22446Y25260D01*
X22348Y25219D01*
X22265Y25155D01*
X22201Y25072D01*
X22160Y24974D01*
X22147Y24870D01*
X22160Y24766D01*
X22201Y24668D01*
X22265Y24585D01*
X22348Y24521D01*
X22446Y24480D01*
X22550Y24467D01*
X22588Y24472D01*
X22843Y24216D01*
X22844Y24212D01*
X22825Y24196D01*
X22796Y24186D01*
X22752Y24219D01*
X22654Y24260D01*
X22550Y24273D01*
X22446Y24260D01*
X22348Y24219D01*
X22265Y24155D01*
X22201Y24072D01*
X22160Y23974D01*
X22147Y23870D01*
X22160Y23766D01*
X22201Y23668D01*
X22265Y23585D01*
X22348Y23521D01*
X22446Y23480D01*
X22550Y23467D01*
X22588Y23472D01*
X22861Y23199D01*
X22828Y23161D01*
X22805Y23179D01*
X22752Y23219D01*
X22654Y23260D01*
X22550Y23273D01*
X22446Y23260D01*
X22348Y23219D01*
X22265Y23155D01*
X22201Y23072D01*
X22160Y22974D01*
X22147Y22870D01*
X22160Y22766D01*
X22201Y22668D01*
X22265Y22585D01*
X22348Y22521D01*
X22446Y22480D01*
X22550Y22467D01*
X22654Y22480D01*
X22752Y22521D01*
X22835Y22585D01*
X22899Y22668D01*
X22940Y22766D01*
X22953Y22870D01*
X22940Y22974D01*
X22899Y23072D01*
X22859Y23125D01*
X22841Y23148D01*
X22879Y23181D01*
X25635Y20424D01*
X25718Y20369D01*
X25815Y20350D01*
X35805D01*
X35902Y20369D01*
X35985Y20424D01*
X36316Y20756D01*
X36350Y20751D01*
X36453Y20765D01*
X36549Y20805D01*
X36632Y20868D01*
X36695Y20951D01*
X36735Y21047D01*
X36749Y21150D01*
X36735Y21253D01*
X36695Y21349D01*
X36692Y21353D01*
X36714Y21408D01*
X36729Y21410D01*
X36956Y21184D01*
X36951Y21150D01*
X36965Y21047D01*
X37005Y20951D01*
X37068Y20868D01*
X37151Y20805D01*
X37247Y20765D01*
X37350Y20751D01*
X37453Y20765D01*
X37549Y20805D01*
X37632Y20868D01*
X37695Y20951D01*
X37735Y21047D01*
X37749Y21150D01*
X37735Y21253D01*
X37695Y21349D01*
X37632Y21432D01*
X37549Y21495D01*
X37453Y21535D01*
X37350Y21549D01*
X37316Y21544D01*
X36985Y21876D01*
X36902Y21931D01*
X36805Y21950D01*
X33193D01*
X33096Y21931D01*
X33055Y21903D01*
X33023Y21942D01*
X33876Y22795D01*
X35378D01*
X35429Y22729D01*
X35523Y22657D01*
X35633Y22612D01*
X35750Y22596D01*
X35867Y22612D01*
X35977Y22657D01*
X36071Y22729D01*
X36143Y22823D01*
X36188Y22933D01*
X36204Y23050D01*
X36188Y23167D01*
X36143Y23277D01*
X36071Y23371D01*
X35977Y23443D01*
X35867Y23488D01*
X35750Y23504D01*
X35633Y23488D01*
X35523Y23443D01*
X35429Y23371D01*
X35378Y23305D01*
X33770D01*
X33672Y23286D01*
X33590Y23230D01*
X32879Y22519D01*
X32841Y22552D01*
X32859Y22575D01*
X32899Y22628D01*
X32940Y22726D01*
X32953Y22830D01*
X32948Y22868D01*
X37741Y27660D01*
X37796Y27743D01*
X37816Y27841D01*
Y31255D01*
X37908Y31348D01*
X37955Y31324D01*
X37946Y31250D01*
X37963Y31119D01*
X38013Y30998D01*
X38093Y30893D01*
X38198Y30813D01*
X38319Y30763D01*
X38450Y30746D01*
X38581Y30763D01*
X38702Y30813D01*
X38807Y30893D01*
X38887Y30998D01*
X38937Y31119D01*
X38954Y31250D01*
X38937Y31381D01*
X38887Y31502D01*
X38807Y31607D01*
X38702Y31687D01*
X38615Y31723D01*
Y31777D01*
X38702Y31813D01*
X38807Y31893D01*
X38887Y31998D01*
X38937Y32119D01*
X38954Y32250D01*
X38937Y32381D01*
X38887Y32502D01*
X38807Y32607D01*
X38702Y32687D01*
X38615Y32723D01*
Y32777D01*
X38702Y32813D01*
X38807Y32893D01*
X38887Y32998D01*
X38937Y33119D01*
X38954Y33250D01*
X38937Y33381D01*
X38887Y33502D01*
X38807Y33607D01*
X38702Y33687D01*
X38615Y33723D01*
Y33777D01*
X38702Y33813D01*
X38807Y33893D01*
X38887Y33998D01*
X38937Y34119D01*
X38954Y34250D01*
X38937Y34381D01*
X38887Y34502D01*
X38807Y34607D01*
X38702Y34687D01*
X38615Y34723D01*
Y34777D01*
X38702Y34813D01*
X38807Y34893D01*
X38887Y34998D01*
X38937Y35119D01*
X38954Y35250D01*
X38937Y35381D01*
X38887Y35502D01*
X38807Y35607D01*
X38702Y35687D01*
X38615Y35723D01*
Y35777D01*
X38702Y35813D01*
X38807Y35893D01*
X38887Y35998D01*
X38937Y36119D01*
X38954Y36250D01*
X38937Y36381D01*
X38887Y36502D01*
X38807Y36607D01*
X38702Y36687D01*
X38615Y36723D01*
Y36777D01*
X38702Y36813D01*
X38807Y36893D01*
X38887Y36998D01*
X38937Y37119D01*
X38954Y37250D01*
X38937Y37381D01*
X38887Y37502D01*
X38807Y37607D01*
X38702Y37687D01*
X38670Y37700D01*
X38680Y37750D01*
X38950D01*
Y38750D01*
D02*
G37*
G36*
X22550Y38273D02*
X22446Y38260D01*
X22348Y38219D01*
X22265Y38155D01*
X22201Y38072D01*
X22160Y37974D01*
X22147Y37870D01*
X22160Y37766D01*
X22201Y37668D01*
X22265Y37585D01*
X22348Y37521D01*
X22446Y37480D01*
X22550Y37467D01*
X22654Y37480D01*
X22752Y37521D01*
X22835Y37585D01*
X22899Y37668D01*
X22940Y37766D01*
X22953Y37870D01*
X22940Y37974D01*
X22899Y38072D01*
X22835Y38155D01*
X22752Y38219D01*
X22654Y38260D01*
X22550Y38273D01*
D02*
G37*
G36*
X32550Y38233D02*
X32446Y38220D01*
X32348Y38179D01*
X32265Y38115D01*
X32201Y38032D01*
X32160Y37934D01*
X32147Y37830D01*
X32160Y37726D01*
X32201Y37628D01*
X32265Y37545D01*
X32348Y37481D01*
X32446Y37440D01*
X32550Y37427D01*
X32654Y37440D01*
X32752Y37481D01*
X32835Y37545D01*
X32899Y37628D01*
X32940Y37726D01*
X32953Y37830D01*
X32940Y37934D01*
X32899Y38032D01*
X32835Y38115D01*
X32752Y38179D01*
X32654Y38220D01*
X32550Y38233D01*
D02*
G37*
G36*
X13345Y37304D02*
X13227Y37288D01*
X13118Y37243D01*
X13024Y37171D01*
X12952Y37077D01*
X12906Y36967D01*
X12891Y36850D01*
X12880Y36838D01*
X12197D01*
Y37001D01*
X11603D01*
Y36382D01*
X11603Y36368D01*
Y36332D01*
X11603Y36318D01*
Y36012D01*
X11601Y35993D01*
Y35593D01*
X11403Y35395D01*
X11005D01*
Y34605D01*
X11795D01*
Y35003D01*
X12074Y35282D01*
X12118Y35339D01*
X12146Y35406D01*
X12156Y35478D01*
Y35699D01*
X12197D01*
Y36318D01*
X12197Y36332D01*
Y36368D01*
X12197Y36382D01*
Y36532D01*
X13022D01*
X13024Y36529D01*
X13118Y36457D01*
X13227Y36412D01*
X13345Y36396D01*
X13462Y36412D01*
X13572Y36457D01*
X13666Y36529D01*
X13738Y36623D01*
X13783Y36733D01*
X13799Y36850D01*
X13783Y36967D01*
X13738Y37077D01*
X13666Y37171D01*
X13572Y37243D01*
X13462Y37288D01*
X13345Y37304D01*
D02*
G37*
G36*
X32550Y37233D02*
X32446Y37220D01*
X32348Y37179D01*
X32265Y37115D01*
X32201Y37032D01*
X32160Y36934D01*
X32147Y36830D01*
X32160Y36726D01*
X32201Y36628D01*
X32265Y36545D01*
X32348Y36481D01*
X32446Y36440D01*
X32550Y36427D01*
X32654Y36440D01*
X32752Y36481D01*
X32835Y36545D01*
X32899Y36628D01*
X32940Y36726D01*
X32953Y36830D01*
X32940Y36934D01*
X32899Y37032D01*
X32835Y37115D01*
X32752Y37179D01*
X32654Y37220D01*
X32550Y37233D01*
D02*
G37*
G36*
Y36233D02*
X32446Y36220D01*
X32348Y36179D01*
X32265Y36115D01*
X32201Y36032D01*
X32160Y35934D01*
X32147Y35830D01*
X32160Y35726D01*
X32201Y35628D01*
X32265Y35545D01*
X32348Y35481D01*
X32446Y35440D01*
X32550Y35427D01*
X32654Y35440D01*
X32752Y35481D01*
X32835Y35545D01*
X32899Y35628D01*
X32940Y35726D01*
X32953Y35830D01*
X32940Y35934D01*
X32899Y36032D01*
X32835Y36115D01*
X32752Y36179D01*
X32654Y36220D01*
X32550Y36233D01*
D02*
G37*
G36*
Y35233D02*
X32446Y35220D01*
X32348Y35179D01*
X32265Y35115D01*
X32201Y35032D01*
X32160Y34934D01*
X32147Y34830D01*
X32160Y34726D01*
X32201Y34628D01*
X32265Y34545D01*
X32348Y34481D01*
X32446Y34440D01*
X32550Y34427D01*
X32654Y34440D01*
X32752Y34481D01*
X32835Y34545D01*
X32899Y34628D01*
X32940Y34726D01*
X32953Y34830D01*
X32940Y34934D01*
X32899Y35032D01*
X32835Y35115D01*
X32752Y35179D01*
X32654Y35220D01*
X32550Y35233D01*
D02*
G37*
G36*
X13795Y36300D02*
X12895D01*
Y35400D01*
X13068D01*
Y35068D01*
X13077Y34996D01*
X13105Y34929D01*
X13149Y34872D01*
X13173Y34848D01*
Y34500D01*
X12950D01*
Y34277D01*
X11685D01*
X11682Y34282D01*
X11599Y34345D01*
X11503Y34385D01*
X11400Y34399D01*
X11297Y34385D01*
X11201Y34345D01*
X11118Y34282D01*
X11055Y34199D01*
X11015Y34103D01*
X11001Y34000D01*
X11015Y33897D01*
X11055Y33801D01*
X11118Y33718D01*
X11201Y33655D01*
X11297Y33615D01*
X11400Y33601D01*
X11503Y33615D01*
X11599Y33655D01*
X11682Y33718D01*
X11685Y33723D01*
X12950D01*
Y33500D01*
X13950D01*
Y34500D01*
X13727D01*
Y34963D01*
X13718Y35035D01*
X13690Y35102D01*
X13646Y35159D01*
X13622Y35183D01*
Y35400D01*
X13795D01*
Y36300D01*
D02*
G37*
G36*
Y32547D02*
X12895D01*
Y32203D01*
X12197D01*
Y32301D01*
X11603D01*
Y31682D01*
X11603Y31668D01*
Y31632D01*
X11603Y31618D01*
Y31391D01*
X11204Y30992D01*
X11160Y30934D01*
X11132Y30867D01*
X11123Y30796D01*
Y30095D01*
X11005D01*
Y29305D01*
X11795D01*
Y30095D01*
X11677D01*
Y30681D01*
X11995Y30999D01*
X12197D01*
Y31618D01*
X12197Y31632D01*
Y31668D01*
X12197Y31682D01*
Y31897D01*
X12895D01*
Y31647D01*
X13795D01*
Y32547D01*
D02*
G37*
G36*
X16850Y31650D02*
X15950D01*
Y30750D01*
X16850D01*
Y31650D01*
D02*
G37*
G36*
X32550Y30233D02*
X32446Y30220D01*
X32348Y30179D01*
X32265Y30115D01*
X32201Y30032D01*
X32160Y29934D01*
X32147Y29830D01*
X32160Y29726D01*
X32201Y29628D01*
X32265Y29545D01*
X32348Y29481D01*
X32446Y29440D01*
X32550Y29427D01*
X32654Y29440D01*
X32752Y29481D01*
X32835Y29545D01*
X32899Y29628D01*
X32940Y29726D01*
X32953Y29830D01*
X32940Y29934D01*
X32899Y30032D01*
X32835Y30115D01*
X32752Y30179D01*
X32654Y30220D01*
X32550Y30233D01*
D02*
G37*
G36*
X14400Y44629D02*
X14302Y44610D01*
X14220Y44555D01*
X14165Y44472D01*
X14145Y44374D01*
Y38750D01*
X14165Y38652D01*
X14170Y38644D01*
Y29406D01*
X14165Y29398D01*
X14145Y29300D01*
X14165Y29202D01*
X14220Y29120D01*
X14302Y29065D01*
X14400Y29045D01*
X14498Y29065D01*
X14580Y29120D01*
X14605Y29145D01*
X14661Y29227D01*
X14680Y29325D01*
Y38725D01*
X14661Y38823D01*
X14655Y38831D01*
Y44374D01*
X14635Y44472D01*
X14580Y44555D01*
X14498Y44610D01*
X14400Y44629D01*
D02*
G37*
G36*
X13345Y31551D02*
X13227Y31535D01*
X13118Y31490D01*
X13024Y31418D01*
X12952Y31324D01*
X12906Y31214D01*
X12891Y31097D01*
X12906Y30979D01*
X12952Y30870D01*
X13024Y30776D01*
X13118Y30704D01*
X13123Y30702D01*
Y29800D01*
X12900D01*
Y29192D01*
X12685Y28977D01*
X11685D01*
X11682Y28982D01*
X11599Y29045D01*
X11503Y29085D01*
X11400Y29099D01*
X11297Y29085D01*
X11201Y29045D01*
X11118Y28982D01*
X11055Y28899D01*
X11015Y28803D01*
X11001Y28700D01*
X11015Y28597D01*
X11055Y28501D01*
X11118Y28418D01*
X11201Y28355D01*
X11297Y28315D01*
X11400Y28301D01*
X11503Y28315D01*
X11599Y28355D01*
X11682Y28418D01*
X11685Y28423D01*
X12800D01*
X12872Y28432D01*
X12939Y28460D01*
X12996Y28504D01*
X13292Y28800D01*
X13900D01*
Y29800D01*
X13677D01*
Y30791D01*
X13738Y30870D01*
X13783Y30979D01*
X13799Y31097D01*
X13783Y31214D01*
X13738Y31324D01*
X13666Y31418D01*
X13572Y31490D01*
X13462Y31535D01*
X13345Y31551D01*
D02*
G37*
G36*
X22550Y27273D02*
X22446Y27260D01*
X22348Y27219D01*
X22265Y27155D01*
X22201Y27072D01*
X22160Y26974D01*
X22147Y26870D01*
X22160Y26766D01*
X22201Y26668D01*
X22265Y26585D01*
X22348Y26521D01*
X22446Y26480D01*
X22550Y26467D01*
X22654Y26480D01*
X22752Y26521D01*
X22835Y26585D01*
X22899Y26668D01*
X22940Y26766D01*
X22953Y26870D01*
X22940Y26974D01*
X22899Y27072D01*
X22835Y27155D01*
X22752Y27219D01*
X22654Y27260D01*
X22550Y27273D01*
D02*
G37*
G36*
Y26273D02*
X22446Y26260D01*
X22348Y26219D01*
X22265Y26155D01*
X22201Y26072D01*
X22160Y25974D01*
X22147Y25870D01*
X22160Y25766D01*
X22201Y25668D01*
X22265Y25585D01*
X22348Y25521D01*
X22446Y25480D01*
X22550Y25467D01*
X22654Y25480D01*
X22752Y25521D01*
X22835Y25585D01*
X22899Y25668D01*
X22940Y25766D01*
X22953Y25870D01*
X22940Y25974D01*
X22899Y26072D01*
X22835Y26155D01*
X22752Y26219D01*
X22654Y26260D01*
X22550Y26273D01*
D02*
G37*
G36*
X11968Y26477D02*
X11932D01*
X11918Y26477D01*
X11299D01*
Y25883D01*
X11360D01*
Y25371D01*
X11380Y25273D01*
X11435Y25191D01*
X11795Y24831D01*
Y24500D01*
X11600D01*
Y23600D01*
X12500D01*
Y24500D01*
X12305D01*
Y24936D01*
X12285Y25034D01*
X12230Y25117D01*
X11870Y25477D01*
Y25848D01*
X11906Y25883D01*
X11968Y25883D01*
X11982Y25883D01*
X12241D01*
X12550Y25574D01*
X12547Y25550D01*
X12559Y25459D01*
X12594Y25373D01*
X12650Y25300D01*
X12723Y25244D01*
X12809Y25209D01*
X12900Y25197D01*
X12991Y25209D01*
X13077Y25244D01*
X13150Y25300D01*
X13206Y25373D01*
X13241Y25459D01*
X13253Y25550D01*
X13241Y25641D01*
X13206Y25727D01*
X13150Y25800D01*
X13077Y25856D01*
X12991Y25891D01*
X12948Y25897D01*
X12601Y26244D01*
Y26477D01*
X11982D01*
X11968Y26477D01*
D02*
G37*
G36*
X15575Y25774D02*
X14825D01*
X14569Y25518D01*
Y25004D01*
X14825Y24748D01*
X15575D01*
X15832Y25004D01*
Y25518D01*
X15575Y25774D01*
D02*
G37*
G36*
X12050Y23504D02*
X11933Y23488D01*
X11823Y23443D01*
X11729Y23371D01*
X11657Y23277D01*
X11612Y23167D01*
X11596Y23050D01*
X11612Y22933D01*
X11657Y22823D01*
X11729Y22729D01*
X11823Y22657D01*
X11933Y22612D01*
X12050Y22596D01*
X12167Y22612D01*
X12277Y22657D01*
X12371Y22729D01*
X12443Y22823D01*
X12488Y22933D01*
X12504Y23050D01*
X12488Y23167D01*
X12443Y23277D01*
X12371Y23371D01*
X12277Y23443D01*
X12167Y23488D01*
X12050Y23504D01*
D02*
G37*
G36*
X22550Y22233D02*
X22446Y22220D01*
X22348Y22179D01*
X22265Y22115D01*
X22201Y22032D01*
X22160Y21934D01*
X22147Y21830D01*
X22160Y21726D01*
X22201Y21628D01*
X22265Y21545D01*
X22348Y21481D01*
X22446Y21440D01*
X22550Y21427D01*
X22654Y21440D01*
X22752Y21481D01*
X22835Y21545D01*
X22899Y21628D01*
X22940Y21726D01*
X22953Y21830D01*
X22940Y21934D01*
X22899Y22032D01*
X22835Y22115D01*
X22752Y22179D01*
X22654Y22220D01*
X22550Y22233D01*
D02*
G37*
G36*
X15575Y22152D02*
X14825D01*
X14569Y21896D01*
Y21382D01*
X14825Y21126D01*
X15575D01*
X15832Y21382D01*
Y21896D01*
X15575Y22152D01*
D02*
G37*
G36*
X36200Y24500D02*
X35300D01*
Y23600D01*
X36200D01*
Y23680D01*
X38237D01*
X38273Y23644D01*
X38273Y23582D01*
X38273Y23568D01*
Y22949D01*
X38315D01*
Y21545D01*
X37955D01*
Y20755D01*
X38745D01*
Y21185D01*
X38750Y21189D01*
X38805Y21272D01*
X38825Y21370D01*
Y22949D01*
X38867D01*
Y23568D01*
X38867Y23582D01*
Y23618D01*
X38867Y23632D01*
Y24251D01*
X38273D01*
Y24190D01*
X36200D01*
Y24500D01*
D02*
G37*
G36*
X12045Y21335D02*
X11255D01*
Y20544D01*
X12045D01*
Y21335D01*
D02*
G37*
G36*
X15575Y23963D02*
X14825D01*
X14569Y23707D01*
Y23258D01*
X12649Y21338D01*
X12547Y21324D01*
X12451Y21285D01*
X12368Y21221D01*
X12305Y21139D01*
X12265Y21043D01*
X12251Y20939D01*
X12265Y20836D01*
X12305Y20740D01*
X12368Y20657D01*
X12451Y20594D01*
X12547Y20554D01*
X12650Y20541D01*
X12753Y20554D01*
X12849Y20594D01*
X12932Y20657D01*
X12995Y20740D01*
X13035Y20836D01*
X13049Y20939D01*
X13040Y21008D01*
X14968Y22937D01*
X15575D01*
X15832Y23193D01*
Y23707D01*
X15575Y23963D01*
D02*
G37*
%LPD*%
G36*
X20945Y37115D02*
X22152Y35908D01*
X22147Y35870D01*
X22160Y35766D01*
X22201Y35668D01*
X22234Y35624D01*
X22224Y35595D01*
X22208Y35576D01*
X22204Y35577D01*
X20855Y36926D01*
Y37159D01*
X20905Y37174D01*
X20945Y37115D01*
D02*
G37*
G36*
X22152Y33908D02*
X22147Y33870D01*
X22160Y33766D01*
X22201Y33668D01*
X22234Y33624D01*
X22224Y33595D01*
X22208Y33576D01*
X22204Y33577D01*
X20577Y35203D01*
Y35417D01*
X20623Y35436D01*
X22152Y33908D01*
D02*
G37*
G36*
X34816Y36324D02*
X34806Y36250D01*
X34823Y36123D01*
X33763Y35063D01*
X33717Y35082D01*
Y35296D01*
X34769Y36348D01*
X34816Y36324D01*
D02*
G37*
G36*
X37955Y35324D02*
X37946Y35250D01*
X37962Y35123D01*
X36662Y33822D01*
X36616Y33841D01*
Y34055D01*
X37908Y35348D01*
X37955Y35324D01*
D02*
G37*
G36*
X34816Y34324D02*
X34806Y34250D01*
X34824Y34119D01*
X34874Y33998D01*
X34954Y33893D01*
X35058Y33813D01*
X35146Y33777D01*
Y33723D01*
X35058Y33687D01*
X34954Y33607D01*
X34874Y33502D01*
X34824Y33381D01*
X34806Y33250D01*
X34824Y33119D01*
X34836Y33089D01*
X34563Y32817D01*
X34517Y32836D01*
Y34096D01*
X34769Y34348D01*
X34816Y34324D01*
D02*
G37*
G36*
X37955D02*
X37946Y34250D01*
X37963Y34119D01*
X38013Y33998D01*
X38093Y33893D01*
X38198Y33813D01*
X38285Y33777D01*
Y33723D01*
X38198Y33687D01*
X38093Y33607D01*
X38013Y33502D01*
X37963Y33381D01*
X37946Y33250D01*
X37962Y33123D01*
X37062Y32222D01*
X37016Y32241D01*
Y33455D01*
X37908Y34348D01*
X37955Y34324D01*
D02*
G37*
G36*
X38093Y36893D02*
X38198Y36813D01*
X38285Y36777D01*
Y36723D01*
X38198Y36687D01*
X38093Y36607D01*
X38013Y36502D01*
X37963Y36381D01*
X37946Y36250D01*
X37962Y36123D01*
X36180Y34341D01*
X36125Y34258D01*
X36106Y34161D01*
Y31881D01*
X36060Y31862D01*
X35798Y32123D01*
X35815Y32250D01*
X35798Y32381D01*
X35747Y32502D01*
X35667Y32607D01*
X35563Y32687D01*
X35475Y32723D01*
Y32777D01*
X35563Y32813D01*
X35667Y32893D01*
X35747Y32998D01*
X35798Y33119D01*
X35815Y33250D01*
X35798Y33381D01*
X35747Y33502D01*
X35667Y33607D01*
X35563Y33687D01*
X35475Y33723D01*
Y33777D01*
X35563Y33813D01*
X35667Y33893D01*
X35747Y33998D01*
X35798Y34119D01*
X35815Y34250D01*
X35798Y34381D01*
X35747Y34502D01*
X35667Y34607D01*
X35563Y34687D01*
X35475Y34723D01*
Y34777D01*
X35563Y34813D01*
X35667Y34893D01*
X35747Y34998D01*
X35798Y35119D01*
X35815Y35250D01*
X35798Y35381D01*
X35747Y35502D01*
X35667Y35607D01*
X35563Y35687D01*
X35475Y35723D01*
Y35777D01*
X35563Y35813D01*
X35667Y35893D01*
X35747Y35998D01*
X35798Y36119D01*
X35815Y36250D01*
X35798Y36381D01*
X35747Y36502D01*
X35667Y36607D01*
X35563Y36687D01*
X35475Y36723D01*
Y36777D01*
X35563Y36813D01*
X35667Y36893D01*
X35745Y36995D01*
X38015D01*
X38093Y36893D01*
D02*
G37*
G36*
X35058Y30813D02*
X35180Y30763D01*
X35311Y30746D01*
X35441Y30763D01*
X35563Y30813D01*
X35656Y30885D01*
X35706Y30868D01*
Y30346D01*
X32896Y27537D01*
X32892Y27536D01*
X32876Y27555D01*
X32866Y27584D01*
X32899Y27628D01*
X32940Y27726D01*
X32953Y27830D01*
X32948Y27868D01*
X34830Y29750D01*
X34885Y29832D01*
X34905Y29930D01*
Y30707D01*
X34916Y30761D01*
Y30868D01*
X34966Y30885D01*
X35058Y30813D01*
D02*
G37*
G36*
X36106Y29960D02*
Y29746D01*
X32896Y26537D01*
X32892Y26536D01*
X32876Y26555D01*
X32866Y26584D01*
X32899Y26628D01*
X32940Y26726D01*
X32953Y26830D01*
X32948Y26868D01*
X36060Y29979D01*
X36106Y29960D01*
D02*
G37*
G36*
X36506Y29360D02*
Y29146D01*
X32896Y25537D01*
X32892Y25536D01*
X32876Y25555D01*
X32866Y25584D01*
X32899Y25628D01*
X32940Y25726D01*
X32953Y25830D01*
X32948Y25868D01*
X36460Y29379D01*
X36506Y29360D01*
D02*
G37*
G36*
X36906Y28760D02*
Y28546D01*
X32896Y24537D01*
X32892Y24536D01*
X32876Y24555D01*
X32866Y24584D01*
X32899Y24628D01*
X32940Y24726D01*
X32953Y24830D01*
X32948Y24868D01*
X36860Y28779D01*
X36906Y28760D01*
D02*
G37*
G36*
X37306Y28160D02*
Y27946D01*
X32896Y23537D01*
X32892Y23536D01*
X32876Y23555D01*
X32866Y23584D01*
X32899Y23628D01*
X32940Y23726D01*
X32953Y23830D01*
X32948Y23868D01*
X37260Y28179D01*
X37306Y28160D01*
D02*
G37*
G36*
X22896Y24163D02*
X25960Y21100D01*
X26042Y21044D01*
X26140Y21025D01*
X32778D01*
X32875Y21044D01*
X32958Y21100D01*
X33299Y21440D01*
X35012D01*
X35036Y21390D01*
X35005Y21349D01*
X34965Y21253D01*
X34951Y21150D01*
X34965Y21047D01*
X35005Y20951D01*
X35036Y20910D01*
X35012Y20860D01*
X25921D01*
X22948Y23832D01*
X22953Y23870D01*
X22940Y23974D01*
X22899Y24072D01*
X22866Y24116D01*
X22876Y24145D01*
X22892Y24164D01*
X22896Y24163D01*
D02*
G37*
D10*
X16400Y42050D02*
X18385D01*
X18400Y42035D01*
X18335Y32050D02*
X18400Y31985D01*
X16400Y32050D02*
X18335D01*
X11900Y31985D02*
X11965Y32050D01*
X13345D01*
X18285Y36800D02*
X18400Y36685D01*
X16400Y36800D02*
X18285D01*
X11850Y41935D02*
X11965Y42050D01*
X13400D01*
X16865Y47035D02*
X18400D01*
X16400Y47500D02*
X16865Y47035D01*
X11650Y47435D02*
X11665Y47450D01*
X13400D01*
X11900Y36685D02*
X13068D01*
X13233Y36850D01*
X13345D01*
X11853Y41830D02*
X12000Y41683D01*
Y41702D01*
X10050Y49850D02*
X40050D01*
X10050Y19800D02*
Y49850D01*
X10050Y19800D02*
X40050D01*
X40050Y49850D02*
X40050Y19850D01*
D14*
X38570Y23265D02*
D03*
Y23935D02*
D03*
X18400Y31985D02*
D03*
Y31315D02*
D03*
X11900Y31985D02*
D03*
Y31315D02*
D03*
X18400Y36685D02*
D03*
Y36015D02*
D03*
X11900Y36685D02*
D03*
Y36015D02*
D03*
X18400Y42035D02*
D03*
Y41365D02*
D03*
Y47035D02*
D03*
Y46365D02*
D03*
X11850Y41935D02*
D03*
Y41265D02*
D03*
X11650Y47435D02*
D03*
Y46765D02*
D03*
D15*
X12285Y26180D02*
D03*
X11615D02*
D03*
D33*
X12304D02*
X12900Y25585D01*
Y25550D02*
Y25585D01*
X12285Y26180D02*
X12304D01*
X14400Y29300D02*
X14425Y29325D01*
Y38725D01*
X14400Y38750D02*
X14425Y38725D01*
X14400Y38750D02*
Y44374D01*
X20600Y36820D02*
Y42350D01*
X21125Y37295D02*
X22550Y35870D01*
X20600Y36820D02*
X22550Y34870D01*
X20150Y43550D02*
X21125Y42575D01*
Y37295D02*
Y42575D01*
X19800Y43150D02*
X20600Y42350D01*
X22550Y39870D02*
Y44859D01*
X25200Y47510D01*
X25246D02*
X25450Y47714D01*
X25200Y47510D02*
X25246D01*
X38570Y21370D02*
Y23265D01*
X38350Y21150D02*
X38570Y21370D01*
X21330Y28650D02*
X22550Y29870D01*
X16400Y29300D02*
X17050Y28650D01*
X21330D01*
X15400Y29300D02*
X16450Y28250D01*
X21930D02*
X22550Y28870D01*
X16450Y28250D02*
X21930D01*
X21950Y31470D02*
X22550Y30870D01*
X21380Y31470D02*
X21950D01*
X20000Y32850D02*
X21380Y31470D01*
X15450Y34000D02*
X16600Y32850D01*
X20000D01*
X21680Y31870D02*
X22550D01*
X20200Y33350D02*
X21680Y31870D01*
X17100Y33350D02*
X20200D01*
X16450Y34000D02*
X17100Y33350D01*
X16450Y37700D02*
X18152D01*
X20322Y35529D01*
Y35098D02*
X22550Y32870D01*
X17050Y38100D02*
X18320D01*
X20322Y35098D02*
Y35529D01*
X15400Y38750D02*
X16450Y37700D01*
X16400Y38750D02*
X17050Y38100D01*
X18320D02*
X22550Y33870D01*
X22550Y35870D02*
X22550D01*
X15400Y44374D02*
X16624Y43150D01*
X19800D01*
X16400Y44374D02*
X17224Y43550D01*
X20150D01*
X22550Y24870D02*
X26140Y21280D01*
X33193Y21695D02*
X36805D01*
X26140Y21280D02*
X32778D01*
X36805Y21695D02*
X37350Y21150D01*
X32778Y21280D02*
X33193Y21695D01*
X35805Y20605D02*
X36350Y21150D01*
X25815Y20605D02*
X35805D01*
X22550Y23870D02*
X25815Y20605D01*
X33770Y23050D02*
X35750D01*
X32550Y21830D02*
X33770Y23050D01*
X35923Y23935D02*
X38570D01*
X35807Y24050D02*
X35923Y23935D01*
X35750Y24050D02*
X35807D01*
X37561Y31361D02*
X38450Y32250D01*
X37561Y27841D02*
Y31361D01*
X32550Y22830D02*
X37561Y27841D01*
X32550Y23830D02*
X37161Y28441D01*
Y31961D01*
X32550Y24830D02*
X36761Y29041D01*
Y33561D01*
X37161Y31961D02*
X38450Y33250D01*
X32550Y25830D02*
X36361Y29641D01*
Y34161D01*
X36761Y33561D02*
X38450Y35250D01*
X34650Y29930D02*
Y30750D01*
X35961Y30241D02*
Y31600D01*
X35311Y32250D02*
X35961Y31600D01*
X34661Y30761D02*
Y32554D01*
X34650Y30750D02*
X34661Y30761D01*
X32550Y26830D02*
X35961Y30241D01*
X32550Y27830D02*
X34650Y29930D01*
X36361Y34161D02*
X38450Y36250D01*
X34661Y32554D02*
X35311Y33204D01*
Y33250D01*
X32550Y30911D02*
X34262Y32623D01*
Y34201D01*
X32550Y30830D02*
Y30911D01*
Y32830D02*
X33462Y33742D01*
Y35401D01*
X35311Y37250D01*
X34262Y34201D02*
X35311Y35250D01*
X33862Y33142D02*
Y34801D01*
X35311Y36250D01*
X32550Y31830D02*
X33862Y33142D01*
X35311Y37250D02*
X38450D01*
X12050Y24050D02*
Y24936D01*
X11615Y25371D02*
X12050Y24936D01*
X11615Y25371D02*
Y26180D01*
X12650Y20939D02*
Y20979D01*
X15121Y23450D01*
X15200D01*
D34*
X16800Y30200D02*
X17500D01*
X18400Y29300D01*
X17450Y35000D02*
X18450Y34000D01*
X16650Y35000D02*
X17450D01*
X16800Y39800D02*
X17350D01*
X18400Y38750D01*
Y41324D02*
X18422D01*
X18400Y40600D02*
Y41324D01*
X13400Y38750D02*
Y41050D01*
X18400Y29300D02*
Y31315D01*
X11400Y28700D02*
X12800D01*
X13400Y29300D01*
X13400D01*
Y30951D01*
X13345Y31006D02*
X13400Y30951D01*
X13345Y31006D02*
Y31050D01*
X11400Y29700D02*
Y30796D01*
X11900Y31296D01*
Y31315D01*
X18450Y34000D02*
Y35946D01*
X18400Y35996D02*
X18450Y35946D01*
X18400Y35996D02*
Y36015D01*
X13345Y35850D02*
X13370Y35825D01*
X16375D02*
X16400Y35800D01*
X11400Y38842D02*
X11446Y38796D01*
X13354D01*
X13400Y38750D01*
X11400Y39842D02*
Y40796D01*
X11850Y41246D01*
Y41265D01*
X18400Y44374D02*
Y46365D01*
X19250Y46800D02*
Y48000D01*
X11350Y48800D02*
X18450D01*
X19250Y48000D01*
X18857Y46407D02*
X19250Y46800D01*
X11400Y45467D02*
Y46669D01*
X18400Y46365D02*
Y46385D01*
X18422Y46407D01*
X18857D01*
X10850Y48300D02*
X11350Y48800D01*
X10850Y47218D02*
X11400Y46669D01*
X10850Y47218D02*
Y48300D01*
X13400Y44374D02*
Y46450D01*
X11558Y44374D02*
X13400D01*
X11465Y44467D02*
X11558Y44374D01*
X11400Y44467D02*
X11465D01*
X13400Y46450D02*
X13425Y46475D01*
X16375D01*
X16400Y46500D01*
X11400Y34000D02*
X13450D01*
Y34963D01*
X13345Y35068D02*
X13450Y34963D01*
X11400Y35000D02*
X11878Y35478D01*
X13345Y35068D02*
Y35850D01*
X11878Y35478D02*
Y35993D01*
X11900Y36015D01*
D35*
X16400Y32200D02*
D03*
X35750Y23050D02*
D03*
X13400Y46450D02*
D03*
X16400Y47500D02*
D03*
X13400Y41050D02*
D03*
X16400Y42050D02*
D03*
Y35800D02*
D03*
X13345Y31097D02*
D03*
Y36850D02*
D03*
X12050Y23050D02*
D03*
D36*
X16400Y31200D02*
D03*
X35750Y24050D02*
D03*
X13400Y47450D02*
D03*
X16400Y46500D02*
D03*
X13400Y42050D02*
D03*
X16400Y41050D02*
D03*
Y36800D02*
D03*
X13345Y32097D02*
D03*
Y35850D02*
D03*
X12050Y24050D02*
D03*
D37*
X38350Y21150D02*
D03*
X11650Y20939D02*
D03*
D38*
X37350Y21150D02*
D03*
X36350D02*
D03*
X35350D02*
D03*
X12650Y20939D02*
D03*
X34550Y48100D02*
D03*
X35550D02*
D03*
X34550Y47100D02*
D03*
X35550D02*
D03*
X34550Y46100D02*
D03*
X35550D02*
D03*
X34550Y45100D02*
D03*
X35550D02*
D03*
X34550Y44100D02*
D03*
X11400Y28700D02*
D03*
Y34000D02*
D03*
Y38842D02*
D03*
Y44467D02*
D03*
X31561Y48100D02*
D03*
X32561D02*
D03*
X31561Y47100D02*
D03*
X32561D02*
D03*
X31561Y46100D02*
D03*
X32561D02*
D03*
X31561Y45100D02*
D03*
X32561D02*
D03*
X31561Y44100D02*
D03*
D39*
X35311Y38250D02*
D03*
X38450D02*
D03*
D40*
X35311Y31250D02*
D03*
Y32250D02*
D03*
Y33250D02*
D03*
Y34250D02*
D03*
Y35250D02*
D03*
Y36250D02*
D03*
Y37250D02*
D03*
X38450D02*
D03*
Y36250D02*
D03*
Y35250D02*
D03*
Y34250D02*
D03*
Y33250D02*
D03*
Y32250D02*
D03*
Y31250D02*
D03*
X14400Y44374D02*
D03*
X16400D02*
D03*
X17400D02*
D03*
X15400D02*
D03*
X18400D02*
D03*
Y29300D02*
D03*
X15400D02*
D03*
X17400D02*
D03*
X16400D02*
D03*
X14400D02*
D03*
Y38750D02*
D03*
X16400D02*
D03*
X17400D02*
D03*
X15400D02*
D03*
X18400D02*
D03*
X18450Y34000D02*
D03*
X15450D02*
D03*
X17450D02*
D03*
X16450D02*
D03*
X14450D02*
D03*
D41*
X13400Y44374D02*
D03*
Y29300D02*
D03*
Y38750D02*
D03*
X13450Y34000D02*
D03*
D42*
X37300Y47025D02*
D03*
Y42800D02*
D03*
D43*
X38678Y47025D02*
D03*
Y42800D02*
D03*
X25450Y46336D02*
D03*
X29000D02*
D03*
D44*
X35550Y44100D02*
D03*
X11400Y29700D02*
D03*
Y35000D02*
D03*
Y39842D02*
D03*
Y45467D02*
D03*
X32561Y44100D02*
D03*
D45*
X25450Y47714D02*
D03*
X29000D02*
D03*
D46*
X15200Y21639D02*
D03*
Y23450D02*
D03*
Y25261D02*
D03*
D47*
X32550Y39870D02*
D03*
Y38830D02*
D03*
Y37830D02*
D03*
Y36830D02*
D03*
Y35830D02*
D03*
Y34830D02*
D03*
Y33830D02*
D03*
Y32830D02*
D03*
Y31830D02*
D03*
Y30830D02*
D03*
Y29830D02*
D03*
Y28830D02*
D03*
Y27830D02*
D03*
Y26830D02*
D03*
Y25830D02*
D03*
Y24830D02*
D03*
Y23830D02*
D03*
Y22830D02*
D03*
Y21830D02*
D03*
X22550D02*
D03*
Y22870D02*
D03*
Y23870D02*
D03*
Y24870D02*
D03*
Y25870D02*
D03*
Y26870D02*
D03*
Y27870D02*
D03*
Y28870D02*
D03*
Y29870D02*
D03*
Y30870D02*
D03*
Y31870D02*
D03*
Y32870D02*
D03*
Y33870D02*
D03*
Y34870D02*
D03*
Y35870D02*
D03*
Y36870D02*
D03*
Y37870D02*
D03*
Y38870D02*
D03*
D48*
Y39870D02*
D03*
D49*
X12900Y25550D02*
D03*
X16800Y30200D02*
D03*
X16650Y35000D02*
D03*
X16800Y39800D02*
D03*
X18400Y40600D02*
D03*
M02*
