G04*
G04 #@! TF.GenerationSoftware,Altium Limited,Altium Designer,20.2.6 (244)*
G04*
G04 Layer_Color=128*
%FSLAX24Y24*%
%MOIN*%
G70*
G04*
G04 #@! TF.SameCoordinates,77C3D9E4-3DCC-4DBA-A965-D733CA2DE3AA*
G04*
G04*
G04 #@! TF.FilePolarity,Positive*
G04*
G01*
G75*
%ADD10C,0.0100*%
%ADD50C,0.0020*%
D10*
X10050Y49850D02*
X40050D01*
X10050Y19800D02*
Y49850D01*
X10050Y19800D02*
X40050D01*
X40050Y49850D02*
X40050Y19850D01*
D50*
X16225Y32200D02*
X16575D01*
X16400Y32025D02*
Y32375D01*
X16225Y31200D02*
X16575D01*
X16400Y31025D02*
Y31375D01*
X38173Y21150D02*
X38527D01*
X38350Y20973D02*
Y21327D01*
X37173Y21150D02*
X37527D01*
X37350Y20973D02*
Y21327D01*
X36173Y21150D02*
X36527D01*
X36350Y20973D02*
Y21327D01*
X35173Y21150D02*
X35527D01*
X35350Y20973D02*
Y21327D01*
X35575Y23050D02*
X35925D01*
X35750Y22875D02*
Y23225D01*
X35575Y24050D02*
X35925D01*
X35750Y23875D02*
Y24225D01*
X13225Y47450D02*
X13575D01*
X13400Y47275D02*
Y47625D01*
X13225Y46450D02*
X13575D01*
X13400Y46275D02*
Y46625D01*
X16225Y47500D02*
X16575D01*
X16400Y47325D02*
Y47675D01*
X16225Y46500D02*
X16575D01*
X16400Y46325D02*
Y46675D01*
X13225Y42050D02*
X13575D01*
X13400Y41875D02*
Y42225D01*
X13225Y41050D02*
X13575D01*
X13400Y40875D02*
Y41225D01*
X16225Y42050D02*
X16575D01*
X16400Y41875D02*
Y42225D01*
X16225Y41050D02*
X16575D01*
X16400Y40875D02*
Y41225D01*
X16225Y36800D02*
X16575D01*
X16400Y36625D02*
Y36975D01*
X16225Y35800D02*
X16575D01*
X16400Y35625D02*
Y35975D01*
X13170Y31097D02*
X13520D01*
X13345Y30922D02*
Y31272D01*
X13170Y32097D02*
X13520D01*
X13345Y31922D02*
Y32272D01*
X13170Y35850D02*
X13520D01*
X13345Y35675D02*
Y36025D01*
X13170Y36850D02*
X13520D01*
X13345Y36675D02*
Y37025D01*
X11875Y24050D02*
X12225D01*
X12050Y23875D02*
Y24225D01*
X11875Y23050D02*
X12225D01*
X12050Y22875D02*
Y23225D01*
X11473Y20939D02*
X11827D01*
X11650Y20762D02*
Y21117D01*
X12473Y20939D02*
X12827D01*
X12650Y20762D02*
Y21117D01*
X35136Y38250D02*
X35486D01*
X35311Y38075D02*
Y38425D01*
X35136Y31250D02*
X35486D01*
X35311Y31075D02*
Y31425D01*
X35136Y32250D02*
X35486D01*
X35311Y32075D02*
Y32425D01*
X35136Y33250D02*
X35486D01*
X35311Y33075D02*
Y33425D01*
X35136Y34250D02*
X35486D01*
X35311Y34075D02*
Y34425D01*
X35136Y35250D02*
X35486D01*
X35311Y35075D02*
Y35425D01*
X35136Y36250D02*
X35486D01*
X35311Y36075D02*
Y36425D01*
X35136Y37250D02*
X35486D01*
X35311Y37075D02*
Y37425D01*
X38275Y37250D02*
X38625D01*
X38450Y37075D02*
Y37425D01*
X38275Y36250D02*
X38625D01*
X38450Y36075D02*
Y36425D01*
X38275Y35250D02*
X38625D01*
X38450Y35075D02*
Y35425D01*
X38275Y34250D02*
X38625D01*
X38450Y34075D02*
Y34425D01*
X38275Y33250D02*
X38625D01*
X38450Y33075D02*
Y33425D01*
X38275Y32250D02*
X38625D01*
X38450Y32075D02*
Y32425D01*
X38275Y31250D02*
X38625D01*
X38450Y31075D02*
Y31425D01*
X38275Y38250D02*
X38625D01*
X38450Y38075D02*
Y38425D01*
X14225Y44374D02*
X14575D01*
X14400Y44199D02*
Y44549D01*
X13225Y44374D02*
X13575D01*
X13400Y44199D02*
Y44549D01*
X16225Y44374D02*
X16575D01*
X16400Y44199D02*
Y44549D01*
X17225Y44374D02*
X17575D01*
X17400Y44199D02*
Y44549D01*
X15225Y44374D02*
X15575D01*
X15400Y44199D02*
Y44549D01*
X18225Y44374D02*
X18575D01*
X18400Y44199D02*
Y44549D01*
X18225Y29300D02*
X18575D01*
X18400Y29125D02*
Y29475D01*
X15225Y29300D02*
X15575D01*
X15400Y29125D02*
Y29475D01*
X17225Y29300D02*
X17575D01*
X17400Y29125D02*
Y29475D01*
X16225Y29300D02*
X16575D01*
X16400Y29125D02*
Y29475D01*
X13225Y29300D02*
X13575D01*
X13400Y29125D02*
Y29475D01*
X14225Y29300D02*
X14575D01*
X14400Y29125D02*
Y29475D01*
X14225Y38750D02*
X14575D01*
X14400Y38575D02*
Y38925D01*
X13225Y38750D02*
X13575D01*
X13400Y38575D02*
Y38925D01*
X16225Y38750D02*
X16575D01*
X16400Y38575D02*
Y38925D01*
X17225Y38750D02*
X17575D01*
X17400Y38575D02*
Y38925D01*
X15225Y38750D02*
X15575D01*
X15400Y38575D02*
Y38925D01*
X18225Y38750D02*
X18575D01*
X18400Y38575D02*
Y38925D01*
X18275Y34000D02*
X18625D01*
X18450Y33825D02*
Y34175D01*
X15275Y34000D02*
X15625D01*
X15450Y33825D02*
Y34175D01*
X17275Y34000D02*
X17625D01*
X17450Y33825D02*
Y34175D01*
X16275Y34000D02*
X16625D01*
X16450Y33825D02*
Y34175D01*
X13275Y34000D02*
X13625D01*
X13450Y33825D02*
Y34175D01*
X14275Y34000D02*
X14625D01*
X14450Y33825D02*
Y34175D01*
X37103Y47025D02*
X37497D01*
X37300Y46828D02*
Y47222D01*
X38481Y47025D02*
X38875D01*
X38678Y46828D02*
Y47222D01*
X34373Y48100D02*
X34727D01*
X34550Y47923D02*
Y48277D01*
X35373Y48100D02*
X35727D01*
X35550Y47923D02*
Y48277D01*
X34373Y47100D02*
X34727D01*
X34550Y46923D02*
Y47277D01*
X35373Y47100D02*
X35727D01*
X35550Y46923D02*
Y47277D01*
X34373Y46100D02*
X34727D01*
X34550Y45923D02*
Y46277D01*
X35373Y46100D02*
X35727D01*
X35550Y45923D02*
Y46277D01*
X34373Y45100D02*
X34727D01*
X34550Y44923D02*
Y45277D01*
X35373Y45100D02*
X35727D01*
X35550Y44923D02*
Y45277D01*
X34373Y44100D02*
X34727D01*
X34550Y43923D02*
Y44277D01*
X35373Y44100D02*
X35727D01*
X35550Y43923D02*
Y44277D01*
X37103Y42800D02*
X37497D01*
X37300Y42603D02*
Y42997D01*
X38481Y42800D02*
X38875D01*
X38678Y42603D02*
Y42997D01*
X11223Y29700D02*
X11577D01*
X11400Y29523D02*
Y29877D01*
X11223Y28700D02*
X11577D01*
X11400Y28523D02*
Y28877D01*
X11223Y35000D02*
X11577D01*
X11400Y34823D02*
Y35177D01*
X11223Y34000D02*
X11577D01*
X11400Y33823D02*
Y34177D01*
X11223Y39842D02*
X11577D01*
X11400Y39665D02*
Y40020D01*
X11223Y38842D02*
X11577D01*
X11400Y38665D02*
Y39020D01*
X11223Y45467D02*
X11577D01*
X11400Y45290D02*
Y45644D01*
X11223Y44467D02*
X11577D01*
X11400Y44290D02*
Y44644D01*
X25253Y47714D02*
X25647D01*
X25450Y47517D02*
Y47911D01*
X25253Y46336D02*
X25647D01*
X25450Y46139D02*
Y46533D01*
X28803Y47714D02*
X29197D01*
X29000Y47517D02*
Y47911D01*
X28803Y46336D02*
X29197D01*
X29000Y46139D02*
Y46533D01*
X14964Y21639D02*
X15436D01*
X15200Y21403D02*
Y21875D01*
X14964Y23450D02*
X15436D01*
X15200Y23214D02*
Y23686D01*
X14964Y25261D02*
X15436D01*
X15200Y25025D02*
Y25497D01*
X31383Y48100D02*
X31738D01*
X31561Y47923D02*
Y48277D01*
X32383Y48100D02*
X32738D01*
X32561Y47923D02*
Y48277D01*
X31383Y47100D02*
X31738D01*
X31561Y46923D02*
Y47277D01*
X32383Y47100D02*
X32738D01*
X32561Y46923D02*
Y47277D01*
X31383Y46100D02*
X31738D01*
X31561Y45923D02*
Y46277D01*
X32383Y46100D02*
X32738D01*
X32561Y45923D02*
Y46277D01*
X31383Y45100D02*
X31738D01*
X31561Y44923D02*
Y45277D01*
X32383Y45100D02*
X32738D01*
X32561Y44923D02*
Y45277D01*
X31383Y44100D02*
X31738D01*
X31561Y43923D02*
Y44277D01*
X32383Y44100D02*
X32738D01*
X32561Y43923D02*
Y44277D01*
X32375Y39870D02*
X32725D01*
X32550Y39695D02*
Y40045D01*
X32375Y38830D02*
X32725D01*
X32550Y38655D02*
Y39005D01*
X32375Y37830D02*
X32725D01*
X32550Y37655D02*
Y38005D01*
X32375Y36830D02*
X32725D01*
X32550Y36655D02*
Y37005D01*
X32375Y35830D02*
X32725D01*
X32550Y35655D02*
Y36005D01*
X32375Y34830D02*
X32725D01*
X32550Y34655D02*
Y35005D01*
X32375Y33830D02*
X32725D01*
X32550Y33655D02*
Y34005D01*
X32375Y32830D02*
X32725D01*
X32550Y32655D02*
Y33005D01*
X32375Y31830D02*
X32725D01*
X32550Y31655D02*
Y32005D01*
X32375Y30830D02*
X32725D01*
X32550Y30655D02*
Y31005D01*
X32375Y29830D02*
X32725D01*
X32550Y29655D02*
Y30005D01*
X32375Y28830D02*
X32725D01*
X32550Y28655D02*
Y29005D01*
X32375Y27830D02*
X32725D01*
X32550Y27655D02*
Y28005D01*
X32375Y26830D02*
X32725D01*
X32550Y26655D02*
Y27005D01*
X32375Y25830D02*
X32725D01*
X32550Y25655D02*
Y26005D01*
X32375Y24830D02*
X32725D01*
X32550Y24655D02*
Y25005D01*
X32375Y23830D02*
X32725D01*
X32550Y23655D02*
Y24005D01*
X32375Y22830D02*
X32725D01*
X32550Y22655D02*
Y23005D01*
X32375Y21830D02*
X32725D01*
X32550Y21655D02*
Y22005D01*
X22375Y21830D02*
X22725D01*
X22550Y21655D02*
Y22005D01*
X22375Y22870D02*
X22725D01*
X22550Y22695D02*
Y23045D01*
X22375Y23870D02*
X22725D01*
X22550Y23695D02*
Y24045D01*
X22375Y24870D02*
X22725D01*
X22550Y24695D02*
Y25045D01*
X22375Y25870D02*
X22725D01*
X22550Y25695D02*
Y26045D01*
X22375Y26870D02*
X22725D01*
X22550Y26695D02*
Y27045D01*
X22375Y27870D02*
X22725D01*
X22550Y27695D02*
Y28045D01*
X22375Y28870D02*
X22725D01*
X22550Y28695D02*
Y29045D01*
X22375Y29870D02*
X22725D01*
X22550Y29695D02*
Y30045D01*
X22375Y30870D02*
X22725D01*
X22550Y30695D02*
Y31045D01*
X22375Y31870D02*
X22725D01*
X22550Y31695D02*
Y32045D01*
X22375Y32870D02*
X22725D01*
X22550Y32695D02*
Y33045D01*
X22375Y33870D02*
X22725D01*
X22550Y33695D02*
Y34045D01*
X22375Y34870D02*
X22725D01*
X22550Y34695D02*
Y35045D01*
X22375Y35870D02*
X22725D01*
X22550Y35695D02*
Y36045D01*
X22375Y36870D02*
X22725D01*
X22550Y36695D02*
Y37045D01*
X22375Y37870D02*
X22725D01*
X22550Y37695D02*
Y38045D01*
X22375Y38870D02*
X22725D01*
X22550Y38695D02*
Y39045D01*
X22375Y39870D02*
X22725D01*
X22550Y39695D02*
Y40045D01*
X12760Y25550D02*
X13040D01*
X12900Y25410D02*
Y25690D01*
X16660Y30200D02*
X16940D01*
X16800Y30060D02*
Y30340D01*
X16510Y35000D02*
X16790D01*
X16650Y34860D02*
Y35140D01*
X16660Y39800D02*
X16940D01*
X16800Y39660D02*
Y39940D01*
X18260Y40600D02*
X18540D01*
X18400Y40460D02*
Y40740D01*
M02*
