G04*
G04 #@! TF.GenerationSoftware,Altium Limited,Altium Designer,20.2.6 (244)*
G04*
G04 Layer_Color=8388736*
%FSLAX24Y24*%
%MOIN*%
G70*
G04*
G04 #@! TF.SameCoordinates,77C3D9E4-3DCC-4DBA-A965-D733CA2DE3AA*
G04*
G04*
G04 #@! TF.FilePolarity,Negative*
G04*
G01*
G75*
%ADD10C,0.0100*%
%ADD16R,0.0474X0.0513*%
%ADD17R,0.0513X0.0474*%
%ADD18C,0.0780*%
%ADD19R,0.0780X0.0780*%
%ADD20R,0.0671X0.0671*%
%ADD21C,0.0671*%
%ADD22R,0.0880X0.0880*%
%ADD23C,0.0880*%
%ADD24R,0.0880X0.0880*%
%ADD25R,0.0789X0.0789*%
%ADD26C,0.0789*%
%ADD27R,0.0671X0.0671*%
%ADD28R,0.0789X0.0789*%
G04:AMPARAMS|DCode=29|XSize=114.3mil|YSize=90.7mil|CornerRadius=0mil|HoleSize=0mil|Usage=FLASHONLY|Rotation=0.000|XOffset=0mil|YOffset=0mil|HoleType=Round|Shape=Octagon|*
%AMOCTAGOND29*
4,1,8,0.0572,-0.0227,0.0572,0.0227,0.0345,0.0453,-0.0345,0.0453,-0.0572,0.0227,-0.0572,-0.0227,-0.0345,-0.0453,0.0345,-0.0453,0.0572,-0.0227,0.0*
%
%ADD29OCTAGOND29*%

%ADD30C,0.0680*%
%ADD31R,0.0680X0.0680*%
%ADD32C,0.0580*%
D10*
X10050Y49850D02*
X40050D01*
X10050Y19800D02*
Y49850D01*
X10050Y19800D02*
X40050D01*
X40050Y49850D02*
X40050Y19850D01*
D16*
X38570Y23265D02*
D03*
Y23935D02*
D03*
X18400Y31985D02*
D03*
Y31315D02*
D03*
X11900Y31985D02*
D03*
Y31315D02*
D03*
X18400Y36685D02*
D03*
Y36015D02*
D03*
X11900Y36685D02*
D03*
Y36015D02*
D03*
X18400Y42035D02*
D03*
Y41365D02*
D03*
Y47035D02*
D03*
Y46365D02*
D03*
X11850Y41935D02*
D03*
Y41265D02*
D03*
X11650Y47435D02*
D03*
Y46765D02*
D03*
D17*
X12285Y26180D02*
D03*
X11615D02*
D03*
D18*
X16400Y32200D02*
D03*
X35750Y23050D02*
D03*
X13400Y46450D02*
D03*
X16400Y47500D02*
D03*
X13400Y41050D02*
D03*
X16400Y42050D02*
D03*
Y35800D02*
D03*
X13345Y31097D02*
D03*
Y36850D02*
D03*
X12050Y23050D02*
D03*
D19*
X16400Y31200D02*
D03*
X35750Y24050D02*
D03*
X13400Y47450D02*
D03*
X16400Y46500D02*
D03*
X13400Y42050D02*
D03*
X16400Y41050D02*
D03*
Y36800D02*
D03*
X13345Y32097D02*
D03*
Y35850D02*
D03*
X12050Y24050D02*
D03*
D20*
X38350Y21150D02*
D03*
X11650Y20939D02*
D03*
D21*
X37350Y21150D02*
D03*
X36350D02*
D03*
X35350D02*
D03*
X12650Y20939D02*
D03*
X34550Y48100D02*
D03*
X35550D02*
D03*
X34550Y47100D02*
D03*
X35550D02*
D03*
X34550Y46100D02*
D03*
X35550D02*
D03*
X34550Y45100D02*
D03*
X35550D02*
D03*
X34550Y44100D02*
D03*
X11400Y28700D02*
D03*
Y34000D02*
D03*
Y38842D02*
D03*
Y44467D02*
D03*
X31561Y48100D02*
D03*
X32561D02*
D03*
X31561Y47100D02*
D03*
X32561D02*
D03*
X31561Y46100D02*
D03*
X32561D02*
D03*
X31561Y45100D02*
D03*
X32561D02*
D03*
X31561Y44100D02*
D03*
D22*
X35311Y38250D02*
D03*
X38450D02*
D03*
D23*
X35311Y31250D02*
D03*
Y32250D02*
D03*
Y33250D02*
D03*
Y34250D02*
D03*
Y35250D02*
D03*
Y36250D02*
D03*
Y37250D02*
D03*
X38450D02*
D03*
Y36250D02*
D03*
Y35250D02*
D03*
Y34250D02*
D03*
Y33250D02*
D03*
Y32250D02*
D03*
Y31250D02*
D03*
X14400Y44374D02*
D03*
X16400D02*
D03*
X17400D02*
D03*
X15400D02*
D03*
X18400D02*
D03*
Y29300D02*
D03*
X15400D02*
D03*
X17400D02*
D03*
X16400D02*
D03*
X14400D02*
D03*
Y38750D02*
D03*
X16400D02*
D03*
X17400D02*
D03*
X15400D02*
D03*
X18400D02*
D03*
X18450Y34000D02*
D03*
X15450D02*
D03*
X17450D02*
D03*
X16450D02*
D03*
X14450D02*
D03*
D24*
X13400Y44374D02*
D03*
Y29300D02*
D03*
Y38750D02*
D03*
X13450Y34000D02*
D03*
D25*
X37300Y47025D02*
D03*
Y42800D02*
D03*
D26*
X38678Y47025D02*
D03*
Y42800D02*
D03*
X25450Y46336D02*
D03*
X29000D02*
D03*
D27*
X35550Y44100D02*
D03*
X11400Y29700D02*
D03*
Y35000D02*
D03*
Y39842D02*
D03*
Y45467D02*
D03*
X32561Y44100D02*
D03*
D28*
X25450Y47714D02*
D03*
X29000D02*
D03*
D29*
X15200Y21639D02*
D03*
Y23450D02*
D03*
Y25261D02*
D03*
D30*
X32550Y39870D02*
D03*
Y38830D02*
D03*
Y37830D02*
D03*
Y36830D02*
D03*
Y35830D02*
D03*
Y34830D02*
D03*
Y33830D02*
D03*
Y32830D02*
D03*
Y31830D02*
D03*
Y30830D02*
D03*
Y29830D02*
D03*
Y28830D02*
D03*
Y27830D02*
D03*
Y26830D02*
D03*
Y25830D02*
D03*
Y24830D02*
D03*
Y23830D02*
D03*
Y22830D02*
D03*
Y21830D02*
D03*
X22550D02*
D03*
Y22870D02*
D03*
Y23870D02*
D03*
Y24870D02*
D03*
Y25870D02*
D03*
Y26870D02*
D03*
Y27870D02*
D03*
Y28870D02*
D03*
Y29870D02*
D03*
Y30870D02*
D03*
Y31870D02*
D03*
Y32870D02*
D03*
Y33870D02*
D03*
Y34870D02*
D03*
Y35870D02*
D03*
Y36870D02*
D03*
Y37870D02*
D03*
Y38870D02*
D03*
D31*
Y39870D02*
D03*
D32*
X12900Y25550D02*
D03*
X16800Y30200D02*
D03*
X16650Y35000D02*
D03*
X16800Y39800D02*
D03*
X18400Y40600D02*
D03*
M02*
