M48
;Layer_Color=9474304
;FILE_FORMAT=2:4
INCH,LZ
;TYPE=PLATED
T1F00S00C0.0280
T2F00S00C0.0350
T3F00S00C0.0354
T4F00S00C0.0394
%
T01
X0168Y0302
X0129Y02555
X01665Y035
X0168Y0398
X0184Y0406
T02
X03255Y02183
Y02283
Y02383
Y02483
Y02583
Y02683
Y02783
Y02883
Y02983
Y03083
X03575Y02405
Y02305
X02255Y02287
Y02387
Y02487
Y02587
Y02687
Y02787
Y02887
Y02987
Y03087
X0184Y0293
X0174
X0164
Y0312
X02255Y02183
X01205Y02305
Y02405
X0134Y0293
X0144
X0154
X013345Y031097
Y032097
X01345Y034
X01445
X01545
X013345Y03585
Y03685
X0134Y03875
X0144
X0154
X0134Y04105
Y04205
Y044374
X0144
X0154
X0134Y04645
X0164Y0465
Y044374
X0174
X0184
X0164Y04205
Y04105
Y03875
X0174
X0184
X0164Y0368
Y0358
X01645Y034
X01745
X01845
X0164Y0322
X02255Y03187
Y03287
Y03387
Y03487
Y03587
Y03687
Y03787
Y03887
Y03987
X03255
Y03883
Y03783
Y03683
Y03583
Y03483
Y03383
Y03283
Y03183
X035311Y03225
Y03125
Y03325
Y03425
Y03525
Y03625
Y03725
Y03825
X03845
Y03725
Y03625
Y03525
Y03425
Y03325
Y03225
Y03125
X0164Y0475
X0134Y04745
T03
X03535Y02115
X03635
X03735
X03835
X01265Y020939
X01165
X0114Y0287
Y0297
Y034
Y035
Y038842
Y039842
Y044467
Y045467
X031561Y0451
Y0461
X032561
Y0451
Y0441
X031561
X03455
Y0451
Y0461
X03555
Y0451
Y0441
Y0471
Y0481
X03455
Y0471
X032561
Y0481
X031561
Y0471
T04
X02545Y046336
X029
X0373Y0428
X038678
Y047025
X0373
X029Y047714
X02545
M30
