G04*
G04 #@! TF.GenerationSoftware,Altium Limited,Altium Designer,20.2.6 (244)*
G04*
G04 Layer_Physical_Order=2*
G04 Layer_Color=16711680*
%FSLAX24Y24*%
%MOIN*%
G70*
G04*
G04 #@! TF.SameCoordinates,67DAE9A7-D567-40AA-987E-AE02A1C53A3D*
G04*
G04*
G04 #@! TF.FilePolarity,Positive*
G04*
G01*
G75*
%ADD10C,0.0100*%
%ADD33C,0.0300*%
%ADD34C,0.0350*%
%ADD35C,0.0700*%
%ADD36R,0.0700X0.0700*%
%ADD37R,0.0591X0.0591*%
%ADD38C,0.0591*%
%ADD39R,0.0800X0.0800*%
%ADD40C,0.0800*%
%ADD41R,0.0800X0.0800*%
%ADD42R,0.0709X0.0709*%
%ADD43C,0.0709*%
%ADD44R,0.0591X0.0591*%
%ADD45R,0.0709X0.0709*%
G04:AMPARAMS|DCode=46|XSize=106.3mil|YSize=82.7mil|CornerRadius=0mil|HoleSize=0mil|Usage=FLASHONLY|Rotation=0.000|XOffset=0mil|YOffset=0mil|HoleType=Round|Shape=Octagon|*
%AMOCTAGOND46*
4,1,8,0.0531,-0.0207,0.0531,0.0207,0.0325,0.0413,-0.0325,0.0413,-0.0531,0.0207,-0.0531,-0.0207,-0.0325,-0.0413,0.0325,-0.0413,0.0531,-0.0207,0.0*
%
%ADD46OCTAGOND46*%

%ADD47C,0.0600*%
%ADD48R,0.0600X0.0600*%
%ADD49C,0.0500*%
G36*
X40050Y19800D02*
X10050D01*
Y49850D01*
X40050D01*
Y19800D01*
D02*
G37*
%LPC*%
G36*
X13850Y47900D02*
X12950D01*
Y47000D01*
X13850D01*
Y47900D01*
D02*
G37*
G36*
X16850Y46950D02*
X15950D01*
Y46050D01*
X16850D01*
Y46950D01*
D02*
G37*
G36*
X13400Y46904D02*
X13283Y46888D01*
X13173Y46843D01*
X13079Y46771D01*
X13007Y46677D01*
X12962Y46567D01*
X12946Y46450D01*
X12962Y46333D01*
X13007Y46223D01*
X13079Y46129D01*
X13173Y46057D01*
X13283Y46012D01*
X13400Y45996D01*
X13517Y46012D01*
X13627Y46057D01*
X13721Y46129D01*
X13793Y46223D01*
X13838Y46333D01*
X13854Y46450D01*
X13838Y46567D01*
X13793Y46677D01*
X13721Y46771D01*
X13627Y46843D01*
X13517Y46888D01*
X13400Y46904D01*
D02*
G37*
G36*
X11795Y45862D02*
X11005D01*
Y45071D01*
X11795D01*
Y45862D01*
D02*
G37*
G36*
X11400Y44865D02*
X11297Y44852D01*
X11201Y44812D01*
X11118Y44749D01*
X11055Y44666D01*
X11015Y44570D01*
X11001Y44467D01*
X11015Y44364D01*
X11055Y44267D01*
X11118Y44185D01*
X11201Y44121D01*
X11297Y44082D01*
X11400Y44068D01*
X11503Y44082D01*
X11599Y44121D01*
X11682Y44185D01*
X11745Y44267D01*
X11785Y44364D01*
X11799Y44467D01*
X11785Y44570D01*
X11745Y44666D01*
X11682Y44749D01*
X11599Y44812D01*
X11503Y44852D01*
X11400Y44865D01*
D02*
G37*
G36*
X37058Y48900D02*
X35095D01*
X34998Y48881D01*
X34915Y48826D01*
X34370Y48280D01*
X34314Y48198D01*
X34295Y48100D01*
Y47100D01*
Y46100D01*
Y45100D01*
Y44355D01*
X33589D01*
X33492Y44335D01*
X33409Y44280D01*
X33002Y43873D01*
X32956Y43892D01*
Y44495D01*
X32816D01*
Y44797D01*
X32843Y44818D01*
X32906Y44901D01*
X32946Y44997D01*
X32959Y45100D01*
X32946Y45203D01*
X32906Y45299D01*
X32843Y45382D01*
X32816Y45403D01*
Y45797D01*
X32843Y45818D01*
X32906Y45901D01*
X32946Y45997D01*
X32959Y46100D01*
X32946Y46203D01*
X32906Y46299D01*
X32843Y46382D01*
X32816Y46403D01*
Y46797D01*
X32843Y46818D01*
X32906Y46901D01*
X32946Y46997D01*
X32959Y47100D01*
X32946Y47203D01*
X32906Y47299D01*
X32843Y47382D01*
X32816Y47403D01*
Y47797D01*
X32843Y47818D01*
X32906Y47901D01*
X32946Y47997D01*
X32959Y48100D01*
X32946Y48203D01*
X32906Y48299D01*
X32843Y48382D01*
X32760Y48445D01*
X32664Y48485D01*
X32561Y48499D01*
X32527Y48494D01*
X32196Y48826D01*
X32113Y48881D01*
X32015Y48900D01*
X30961D01*
X30863Y48881D01*
X30781Y48826D01*
X29924Y47969D01*
X29454D01*
Y48169D01*
X28546D01*
Y47969D01*
X25904D01*
Y48169D01*
X24996D01*
Y47969D01*
X20970D01*
X20608Y48330D01*
X20526Y48386D01*
X20428Y48405D01*
X15750D01*
X15652Y48386D01*
X15570Y48330D01*
X14220Y46980D01*
X14165Y46898D01*
X14145Y46800D01*
Y44809D01*
X14043Y44731D01*
X13963Y44626D01*
X13950Y44594D01*
X13900Y44604D01*
Y44874D01*
X12900D01*
Y43874D01*
X13900D01*
Y44144D01*
X13950Y44154D01*
X13963Y44122D01*
X14043Y44018D01*
X14148Y43938D01*
X14269Y43887D01*
X14400Y43870D01*
X14531Y43887D01*
X14652Y43938D01*
X14757Y44018D01*
X14837Y44122D01*
X14873Y44210D01*
X14927D01*
X14963Y44122D01*
X15043Y44018D01*
X15148Y43938D01*
X15269Y43887D01*
X15400Y43870D01*
X15531Y43887D01*
X15652Y43938D01*
X15757Y44018D01*
X15837Y44122D01*
X15873Y44210D01*
X15927D01*
X15963Y44122D01*
X16043Y44018D01*
X16148Y43938D01*
X16269Y43887D01*
X16400Y43870D01*
X16531Y43887D01*
X16652Y43938D01*
X16757Y44018D01*
X16837Y44122D01*
X16887Y44244D01*
X16904Y44374D01*
X16887Y44505D01*
X16837Y44626D01*
X16757Y44731D01*
X16652Y44811D01*
X16531Y44861D01*
X16400Y44879D01*
X16269Y44861D01*
X16148Y44811D01*
X16043Y44731D01*
X15963Y44626D01*
X15927Y44539D01*
X15873D01*
X15837Y44626D01*
X15757Y44731D01*
X15652Y44811D01*
X15531Y44861D01*
X15400Y44879D01*
X15269Y44861D01*
X15148Y44811D01*
X15043Y44731D01*
X14963Y44626D01*
X14927Y44539D01*
X14873D01*
X14837Y44626D01*
X14757Y44731D01*
X14655Y44809D01*
Y46694D01*
X15856Y47895D01*
X16094D01*
X16111Y47845D01*
X16079Y47821D01*
X16007Y47727D01*
X15962Y47617D01*
X15946Y47500D01*
X15962Y47383D01*
X16007Y47273D01*
X16079Y47179D01*
X16173Y47107D01*
X16283Y47062D01*
X16400Y47046D01*
X16517Y47062D01*
X16627Y47107D01*
X16721Y47179D01*
X16793Y47273D01*
X16838Y47383D01*
X16854Y47500D01*
X16838Y47617D01*
X16793Y47727D01*
X16721Y47821D01*
X16689Y47845D01*
X16706Y47895D01*
X20323D01*
X20684Y47534D01*
X20766Y47479D01*
X20864Y47459D01*
X24996D01*
Y47260D01*
X25904D01*
Y47459D01*
X28546D01*
Y47260D01*
X29454D01*
Y47459D01*
X30030D01*
X30127Y47479D01*
X30210Y47534D01*
X31067Y48390D01*
X31483D01*
X31488Y48340D01*
X31463Y48335D01*
X31380Y48280D01*
X31325Y48198D01*
X31306Y48100D01*
Y47100D01*
Y46619D01*
X31267Y46587D01*
X31246Y46591D01*
X19362D01*
X19264Y46572D01*
X19182Y46516D01*
X17220Y44555D01*
X17164Y44472D01*
X17145Y44374D01*
Y40007D01*
X17095Y39990D01*
X17050Y40050D01*
X16977Y40106D01*
X16891Y40141D01*
X16800Y40153D01*
X16709Y40141D01*
X16657Y40120D01*
X11795D01*
Y40238D01*
X11005D01*
Y39447D01*
X11795D01*
Y39565D01*
X16539D01*
X16550Y39550D01*
X16623Y39494D01*
X16709Y39459D01*
X16800Y39447D01*
X16891Y39459D01*
X16977Y39494D01*
X17050Y39550D01*
X17095Y39610D01*
X17145Y39593D01*
Y38750D01*
X17164Y38652D01*
X17170Y38644D01*
Y34025D01*
X17175Y34000D01*
X17170Y33975D01*
Y30432D01*
X17190Y30335D01*
X17195Y30326D01*
Y30263D01*
X17145Y30260D01*
X17141Y30291D01*
X17106Y30377D01*
X17050Y30450D01*
X16977Y30506D01*
X16891Y30541D01*
X16800Y30553D01*
X16709Y30541D01*
X16623Y30506D01*
X16587Y30477D01*
X12950D01*
X12878Y30468D01*
X12811Y30440D01*
X12754Y30396D01*
X12335Y29977D01*
X11795D01*
Y30095D01*
X11005D01*
Y29305D01*
X11795D01*
Y29423D01*
X12450D01*
X12522Y29432D01*
X12589Y29460D01*
X12646Y29504D01*
X12854Y29712D01*
X12900Y29692D01*
Y28800D01*
X13900D01*
Y29070D01*
X13950Y29080D01*
X13963Y29048D01*
X14043Y28943D01*
X14148Y28863D01*
X14269Y28813D01*
X14400Y28796D01*
X14531Y28813D01*
X14652Y28863D01*
X14757Y28943D01*
X14837Y29048D01*
X14873Y29135D01*
X14927D01*
X14963Y29048D01*
X15043Y28943D01*
X15148Y28863D01*
X15269Y28813D01*
X15400Y28796D01*
X15531Y28813D01*
X15652Y28863D01*
X15757Y28943D01*
X15837Y29048D01*
X15873Y29135D01*
X15927D01*
X15963Y29048D01*
X16043Y28943D01*
X16148Y28863D01*
X16269Y28813D01*
X16400Y28796D01*
X16474Y28805D01*
X16498Y28758D01*
X16009Y28270D01*
X12215D01*
X12117Y28250D01*
X12034Y28195D01*
X10870Y27030D01*
X10814Y26948D01*
X10795Y26850D01*
Y23850D01*
X10814Y23752D01*
X10870Y23670D01*
X11504Y23035D01*
X11587Y22980D01*
X11610Y22976D01*
X11625Y22928D01*
X11470Y22773D01*
X11415Y22690D01*
X11395Y22593D01*
Y20939D01*
X11415Y20842D01*
X11470Y20759D01*
X11552Y20704D01*
X11650Y20684D01*
X11748Y20704D01*
X11830Y20759D01*
X11885Y20842D01*
X11905Y20939D01*
Y22487D01*
X12230Y22812D01*
X12285Y22895D01*
X12305Y22993D01*
Y23050D01*
X12285Y23148D01*
X12230Y23230D01*
X12148Y23286D01*
X12050Y23305D01*
X12047D01*
X11956Y23396D01*
X11874Y23451D01*
X11793Y23467D01*
X11707Y23554D01*
X11726Y23600D01*
X12500D01*
Y24500D01*
X11600D01*
Y23726D01*
X11554Y23707D01*
X11305Y23956D01*
Y26744D01*
X12320Y27760D01*
X16115D01*
X16212Y27779D01*
X16295Y27834D01*
X17400Y28940D01*
X19650Y26690D01*
X19732Y26635D01*
X19830Y26615D01*
X22550D01*
X22648Y26635D01*
X22730Y26690D01*
X22785Y26772D01*
X22805Y26870D01*
X22785Y26968D01*
X22730Y27050D01*
X22648Y27106D01*
X22550Y27125D01*
X19936D01*
X18302Y28758D01*
X18326Y28805D01*
X18400Y28796D01*
X18531Y28813D01*
X18652Y28863D01*
X18757Y28943D01*
X18837Y29048D01*
X18887Y29169D01*
X18904Y29300D01*
X18887Y29431D01*
X18837Y29552D01*
X18757Y29657D01*
X18652Y29737D01*
X18531Y29787D01*
X18400Y29804D01*
X18269Y29787D01*
X18148Y29737D01*
X18043Y29657D01*
X17963Y29552D01*
X17913Y29431D01*
X17896Y29300D01*
X17905Y29226D01*
X17858Y29202D01*
X17705Y29356D01*
Y30407D01*
X17686Y30505D01*
X17680Y30513D01*
Y33894D01*
X17686Y33902D01*
X17705Y34000D01*
X17686Y34098D01*
X17680Y34106D01*
Y38725D01*
X17660Y38823D01*
X17655Y38831D01*
Y44269D01*
X17858Y44472D01*
X17905Y44449D01*
X17896Y44374D01*
X17913Y44244D01*
X17963Y44122D01*
X18043Y44018D01*
X18148Y43938D01*
X18269Y43887D01*
X18400Y43870D01*
X18531Y43887D01*
X18652Y43938D01*
X18757Y44018D01*
X18837Y44122D01*
X18887Y44244D01*
X18904Y44374D01*
X18887Y44505D01*
X18837Y44626D01*
X18757Y44731D01*
X18652Y44811D01*
X18531Y44861D01*
X18400Y44879D01*
X18326Y44869D01*
X18302Y44916D01*
X19467Y46081D01*
X31140D01*
X31302Y45920D01*
X31306Y45917D01*
Y45100D01*
Y44100D01*
Y40859D01*
X31325Y40762D01*
X31380Y40679D01*
X32370Y39690D01*
X32843Y39217D01*
X32838Y39167D01*
X32795Y39146D01*
X32752Y39179D01*
X32654Y39220D01*
X32550Y39233D01*
X32446Y39220D01*
X32348Y39179D01*
X32265Y39115D01*
X32201Y39032D01*
X32160Y38934D01*
X32147Y38830D01*
X32160Y38726D01*
X32201Y38628D01*
X32265Y38545D01*
X32348Y38481D01*
X32446Y38440D01*
X32550Y38427D01*
X32654Y38440D01*
X32752Y38481D01*
X32795Y38514D01*
X32845Y38489D01*
Y38171D01*
X32795Y38146D01*
X32752Y38179D01*
X32654Y38220D01*
X32550Y38233D01*
X32446Y38220D01*
X32348Y38179D01*
X32265Y38115D01*
X32201Y38032D01*
X32160Y37934D01*
X32147Y37830D01*
X32160Y37726D01*
X32201Y37628D01*
X32265Y37545D01*
X32348Y37481D01*
X32446Y37440D01*
X32550Y37427D01*
X32654Y37440D01*
X32752Y37481D01*
X32795Y37514D01*
X32845Y37489D01*
Y37171D01*
X32795Y37146D01*
X32752Y37179D01*
X32654Y37220D01*
X32550Y37233D01*
X32446Y37220D01*
X32348Y37179D01*
X32265Y37115D01*
X32201Y37032D01*
X32160Y36934D01*
X32147Y36830D01*
X32160Y36726D01*
X32201Y36628D01*
X32265Y36545D01*
X32348Y36481D01*
X32446Y36440D01*
X32550Y36427D01*
X32654Y36440D01*
X32752Y36481D01*
X32795Y36514D01*
X32845Y36489D01*
Y36171D01*
X32795Y36146D01*
X32752Y36179D01*
X32654Y36220D01*
X32550Y36233D01*
X32446Y36220D01*
X32348Y36179D01*
X32265Y36115D01*
X32201Y36032D01*
X32160Y35934D01*
X32147Y35830D01*
X32160Y35726D01*
X32201Y35628D01*
X32265Y35545D01*
X32348Y35481D01*
X32446Y35440D01*
X32550Y35427D01*
X32654Y35440D01*
X32752Y35481D01*
X32795Y35514D01*
X32845Y35489D01*
Y35171D01*
X32795Y35146D01*
X32752Y35179D01*
X32654Y35220D01*
X32550Y35233D01*
X32446Y35220D01*
X32348Y35179D01*
X32265Y35115D01*
X32201Y35032D01*
X32160Y34934D01*
X32147Y34830D01*
X32160Y34726D01*
X32201Y34628D01*
X32265Y34545D01*
X32348Y34481D01*
X32446Y34440D01*
X32550Y34427D01*
X32654Y34440D01*
X32752Y34481D01*
X32754Y34483D01*
X32808Y34461D01*
X32810Y34451D01*
X32370Y34010D01*
X32315Y33928D01*
X32295Y33830D01*
X32315Y33732D01*
X32370Y33650D01*
X32427Y33592D01*
X32510Y33537D01*
X32607Y33518D01*
X32682D01*
X35018Y31182D01*
X34970Y31134D01*
X34915Y31052D01*
X34895Y30954D01*
Y22801D01*
X34915Y22704D01*
X34970Y22621D01*
X35095Y22496D01*
Y21150D01*
X35115Y21052D01*
X35170Y20970D01*
X35252Y20914D01*
X35350Y20895D01*
X35448Y20914D01*
X35530Y20970D01*
X35585Y21052D01*
X35605Y21150D01*
Y22569D01*
X35612Y22579D01*
X35651Y22608D01*
X35653Y22609D01*
X35750Y22596D01*
X35867Y22612D01*
X35977Y22657D01*
X36071Y22729D01*
X36143Y22823D01*
X36188Y22933D01*
X36204Y23050D01*
X36188Y23167D01*
X36143Y23277D01*
X36071Y23371D01*
X35977Y23443D01*
X35867Y23488D01*
X35750Y23504D01*
X35633Y23488D01*
X35523Y23443D01*
X35455Y23391D01*
X35405Y23415D01*
Y23600D01*
X36200D01*
Y24500D01*
X35405D01*
Y30848D01*
X35491Y30934D01*
X35531Y30995D01*
X38450D01*
X38548Y31014D01*
X38630Y31070D01*
X38686Y31152D01*
X38705Y31250D01*
X38686Y31348D01*
X38630Y31430D01*
X38548Y31486D01*
X38450Y31505D01*
X35416D01*
X35213Y31708D01*
X35236Y31755D01*
X35311Y31746D01*
X35441Y31763D01*
X35563Y31813D01*
X35667Y31893D01*
X35747Y31998D01*
X35798Y32119D01*
X35815Y32250D01*
X35798Y32381D01*
X35747Y32502D01*
X35667Y32607D01*
X35563Y32687D01*
X35475Y32723D01*
Y32777D01*
X35563Y32813D01*
X35667Y32893D01*
X35747Y32998D01*
X35798Y33119D01*
X35815Y33250D01*
X35798Y33381D01*
X35747Y33502D01*
X35667Y33607D01*
X35563Y33687D01*
X35475Y33723D01*
Y33777D01*
X35563Y33813D01*
X35667Y33893D01*
X35745Y33995D01*
X38015D01*
X38093Y33893D01*
X38198Y33813D01*
X38285Y33777D01*
Y33723D01*
X38198Y33687D01*
X38093Y33607D01*
X38013Y33502D01*
X37963Y33381D01*
X37946Y33250D01*
X37963Y33119D01*
X38013Y32998D01*
X38093Y32893D01*
X38198Y32813D01*
X38285Y32777D01*
Y32723D01*
X38198Y32687D01*
X38093Y32607D01*
X38013Y32502D01*
X37963Y32381D01*
X37946Y32250D01*
X37963Y32119D01*
X38013Y31998D01*
X38093Y31893D01*
X38198Y31813D01*
X38319Y31763D01*
X38450Y31746D01*
X38581Y31763D01*
X38702Y31813D01*
X38807Y31893D01*
X38887Y31998D01*
X38937Y32119D01*
X38954Y32250D01*
X38937Y32381D01*
X38887Y32502D01*
X38807Y32607D01*
X38702Y32687D01*
X38615Y32723D01*
Y32777D01*
X38702Y32813D01*
X38807Y32893D01*
X38887Y32998D01*
X38937Y33119D01*
X38954Y33250D01*
X38937Y33381D01*
X38887Y33502D01*
X38807Y33607D01*
X38702Y33687D01*
X38615Y33723D01*
Y33777D01*
X38702Y33813D01*
X38807Y33893D01*
X38887Y33998D01*
X38937Y34119D01*
X38954Y34250D01*
X38937Y34381D01*
X38887Y34502D01*
X38807Y34607D01*
X38702Y34687D01*
X38615Y34723D01*
Y34777D01*
X38702Y34813D01*
X38807Y34893D01*
X38887Y34998D01*
X38937Y35119D01*
X38954Y35250D01*
X38937Y35381D01*
X38887Y35502D01*
X38807Y35607D01*
X38702Y35687D01*
X38615Y35723D01*
Y35777D01*
X38702Y35813D01*
X38807Y35893D01*
X38887Y35998D01*
X38937Y36119D01*
X38954Y36250D01*
X38937Y36381D01*
X38887Y36502D01*
X38807Y36607D01*
X38702Y36687D01*
X38615Y36723D01*
Y36777D01*
X38702Y36813D01*
X38807Y36893D01*
X38887Y36998D01*
X38937Y37119D01*
X38954Y37250D01*
X38945Y37324D01*
X38992Y37348D01*
X39195Y37144D01*
Y21781D01*
X38819Y21405D01*
X38745D01*
Y21545D01*
X37955D01*
Y21029D01*
X37950Y21005D01*
Y20536D01*
X37869Y20455D01*
X24286D01*
X22948Y21792D01*
X22953Y21830D01*
X22940Y21934D01*
X22899Y22032D01*
X22835Y22115D01*
X22752Y22179D01*
X22654Y22220D01*
X22550Y22233D01*
X22446Y22220D01*
X22348Y22179D01*
X22265Y22115D01*
X22201Y22032D01*
X22160Y21934D01*
X22155Y21894D01*
X15832D01*
Y21896D01*
X15575Y22152D01*
X14929D01*
X13555Y23526D01*
Y25150D01*
X13535Y25248D01*
X13480Y25330D01*
X13252Y25559D01*
X13241Y25641D01*
X13206Y25727D01*
X13150Y25800D01*
X13077Y25856D01*
X12991Y25891D01*
X12900Y25903D01*
X12809Y25891D01*
X12723Y25856D01*
X12650Y25800D01*
X12594Y25727D01*
X12559Y25641D01*
X12547Y25550D01*
X12559Y25459D01*
X12594Y25373D01*
X12650Y25300D01*
X12723Y25244D01*
X12809Y25209D01*
X12891Y25198D01*
X13045Y25044D01*
Y23421D01*
X13065Y23323D01*
X13120Y23241D01*
X14569Y21792D01*
Y21382D01*
X14825Y21126D01*
X15575D01*
X15832Y21382D01*
Y21384D01*
X22278D01*
X22375Y21403D01*
X22436Y21444D01*
X22446Y21440D01*
X22550Y21427D01*
X22588Y21432D01*
X24000Y20020D01*
X24082Y19964D01*
X24180Y19945D01*
X37974D01*
X38072Y19964D01*
X38154Y20020D01*
X38385Y20250D01*
X38440Y20333D01*
X38460Y20430D01*
Y20755D01*
X38745D01*
Y20895D01*
X38924D01*
X39022Y20914D01*
X39104Y20970D01*
X39630Y21495D01*
X39685Y21578D01*
X39705Y21676D01*
Y37250D01*
X39685Y37348D01*
X39630Y37430D01*
X38950Y38110D01*
Y38750D01*
X37950D01*
Y38505D01*
X35811D01*
Y38750D01*
X35566D01*
Y43705D01*
X35945D01*
Y44495D01*
X35805D01*
Y44797D01*
X35832Y44818D01*
X35895Y44901D01*
X35935Y44997D01*
X35949Y45100D01*
X35935Y45203D01*
X35895Y45299D01*
X35832Y45382D01*
X35805Y45403D01*
Y45797D01*
X35832Y45818D01*
X35895Y45901D01*
X35935Y45997D01*
X35949Y46100D01*
X35935Y46203D01*
X35895Y46299D01*
X35832Y46382D01*
X35805Y46403D01*
Y46797D01*
X35818Y46808D01*
X36846D01*
Y46571D01*
X37045D01*
Y43254D01*
X36846D01*
Y42346D01*
X37754D01*
Y43254D01*
X37555D01*
Y46571D01*
X37754D01*
Y47480D01*
X36846D01*
Y47318D01*
X35881D01*
X35832Y47382D01*
X35805Y47403D01*
Y47797D01*
X35832Y47818D01*
X35895Y47901D01*
X35935Y47997D01*
X35949Y48100D01*
X35935Y48203D01*
X35895Y48299D01*
X35864Y48340D01*
X35888Y48390D01*
X36952D01*
X38423Y46920D01*
Y42800D01*
X38442Y42702D01*
X38498Y42620D01*
X38580Y42565D01*
X38678Y42545D01*
X38775Y42565D01*
X38858Y42620D01*
X38913Y42702D01*
X38933Y42800D01*
Y47025D01*
X38913Y47123D01*
X38858Y47205D01*
X37238Y48826D01*
X37155Y48881D01*
X37058Y48900D01*
D02*
G37*
G36*
X13850Y42500D02*
X12950D01*
Y41600D01*
X13850D01*
Y42500D01*
D02*
G37*
G36*
X16400Y42504D02*
X16283Y42488D01*
X16173Y42443D01*
X16079Y42371D01*
X16007Y42277D01*
X15962Y42167D01*
X15946Y42050D01*
X15962Y41933D01*
X16007Y41823D01*
X16079Y41729D01*
X16173Y41657D01*
X16283Y41612D01*
X16400Y41596D01*
X16517Y41612D01*
X16627Y41657D01*
X16721Y41729D01*
X16793Y41823D01*
X16838Y41933D01*
X16854Y42050D01*
X16838Y42167D01*
X16793Y42277D01*
X16721Y42371D01*
X16627Y42443D01*
X16517Y42488D01*
X16400Y42504D01*
D02*
G37*
G36*
X13400Y41504D02*
X13283Y41488D01*
X13173Y41443D01*
X13079Y41371D01*
X13007Y41277D01*
X12962Y41167D01*
X12946Y41050D01*
X12962Y40933D01*
X13007Y40823D01*
X13079Y40729D01*
X13173Y40657D01*
X13283Y40612D01*
X13400Y40596D01*
X13517Y40612D01*
X13627Y40657D01*
X13721Y40729D01*
X13754Y40773D01*
X15950D01*
Y40600D01*
X16850D01*
Y41500D01*
X15950D01*
Y41327D01*
X13754D01*
X13721Y41371D01*
X13627Y41443D01*
X13517Y41488D01*
X13400Y41504D01*
D02*
G37*
G36*
X22950Y40270D02*
X22150D01*
Y39470D01*
X22950D01*
Y40270D01*
D02*
G37*
G36*
X16400Y39254D02*
X16269Y39237D01*
X16148Y39187D01*
X16043Y39107D01*
X15963Y39002D01*
X15927Y38915D01*
X15873D01*
X15837Y39002D01*
X15757Y39107D01*
X15652Y39187D01*
X15531Y39237D01*
X15400Y39254D01*
X15269Y39237D01*
X15148Y39187D01*
X15043Y39107D01*
X14963Y39002D01*
X14927Y38915D01*
X14873D01*
X14837Y39002D01*
X14757Y39107D01*
X14652Y39187D01*
X14531Y39237D01*
X14400Y39254D01*
X14269Y39237D01*
X14148Y39187D01*
X14043Y39107D01*
X13963Y39002D01*
X13950Y38970D01*
X13900Y38980D01*
Y39250D01*
X12900D01*
Y38250D01*
X13900D01*
Y38520D01*
X13950Y38530D01*
X13963Y38498D01*
X14043Y38393D01*
X14148Y38313D01*
X14269Y38263D01*
X14400Y38246D01*
X14531Y38263D01*
X14652Y38313D01*
X14757Y38393D01*
X14837Y38498D01*
X14873Y38585D01*
X14927D01*
X14963Y38498D01*
X15043Y38393D01*
X15148Y38313D01*
X15269Y38263D01*
X15400Y38246D01*
X15531Y38263D01*
X15652Y38313D01*
X15757Y38393D01*
X15837Y38498D01*
X15873Y38585D01*
X15927D01*
X15963Y38498D01*
X16043Y38393D01*
X16148Y38313D01*
X16269Y38263D01*
X16400Y38246D01*
X16531Y38263D01*
X16652Y38313D01*
X16757Y38393D01*
X16837Y38498D01*
X16887Y38619D01*
X16904Y38750D01*
X16887Y38881D01*
X16837Y39002D01*
X16757Y39107D01*
X16652Y39187D01*
X16531Y39237D01*
X16400Y39254D01*
D02*
G37*
G36*
X22550Y39273D02*
X22446Y39260D01*
X22348Y39219D01*
X22265Y39155D01*
X22201Y39072D01*
X22160Y38974D01*
X22147Y38870D01*
X22160Y38766D01*
X22201Y38668D01*
X22265Y38585D01*
X22348Y38521D01*
X22446Y38480D01*
X22550Y38467D01*
X22654Y38480D01*
X22752Y38521D01*
X22835Y38585D01*
X22899Y38668D01*
X22940Y38766D01*
X22953Y38870D01*
X22940Y38974D01*
X22899Y39072D01*
X22835Y39155D01*
X22752Y39219D01*
X22654Y39260D01*
X22550Y39273D01*
D02*
G37*
G36*
X11400Y39241D02*
X11297Y39228D01*
X11201Y39188D01*
X11118Y39124D01*
X11055Y39042D01*
X11015Y38946D01*
X11001Y38842D01*
X11015Y38739D01*
X11055Y38643D01*
X11118Y38560D01*
X11201Y38497D01*
X11297Y38457D01*
X11400Y38444D01*
X11503Y38457D01*
X11599Y38497D01*
X11682Y38560D01*
X11745Y38643D01*
X11785Y38739D01*
X11799Y38842D01*
X11785Y38946D01*
X11745Y39042D01*
X11682Y39124D01*
X11599Y39188D01*
X11503Y39228D01*
X11400Y39241D01*
D02*
G37*
G36*
X18400Y40953D02*
X18309Y40941D01*
X18223Y40906D01*
X18150Y40850D01*
X18094Y40777D01*
X18059Y40691D01*
X18047Y40600D01*
X18059Y40509D01*
X18094Y40423D01*
X18123Y40387D01*
Y39167D01*
X18043Y39107D01*
X17963Y39002D01*
X17913Y38881D01*
X17896Y38750D01*
X17913Y38619D01*
X17963Y38498D01*
X18043Y38393D01*
X18148Y38313D01*
X18269Y38263D01*
X18400Y38246D01*
X18531Y38263D01*
X18652Y38313D01*
X18757Y38393D01*
X18837Y38498D01*
X18887Y38619D01*
X18904Y38750D01*
X18887Y38881D01*
X18837Y39002D01*
X18757Y39107D01*
X18677Y39167D01*
Y40387D01*
X18706Y40423D01*
X18741Y40509D01*
X18753Y40600D01*
X18741Y40691D01*
X18706Y40777D01*
X18650Y40850D01*
X18577Y40906D01*
X18491Y40941D01*
X18400Y40953D01*
D02*
G37*
G36*
X22550Y38273D02*
X22446Y38260D01*
X22348Y38219D01*
X22265Y38155D01*
X22201Y38072D01*
X22160Y37974D01*
X22147Y37870D01*
X22160Y37766D01*
X22201Y37668D01*
X22265Y37585D01*
X22348Y37521D01*
X22446Y37480D01*
X22550Y37467D01*
X22654Y37480D01*
X22752Y37521D01*
X22835Y37585D01*
X22899Y37668D01*
X22940Y37766D01*
X22953Y37870D01*
X22940Y37974D01*
X22899Y38072D01*
X22835Y38155D01*
X22752Y38219D01*
X22654Y38260D01*
X22550Y38273D01*
D02*
G37*
G36*
Y37273D02*
X22446Y37260D01*
X22348Y37219D01*
X22265Y37155D01*
X22201Y37072D01*
X22160Y36974D01*
X22147Y36870D01*
X22160Y36766D01*
X22201Y36668D01*
X22265Y36585D01*
X22348Y36521D01*
X22446Y36480D01*
X22550Y36467D01*
X22654Y36480D01*
X22752Y36521D01*
X22835Y36585D01*
X22899Y36668D01*
X22940Y36766D01*
X22953Y36870D01*
X22940Y36974D01*
X22899Y37072D01*
X22835Y37155D01*
X22752Y37219D01*
X22654Y37260D01*
X22550Y37273D01*
D02*
G37*
G36*
X13345Y37304D02*
X13227Y37288D01*
X13118Y37243D01*
X13024Y37171D01*
X12952Y37077D01*
X12906Y36967D01*
X12891Y36850D01*
X12906Y36733D01*
X12952Y36623D01*
X13024Y36529D01*
X13118Y36457D01*
X13227Y36412D01*
X13345Y36396D01*
X13462Y36412D01*
X13572Y36457D01*
X13666Y36529D01*
X13738Y36623D01*
X13783Y36733D01*
X13799Y36850D01*
X13783Y36967D01*
X13738Y37077D01*
X13666Y37171D01*
X13572Y37243D01*
X13462Y37288D01*
X13345Y37304D01*
D02*
G37*
G36*
X16850Y37250D02*
X15950D01*
Y36350D01*
X16850D01*
Y37250D01*
D02*
G37*
G36*
X22550Y36273D02*
X22446Y36260D01*
X22348Y36219D01*
X22265Y36155D01*
X22201Y36072D01*
X22160Y35974D01*
X22147Y35870D01*
X22160Y35766D01*
X22201Y35668D01*
X22265Y35585D01*
X22348Y35521D01*
X22446Y35480D01*
X22550Y35467D01*
X22654Y35480D01*
X22752Y35521D01*
X22835Y35585D01*
X22899Y35668D01*
X22940Y35766D01*
X22953Y35870D01*
X22940Y35974D01*
X22899Y36072D01*
X22835Y36155D01*
X22752Y36219D01*
X22654Y36260D01*
X22550Y36273D01*
D02*
G37*
G36*
X13795Y36300D02*
X12895D01*
Y35400D01*
X13795D01*
Y35548D01*
X16026D01*
X16079Y35479D01*
X16173Y35407D01*
X16283Y35362D01*
X16400Y35346D01*
X16459Y35354D01*
X16473Y35306D01*
X16437Y35277D01*
X11795D01*
Y35395D01*
X11005D01*
Y34605D01*
X11795D01*
Y34723D01*
X16437D01*
X16473Y34694D01*
X16559Y34659D01*
X16650Y34647D01*
X16741Y34659D01*
X16827Y34694D01*
X16900Y34750D01*
X16956Y34823D01*
X16991Y34909D01*
X17003Y35000D01*
X16991Y35091D01*
X16956Y35177D01*
X16900Y35250D01*
X16827Y35306D01*
X16741Y35341D01*
X16650Y35353D01*
X16617Y35349D01*
X16604Y35397D01*
X16627Y35407D01*
X16721Y35479D01*
X16793Y35573D01*
X16838Y35683D01*
X16854Y35800D01*
X16838Y35917D01*
X16793Y36027D01*
X16721Y36121D01*
X16627Y36193D01*
X16517Y36238D01*
X16400Y36254D01*
X16283Y36238D01*
X16173Y36193D01*
X16079Y36121D01*
X16065Y36102D01*
X13795D01*
Y36300D01*
D02*
G37*
G36*
X22550Y35273D02*
X22446Y35260D01*
X22348Y35219D01*
X22265Y35155D01*
X22201Y35072D01*
X22160Y34974D01*
X22147Y34870D01*
X22160Y34766D01*
X22201Y34668D01*
X22265Y34585D01*
X22348Y34521D01*
X22446Y34480D01*
X22550Y34467D01*
X22654Y34480D01*
X22752Y34521D01*
X22835Y34585D01*
X22899Y34668D01*
X22940Y34766D01*
X22953Y34870D01*
X22940Y34974D01*
X22899Y35072D01*
X22835Y35155D01*
X22752Y35219D01*
X22654Y35260D01*
X22550Y35273D01*
D02*
G37*
G36*
X16450Y34504D02*
X16319Y34487D01*
X16198Y34437D01*
X16093Y34357D01*
X16013Y34252D01*
X15977Y34165D01*
X15923D01*
X15887Y34252D01*
X15807Y34357D01*
X15702Y34437D01*
X15581Y34487D01*
X15450Y34504D01*
X15319Y34487D01*
X15198Y34437D01*
X15093Y34357D01*
X15013Y34252D01*
X14977Y34165D01*
X14923D01*
X14887Y34252D01*
X14807Y34357D01*
X14702Y34437D01*
X14581Y34487D01*
X14450Y34504D01*
X14319Y34487D01*
X14198Y34437D01*
X14093Y34357D01*
X14013Y34252D01*
X14000Y34220D01*
X13950Y34230D01*
Y34500D01*
X12950D01*
Y33500D01*
X13950D01*
Y33770D01*
X14000Y33780D01*
X14013Y33748D01*
X14093Y33643D01*
X14198Y33563D01*
X14319Y33513D01*
X14450Y33496D01*
X14581Y33513D01*
X14702Y33563D01*
X14807Y33643D01*
X14887Y33748D01*
X14923Y33835D01*
X14977D01*
X15013Y33748D01*
X15093Y33643D01*
X15198Y33563D01*
X15319Y33513D01*
X15450Y33496D01*
X15581Y33513D01*
X15702Y33563D01*
X15807Y33643D01*
X15887Y33748D01*
X15923Y33835D01*
X15977D01*
X16013Y33748D01*
X16093Y33643D01*
X16198Y33563D01*
X16319Y33513D01*
X16450Y33496D01*
X16581Y33513D01*
X16702Y33563D01*
X16807Y33643D01*
X16887Y33748D01*
X16937Y33869D01*
X16954Y34000D01*
X16937Y34131D01*
X16887Y34252D01*
X16807Y34357D01*
X16702Y34437D01*
X16581Y34487D01*
X16450Y34504D01*
D02*
G37*
G36*
X11400Y34399D02*
X11297Y34385D01*
X11201Y34345D01*
X11118Y34282D01*
X11055Y34199D01*
X11015Y34103D01*
X11001Y34000D01*
X11015Y33897D01*
X11055Y33801D01*
X11118Y33718D01*
X11201Y33655D01*
X11297Y33615D01*
X11400Y33601D01*
X11503Y33615D01*
X11599Y33655D01*
X11682Y33718D01*
X11745Y33801D01*
X11785Y33897D01*
X11799Y34000D01*
X11785Y34103D01*
X11745Y34199D01*
X11682Y34282D01*
X11599Y34345D01*
X11503Y34385D01*
X11400Y34399D01*
D02*
G37*
G36*
X18450Y34504D02*
X18319Y34487D01*
X18198Y34437D01*
X18093Y34357D01*
X18013Y34252D01*
X17963Y34131D01*
X17946Y34000D01*
X17963Y33869D01*
X18013Y33748D01*
X18093Y33643D01*
X18198Y33563D01*
X18319Y33513D01*
X18450Y33496D01*
X18581Y33513D01*
X18702Y33563D01*
X18807Y33643D01*
X18887Y33748D01*
X18937Y33869D01*
X18954Y34000D01*
X18937Y34131D01*
X18887Y34252D01*
X18807Y34357D01*
X18702Y34437D01*
X18581Y34487D01*
X18450Y34504D01*
D02*
G37*
G36*
X22550Y34273D02*
X22446Y34260D01*
X22348Y34219D01*
X22265Y34155D01*
X22201Y34072D01*
X22160Y33974D01*
X22147Y33870D01*
X22160Y33766D01*
X22201Y33668D01*
X22265Y33585D01*
X22348Y33521D01*
X22446Y33480D01*
X22550Y33467D01*
X22654Y33480D01*
X22752Y33521D01*
X22835Y33585D01*
X22899Y33668D01*
X22940Y33766D01*
X22953Y33870D01*
X22940Y33974D01*
X22899Y34072D01*
X22835Y34155D01*
X22752Y34219D01*
X22654Y34260D01*
X22550Y34273D01*
D02*
G37*
G36*
Y33273D02*
X22446Y33260D01*
X22348Y33219D01*
X22265Y33155D01*
X22201Y33072D01*
X22160Y32974D01*
X22147Y32870D01*
X22160Y32766D01*
X22201Y32668D01*
X22265Y32585D01*
X22348Y32521D01*
X22446Y32480D01*
X22550Y32467D01*
X22654Y32480D01*
X22752Y32521D01*
X22835Y32585D01*
X22899Y32668D01*
X22940Y32766D01*
X22953Y32870D01*
X22940Y32974D01*
X22899Y33072D01*
X22835Y33155D01*
X22752Y33219D01*
X22654Y33260D01*
X22550Y33273D01*
D02*
G37*
G36*
X32550Y33233D02*
X32446Y33220D01*
X32348Y33179D01*
X32265Y33115D01*
X32201Y33032D01*
X32160Y32934D01*
X32147Y32830D01*
X32160Y32726D01*
X32201Y32628D01*
X32265Y32545D01*
X32348Y32481D01*
X32446Y32440D01*
X32550Y32427D01*
X32654Y32440D01*
X32752Y32481D01*
X32835Y32545D01*
X32899Y32628D01*
X32940Y32726D01*
X32953Y32830D01*
X32940Y32934D01*
X32899Y33032D01*
X32835Y33115D01*
X32752Y33179D01*
X32654Y33220D01*
X32550Y33233D01*
D02*
G37*
G36*
X16400Y32654D02*
X16283Y32638D01*
X16173Y32593D01*
X16079Y32521D01*
X16007Y32427D01*
X15962Y32317D01*
X15946Y32200D01*
X15962Y32083D01*
X16007Y31973D01*
X16079Y31879D01*
X16173Y31807D01*
X16283Y31762D01*
X16400Y31746D01*
X16517Y31762D01*
X16627Y31807D01*
X16721Y31879D01*
X16793Y31973D01*
X16838Y32083D01*
X16854Y32200D01*
X16838Y32317D01*
X16793Y32427D01*
X16721Y32521D01*
X16627Y32593D01*
X16517Y32638D01*
X16400Y32654D01*
D02*
G37*
G36*
X13795Y32547D02*
X12895D01*
Y31647D01*
X13795D01*
Y32547D01*
D02*
G37*
G36*
X22550Y32273D02*
X22446Y32260D01*
X22348Y32219D01*
X22265Y32155D01*
X22201Y32072D01*
X22160Y31974D01*
X22147Y31870D01*
X22160Y31766D01*
X22201Y31668D01*
X22265Y31585D01*
X22348Y31521D01*
X22446Y31480D01*
X22550Y31467D01*
X22654Y31480D01*
X22752Y31521D01*
X22835Y31585D01*
X22899Y31668D01*
X22940Y31766D01*
X22953Y31870D01*
X22940Y31974D01*
X22899Y32072D01*
X22835Y32155D01*
X22752Y32219D01*
X22654Y32260D01*
X22550Y32273D01*
D02*
G37*
G36*
X32550Y32233D02*
X32446Y32220D01*
X32348Y32179D01*
X32265Y32115D01*
X32201Y32032D01*
X32160Y31934D01*
X32147Y31830D01*
X32160Y31726D01*
X32201Y31628D01*
X32265Y31545D01*
X32348Y31481D01*
X32446Y31440D01*
X32550Y31427D01*
X32654Y31440D01*
X32752Y31481D01*
X32835Y31545D01*
X32899Y31628D01*
X32940Y31726D01*
X32953Y31830D01*
X32940Y31934D01*
X32899Y32032D01*
X32835Y32115D01*
X32752Y32179D01*
X32654Y32220D01*
X32550Y32233D01*
D02*
G37*
G36*
X16850Y31650D02*
X15950D01*
Y31426D01*
X13655D01*
X13572Y31490D01*
X13462Y31535D01*
X13345Y31551D01*
X13227Y31535D01*
X13118Y31490D01*
X13024Y31418D01*
X12952Y31324D01*
X12906Y31214D01*
X12891Y31097D01*
X12906Y30979D01*
X12952Y30870D01*
X13024Y30776D01*
X13118Y30704D01*
X13227Y30659D01*
X13345Y30643D01*
X13462Y30659D01*
X13572Y30704D01*
X13666Y30776D01*
X13738Y30870D01*
X13738Y30871D01*
X15950D01*
Y30750D01*
X16850D01*
Y31650D01*
D02*
G37*
G36*
X22550Y31273D02*
X22446Y31260D01*
X22348Y31219D01*
X22265Y31155D01*
X22201Y31072D01*
X22160Y30974D01*
X22147Y30870D01*
X22160Y30766D01*
X22201Y30668D01*
X22265Y30585D01*
X22348Y30521D01*
X22446Y30480D01*
X22550Y30467D01*
X22654Y30480D01*
X22752Y30521D01*
X22835Y30585D01*
X22899Y30668D01*
X22940Y30766D01*
X22953Y30870D01*
X22940Y30974D01*
X22899Y31072D01*
X22835Y31155D01*
X22752Y31219D01*
X22654Y31260D01*
X22550Y31273D01*
D02*
G37*
G36*
X32550Y31233D02*
X32446Y31220D01*
X32348Y31179D01*
X32265Y31115D01*
X32201Y31032D01*
X32160Y30934D01*
X32147Y30830D01*
X32160Y30726D01*
X32201Y30628D01*
X32265Y30545D01*
X32348Y30481D01*
X32446Y30440D01*
X32550Y30427D01*
X32654Y30440D01*
X32752Y30481D01*
X32835Y30545D01*
X32899Y30628D01*
X32940Y30726D01*
X32953Y30830D01*
X32940Y30934D01*
X32899Y31032D01*
X32835Y31115D01*
X32752Y31179D01*
X32654Y31220D01*
X32550Y31233D01*
D02*
G37*
G36*
X22550Y30273D02*
X22446Y30260D01*
X22348Y30219D01*
X22265Y30155D01*
X22201Y30072D01*
X22160Y29974D01*
X22147Y29870D01*
X22160Y29766D01*
X22201Y29668D01*
X22265Y29585D01*
X22348Y29521D01*
X22446Y29480D01*
X22550Y29467D01*
X22654Y29480D01*
X22752Y29521D01*
X22835Y29585D01*
X22899Y29668D01*
X22940Y29766D01*
X22953Y29870D01*
X22940Y29974D01*
X22899Y30072D01*
X22835Y30155D01*
X22752Y30219D01*
X22654Y30260D01*
X22550Y30273D01*
D02*
G37*
G36*
X32550Y30233D02*
X32446Y30220D01*
X32348Y30179D01*
X32265Y30115D01*
X32201Y30032D01*
X32160Y29934D01*
X32147Y29830D01*
X32160Y29726D01*
X32201Y29628D01*
X32265Y29545D01*
X32348Y29481D01*
X32446Y29440D01*
X32550Y29427D01*
X32654Y29440D01*
X32752Y29481D01*
X32835Y29545D01*
X32899Y29628D01*
X32940Y29726D01*
X32953Y29830D01*
X32940Y29934D01*
X32899Y30032D01*
X32835Y30115D01*
X32752Y30179D01*
X32654Y30220D01*
X32550Y30233D01*
D02*
G37*
G36*
X22550Y29273D02*
X22446Y29260D01*
X22348Y29219D01*
X22265Y29155D01*
X22201Y29072D01*
X22160Y28974D01*
X22147Y28870D01*
X22160Y28766D01*
X22201Y28668D01*
X22265Y28585D01*
X22348Y28521D01*
X22446Y28480D01*
X22550Y28467D01*
X22654Y28480D01*
X22752Y28521D01*
X22835Y28585D01*
X22899Y28668D01*
X22940Y28766D01*
X22953Y28870D01*
X22940Y28974D01*
X22899Y29072D01*
X22835Y29155D01*
X22752Y29219D01*
X22654Y29260D01*
X22550Y29273D01*
D02*
G37*
G36*
X32550Y29233D02*
X32446Y29220D01*
X32348Y29179D01*
X32265Y29115D01*
X32201Y29032D01*
X32160Y28934D01*
X32147Y28830D01*
X32160Y28726D01*
X32201Y28628D01*
X32265Y28545D01*
X32348Y28481D01*
X32446Y28440D01*
X32550Y28427D01*
X32654Y28440D01*
X32752Y28481D01*
X32835Y28545D01*
X32899Y28628D01*
X32940Y28726D01*
X32953Y28830D01*
X32940Y28934D01*
X32899Y29032D01*
X32835Y29115D01*
X32752Y29179D01*
X32654Y29220D01*
X32550Y29233D01*
D02*
G37*
G36*
X11400Y29099D02*
X11297Y29085D01*
X11201Y29045D01*
X11118Y28982D01*
X11055Y28899D01*
X11015Y28803D01*
X11001Y28700D01*
X11015Y28597D01*
X11055Y28501D01*
X11118Y28418D01*
X11201Y28355D01*
X11297Y28315D01*
X11400Y28301D01*
X11503Y28315D01*
X11599Y28355D01*
X11682Y28418D01*
X11745Y28501D01*
X11785Y28597D01*
X11799Y28700D01*
X11785Y28803D01*
X11745Y28899D01*
X11682Y28982D01*
X11599Y29045D01*
X11503Y29085D01*
X11400Y29099D01*
D02*
G37*
G36*
X22550Y28273D02*
X22446Y28260D01*
X22348Y28219D01*
X22265Y28155D01*
X22201Y28072D01*
X22160Y27974D01*
X22147Y27870D01*
X22160Y27766D01*
X22201Y27668D01*
X22265Y27585D01*
X22348Y27521D01*
X22446Y27480D01*
X22550Y27467D01*
X22654Y27480D01*
X22752Y27521D01*
X22835Y27585D01*
X22899Y27668D01*
X22940Y27766D01*
X22953Y27870D01*
X22940Y27974D01*
X22899Y28072D01*
X22835Y28155D01*
X22752Y28219D01*
X22654Y28260D01*
X22550Y28273D01*
D02*
G37*
G36*
X32550Y28233D02*
X32446Y28220D01*
X32348Y28179D01*
X32265Y28115D01*
X32201Y28032D01*
X32160Y27934D01*
X32147Y27830D01*
X32160Y27726D01*
X32201Y27628D01*
X32265Y27545D01*
X32348Y27481D01*
X32446Y27440D01*
X32550Y27427D01*
X32654Y27440D01*
X32752Y27481D01*
X32835Y27545D01*
X32899Y27628D01*
X32940Y27726D01*
X32953Y27830D01*
X32940Y27934D01*
X32899Y28032D01*
X32835Y28115D01*
X32752Y28179D01*
X32654Y28220D01*
X32550Y28233D01*
D02*
G37*
G36*
Y27233D02*
X32446Y27220D01*
X32348Y27179D01*
X32265Y27115D01*
X32201Y27032D01*
X32160Y26934D01*
X32147Y26830D01*
X32160Y26726D01*
X32201Y26628D01*
X32265Y26545D01*
X32348Y26481D01*
X32446Y26440D01*
X32550Y26427D01*
X32654Y26440D01*
X32752Y26481D01*
X32835Y26545D01*
X32899Y26628D01*
X32940Y26726D01*
X32953Y26830D01*
X32940Y26934D01*
X32899Y27032D01*
X32835Y27115D01*
X32752Y27179D01*
X32654Y27220D01*
X32550Y27233D01*
D02*
G37*
G36*
X22550Y26273D02*
X22446Y26260D01*
X22348Y26219D01*
X22265Y26155D01*
X22201Y26072D01*
X22160Y25974D01*
X22147Y25870D01*
X22160Y25766D01*
X22201Y25668D01*
X22265Y25585D01*
X22348Y25521D01*
X22446Y25480D01*
X22550Y25467D01*
X22654Y25480D01*
X22752Y25521D01*
X22835Y25585D01*
X22899Y25668D01*
X22940Y25766D01*
X22953Y25870D01*
X22940Y25974D01*
X22899Y26072D01*
X22835Y26155D01*
X22752Y26219D01*
X22654Y26260D01*
X22550Y26273D01*
D02*
G37*
G36*
X32550Y26233D02*
X32446Y26220D01*
X32348Y26179D01*
X32265Y26115D01*
X32201Y26032D01*
X32160Y25934D01*
X32147Y25830D01*
X32160Y25726D01*
X32201Y25628D01*
X32265Y25545D01*
X32348Y25481D01*
X32446Y25440D01*
X32550Y25427D01*
X32654Y25440D01*
X32752Y25481D01*
X32835Y25545D01*
X32899Y25628D01*
X32940Y25726D01*
X32953Y25830D01*
X32940Y25934D01*
X32899Y26032D01*
X32835Y26115D01*
X32752Y26179D01*
X32654Y26220D01*
X32550Y26233D01*
D02*
G37*
G36*
X15575Y25774D02*
X14825D01*
X14569Y25518D01*
Y25004D01*
X14825Y24748D01*
X15575D01*
X15832Y25004D01*
Y25518D01*
X15575Y25774D01*
D02*
G37*
G36*
X22550Y25273D02*
X22446Y25260D01*
X22348Y25219D01*
X22265Y25155D01*
X22201Y25072D01*
X22160Y24974D01*
X22147Y24870D01*
X22160Y24766D01*
X22201Y24668D01*
X22265Y24585D01*
X22348Y24521D01*
X22446Y24480D01*
X22550Y24467D01*
X22654Y24480D01*
X22752Y24521D01*
X22835Y24585D01*
X22899Y24668D01*
X22940Y24766D01*
X22953Y24870D01*
X22940Y24974D01*
X22899Y25072D01*
X22835Y25155D01*
X22752Y25219D01*
X22654Y25260D01*
X22550Y25273D01*
D02*
G37*
G36*
X32550Y25233D02*
X32446Y25220D01*
X32348Y25179D01*
X32265Y25115D01*
X32201Y25032D01*
X32160Y24934D01*
X32147Y24830D01*
X32160Y24726D01*
X32201Y24628D01*
X32265Y24545D01*
X32348Y24481D01*
X32446Y24440D01*
X32550Y24427D01*
X32654Y24440D01*
X32752Y24481D01*
X32835Y24545D01*
X32899Y24628D01*
X32940Y24726D01*
X32953Y24830D01*
X32940Y24934D01*
X32899Y25032D01*
X32835Y25115D01*
X32752Y25179D01*
X32654Y25220D01*
X32550Y25233D01*
D02*
G37*
G36*
X22550Y24273D02*
X22446Y24260D01*
X22348Y24219D01*
X22265Y24155D01*
X22201Y24072D01*
X22160Y23974D01*
X22147Y23870D01*
X22160Y23766D01*
X22201Y23668D01*
X22265Y23585D01*
X22348Y23521D01*
X22446Y23480D01*
X22550Y23467D01*
X22654Y23480D01*
X22752Y23521D01*
X22835Y23585D01*
X22899Y23668D01*
X22940Y23766D01*
X22953Y23870D01*
X22940Y23974D01*
X22899Y24072D01*
X22835Y24155D01*
X22752Y24219D01*
X22654Y24260D01*
X22550Y24273D01*
D02*
G37*
G36*
X32550Y24233D02*
X32446Y24220D01*
X32348Y24179D01*
X32265Y24115D01*
X32201Y24032D01*
X32160Y23934D01*
X32147Y23830D01*
X32160Y23726D01*
X32201Y23628D01*
X32265Y23545D01*
X32348Y23481D01*
X32446Y23440D01*
X32550Y23427D01*
X32654Y23440D01*
X32752Y23481D01*
X32835Y23545D01*
X32899Y23628D01*
X32940Y23726D01*
X32953Y23830D01*
X32940Y23934D01*
X32899Y24032D01*
X32835Y24115D01*
X32752Y24179D01*
X32654Y24220D01*
X32550Y24233D01*
D02*
G37*
G36*
X15575Y23963D02*
X14825D01*
X14569Y23707D01*
Y23193D01*
X14825Y22937D01*
X15575D01*
X15832Y23193D01*
Y23707D01*
X15575Y23963D01*
D02*
G37*
G36*
X22550Y23273D02*
X22446Y23260D01*
X22348Y23219D01*
X22265Y23155D01*
X22201Y23072D01*
X22160Y22974D01*
X22147Y22870D01*
X22160Y22766D01*
X22201Y22668D01*
X22265Y22585D01*
X22348Y22521D01*
X22446Y22480D01*
X22550Y22467D01*
X22654Y22480D01*
X22752Y22521D01*
X22835Y22585D01*
X22899Y22668D01*
X22940Y22766D01*
X22953Y22870D01*
X22940Y22974D01*
X22899Y23072D01*
X22835Y23155D01*
X22752Y23219D01*
X22654Y23260D01*
X22550Y23273D01*
D02*
G37*
G36*
X32550Y23233D02*
X32446Y23220D01*
X32348Y23179D01*
X32265Y23115D01*
X32201Y23032D01*
X32160Y22934D01*
X32147Y22830D01*
X32160Y22726D01*
X32201Y22628D01*
X32265Y22545D01*
X32348Y22481D01*
X32446Y22440D01*
X32550Y22427D01*
X32654Y22440D01*
X32752Y22481D01*
X32835Y22545D01*
X32899Y22628D01*
X32940Y22726D01*
X32953Y22830D01*
X32940Y22934D01*
X32899Y23032D01*
X32835Y23115D01*
X32752Y23179D01*
X32654Y23220D01*
X32550Y23233D01*
D02*
G37*
G36*
Y22233D02*
X32446Y22220D01*
X32348Y22179D01*
X32265Y22115D01*
X32201Y22032D01*
X32160Y21934D01*
X32147Y21830D01*
X32160Y21726D01*
X32201Y21628D01*
X32265Y21545D01*
X32348Y21481D01*
X32446Y21440D01*
X32550Y21427D01*
X32654Y21440D01*
X32752Y21481D01*
X32835Y21545D01*
X32899Y21628D01*
X32940Y21726D01*
X32953Y21830D01*
X32940Y21934D01*
X32899Y22032D01*
X32835Y22115D01*
X32752Y22179D01*
X32654Y22220D01*
X32550Y22233D01*
D02*
G37*
G36*
X37350Y21549D02*
X37247Y21535D01*
X37151Y21495D01*
X37068Y21432D01*
X37005Y21349D01*
X36965Y21253D01*
X36951Y21150D01*
X36965Y21047D01*
X37005Y20951D01*
X37068Y20868D01*
X37151Y20805D01*
X37247Y20765D01*
X37350Y20751D01*
X37453Y20765D01*
X37549Y20805D01*
X37632Y20868D01*
X37695Y20951D01*
X37735Y21047D01*
X37749Y21150D01*
X37735Y21253D01*
X37695Y21349D01*
X37632Y21432D01*
X37549Y21495D01*
X37453Y21535D01*
X37350Y21549D01*
D02*
G37*
G36*
X36350D02*
X36247Y21535D01*
X36151Y21495D01*
X36068Y21432D01*
X36005Y21349D01*
X35965Y21253D01*
X35951Y21150D01*
X35965Y21047D01*
X36005Y20951D01*
X36068Y20868D01*
X36151Y20805D01*
X36247Y20765D01*
X36350Y20751D01*
X36453Y20765D01*
X36549Y20805D01*
X36632Y20868D01*
X36695Y20951D01*
X36735Y21047D01*
X36749Y21150D01*
X36735Y21253D01*
X36695Y21349D01*
X36632Y21432D01*
X36549Y21495D01*
X36453Y21535D01*
X36350Y21549D01*
D02*
G37*
G36*
X12650Y21338D02*
X12547Y21324D01*
X12451Y21285D01*
X12368Y21221D01*
X12305Y21139D01*
X12265Y21043D01*
X12251Y20939D01*
X12265Y20836D01*
X12305Y20740D01*
X12368Y20657D01*
X12451Y20594D01*
X12547Y20554D01*
X12650Y20541D01*
X12753Y20554D01*
X12849Y20594D01*
X12932Y20657D01*
X12995Y20740D01*
X13035Y20836D01*
X13049Y20939D01*
X13035Y21043D01*
X12995Y21139D01*
X12932Y21221D01*
X12849Y21285D01*
X12753Y21324D01*
X12650Y21338D01*
D02*
G37*
%LPD*%
G36*
X32166Y48134D02*
X32162Y48100D01*
X32176Y47997D01*
X32215Y47901D01*
X32279Y47818D01*
X32306Y47797D01*
Y47403D01*
X32279Y47382D01*
X32215Y47299D01*
X32176Y47203D01*
X32162Y47100D01*
X32176Y46997D01*
X32215Y46901D01*
X32279Y46818D01*
X32306Y46797D01*
Y46403D01*
X32279Y46382D01*
X32215Y46299D01*
X32176Y46203D01*
X32162Y46100D01*
X32176Y45997D01*
X32215Y45901D01*
X32279Y45818D01*
X32306Y45797D01*
Y45403D01*
X32279Y45382D01*
X32215Y45299D01*
X32176Y45203D01*
X32162Y45100D01*
X32176Y44997D01*
X32215Y44901D01*
X32279Y44818D01*
X32306Y44797D01*
Y44495D01*
X32165D01*
Y43921D01*
X32119Y43902D01*
X31816Y44206D01*
Y45100D01*
Y46100D01*
Y47100D01*
Y48100D01*
X31796Y48198D01*
X31741Y48280D01*
X31658Y48335D01*
X31634Y48340D01*
X31639Y48390D01*
X31910D01*
X32166Y48134D01*
D02*
G37*
G36*
X35186Y48358D02*
X35208Y48303D01*
X35205Y48299D01*
X35165Y48203D01*
X35151Y48100D01*
X35165Y47997D01*
X35205Y47901D01*
X35268Y47818D01*
X35295Y47797D01*
Y47403D01*
X35268Y47382D01*
X35205Y47299D01*
X35165Y47203D01*
X35151Y47100D01*
X35165Y46997D01*
X35205Y46901D01*
X35268Y46818D01*
X35295Y46797D01*
Y46403D01*
X35268Y46382D01*
X35205Y46299D01*
X35165Y46203D01*
X35151Y46100D01*
X35165Y45997D01*
X35205Y45901D01*
X35268Y45818D01*
X35295Y45797D01*
Y45403D01*
X35268Y45382D01*
X35205Y45299D01*
X35165Y45203D01*
X35151Y45100D01*
X35165Y44997D01*
X35205Y44901D01*
X35268Y44818D01*
X35295Y44797D01*
Y44495D01*
X35155D01*
Y44065D01*
X35130Y44041D01*
X35075Y43958D01*
X35056Y43861D01*
Y38750D01*
X34811D01*
Y37750D01*
X35081D01*
X35090Y37700D01*
X35058Y37687D01*
X34954Y37607D01*
X34874Y37502D01*
X34824Y37381D01*
X34806Y37250D01*
X34824Y37119D01*
X34874Y36998D01*
X34954Y36893D01*
X35058Y36813D01*
X35146Y36777D01*
Y36723D01*
X35058Y36687D01*
X34954Y36607D01*
X34874Y36502D01*
X34824Y36381D01*
X34806Y36250D01*
X34824Y36119D01*
X34874Y35998D01*
X34954Y35893D01*
X35058Y35813D01*
X35146Y35777D01*
Y35723D01*
X35058Y35687D01*
X34954Y35607D01*
X34874Y35502D01*
X34824Y35381D01*
X34806Y35250D01*
X34824Y35119D01*
X34874Y34998D01*
X34954Y34893D01*
X35058Y34813D01*
X35146Y34777D01*
Y34723D01*
X35058Y34687D01*
X34954Y34607D01*
X34874Y34502D01*
X34824Y34381D01*
X34806Y34250D01*
X34824Y34119D01*
X34874Y33998D01*
X34954Y33893D01*
X35058Y33813D01*
X35146Y33777D01*
Y33723D01*
X35058Y33687D01*
X34954Y33607D01*
X34874Y33502D01*
X34824Y33381D01*
X34806Y33250D01*
X34824Y33119D01*
X34874Y32998D01*
X34954Y32893D01*
X35058Y32813D01*
X35146Y32777D01*
Y32723D01*
X35058Y32687D01*
X34954Y32607D01*
X34874Y32502D01*
X34824Y32381D01*
X34806Y32250D01*
X34816Y32176D01*
X34769Y32152D01*
X33001Y33920D01*
X33280Y34200D01*
X33335Y34282D01*
X33355Y34380D01*
Y39320D01*
X33335Y39418D01*
X33280Y39500D01*
X32730Y40050D01*
X31816Y40965D01*
Y43419D01*
X31862Y43438D01*
X31926Y43374D01*
X32008Y43319D01*
X32106Y43300D01*
X33044D01*
X33142Y43319D01*
X33224Y43374D01*
X33695Y43845D01*
X34550D01*
X34648Y43864D01*
X34730Y43920D01*
X34785Y44002D01*
X34805Y44100D01*
Y45100D01*
Y46100D01*
Y47100D01*
Y47994D01*
X35171Y48360D01*
X35186Y48358D01*
D02*
G37*
G36*
X37950Y37750D02*
X38220D01*
X38230Y37700D01*
X38198Y37687D01*
X38093Y37607D01*
X38013Y37502D01*
X37963Y37381D01*
X37946Y37250D01*
X37963Y37119D01*
X38013Y36998D01*
X38093Y36893D01*
X38198Y36813D01*
X38285Y36777D01*
Y36723D01*
X38198Y36687D01*
X38093Y36607D01*
X38013Y36502D01*
X37963Y36381D01*
X37946Y36250D01*
X37963Y36119D01*
X38013Y35998D01*
X38093Y35893D01*
X38198Y35813D01*
X38285Y35777D01*
Y35723D01*
X38198Y35687D01*
X38093Y35607D01*
X38013Y35502D01*
X37963Y35381D01*
X37946Y35250D01*
X37963Y35119D01*
X38013Y34998D01*
X38093Y34893D01*
X38198Y34813D01*
X38285Y34777D01*
Y34723D01*
X38198Y34687D01*
X38093Y34607D01*
X38015Y34505D01*
X35991D01*
X35972Y34551D01*
X36141Y34720D01*
X36196Y34802D01*
X36216Y34900D01*
Y36600D01*
X36196Y36698D01*
X36141Y36780D01*
X35798Y37123D01*
X35815Y37250D01*
X35798Y37381D01*
X35747Y37502D01*
X35667Y37607D01*
X35563Y37687D01*
X35531Y37700D01*
X35541Y37750D01*
X35811D01*
Y37995D01*
X37950D01*
Y37750D01*
D02*
G37*
G36*
X17195Y30137D02*
Y29456D01*
X16942Y29202D01*
X16895Y29226D01*
X16904Y29300D01*
X16887Y29431D01*
X16837Y29552D01*
X16757Y29657D01*
X16652Y29737D01*
X16531Y29787D01*
X16400Y29804D01*
X16269Y29787D01*
X16148Y29737D01*
X16043Y29657D01*
X15963Y29552D01*
X15927Y29465D01*
X15873D01*
X15837Y29552D01*
X15757Y29657D01*
X15652Y29737D01*
X15531Y29787D01*
X15400Y29804D01*
X15269Y29787D01*
X15148Y29737D01*
X15043Y29657D01*
X14963Y29552D01*
X14927Y29465D01*
X14873D01*
X14837Y29552D01*
X14757Y29657D01*
X14652Y29737D01*
X14531Y29787D01*
X14400Y29804D01*
X14269Y29787D01*
X14148Y29737D01*
X14043Y29657D01*
X13963Y29552D01*
X13950Y29520D01*
X13900Y29530D01*
Y29800D01*
X13008D01*
X12988Y29846D01*
X13065Y29923D01*
X16587D01*
X16623Y29894D01*
X16709Y29859D01*
X16800Y29847D01*
X16891Y29859D01*
X16977Y29894D01*
X17050Y29950D01*
X17106Y30023D01*
X17141Y30109D01*
X17145Y30140D01*
X17195Y30137D01*
D02*
G37*
D10*
X10050Y49850D02*
X40050D01*
X10050Y19800D02*
Y49850D01*
X10050Y19800D02*
X40050D01*
X40050Y49850D02*
X40050Y19850D01*
D33*
X14400Y46800D02*
X15750Y48150D01*
X20428D02*
X20864Y47714D01*
X15750Y48150D02*
X20428D01*
X11050Y26850D02*
X12215Y28015D01*
X11050Y23850D02*
Y26850D01*
X11942Y23050D02*
X12050D01*
X11684Y23216D02*
X11776D01*
X11942Y23050D01*
X11050Y23850D02*
X11684Y23216D01*
X35150Y22801D02*
Y30954D01*
X35311Y31115D01*
Y31250D01*
X35350Y21150D02*
Y22601D01*
X35150Y22801D02*
X35350Y22601D01*
X12900Y25550D02*
X13300Y25150D01*
X17450Y29350D02*
Y30407D01*
X17400Y29300D02*
X17450Y29350D01*
X17425Y30432D02*
Y33975D01*
Y30432D02*
X17450Y30407D01*
X13300Y23421D02*
Y25150D01*
X14400Y44374D02*
Y46800D01*
X20864Y47714D02*
X25450D01*
X17400Y29300D02*
X19830Y26870D01*
X22550D01*
X17425Y33975D02*
X17450Y34000D01*
X17425Y34025D02*
X17450Y34000D01*
X17425Y34025D02*
Y38725D01*
X17400Y38750D02*
X17425Y38725D01*
X17400Y38750D02*
Y44374D01*
X38205Y21005D02*
X38350Y21150D01*
X38205Y20430D02*
Y21005D01*
X37974Y20200D02*
X38205Y20430D01*
X38350Y21150D02*
X38924D01*
X39450Y21676D01*
Y37250D01*
X38450Y38250D02*
X39450Y37250D01*
X35311Y38250D02*
X38450D01*
X35311D02*
Y43861D01*
X35550Y44100D01*
X38678Y42800D02*
Y47025D01*
X37300Y42800D02*
Y47025D01*
X37058Y48645D02*
X38678Y47025D01*
X35095Y48645D02*
X37058D01*
X34550Y48100D02*
X35095Y48645D01*
X37263Y47063D02*
X37300Y47025D01*
X35587Y47063D02*
X37263D01*
X35550Y47100D02*
X35587Y47063D01*
X35550Y47100D02*
Y48100D01*
Y46100D02*
Y47100D01*
Y45100D02*
Y46100D01*
Y44100D02*
Y45100D01*
X34550Y47100D02*
Y48100D01*
Y46100D02*
Y47100D01*
Y45100D02*
Y46100D01*
Y44100D02*
Y45100D01*
X33589Y44100D02*
X34550D01*
X33044Y43555D02*
X33589Y44100D01*
X32106Y43555D02*
X33044D01*
X31561Y44100D02*
X32106Y43555D01*
X30961Y48645D02*
X32015D01*
X29000Y47714D02*
X30030D01*
X30961Y48645D01*
X32015D02*
X32561Y48100D01*
X25450Y46336D02*
X29000D01*
X25450Y47714D02*
X29000D01*
Y46336D02*
X31246D01*
X31482Y46100D01*
X31561D01*
X17400Y44374D02*
X19362Y46336D01*
X25450D01*
X32561Y47100D02*
Y48100D01*
Y46100D02*
Y47100D01*
Y45100D02*
Y46100D01*
Y44100D02*
Y45100D01*
X31561Y47100D02*
Y48100D01*
Y46100D02*
Y47100D01*
Y45100D02*
Y46100D01*
Y44100D02*
Y45100D01*
Y40859D02*
Y44100D01*
Y40859D02*
X32550Y39870D01*
Y33830D02*
X33100Y34380D01*
Y39320D01*
X32550Y39870D02*
X33100Y39320D01*
X32788Y33773D02*
X35311Y31250D01*
X32607Y33773D02*
X32788D01*
X32550Y33830D02*
X32607Y33773D01*
X35311Y31250D02*
X38450D01*
X24180Y20200D02*
X37974D01*
X22550Y21830D02*
X24180Y20200D01*
X15200Y21639D02*
X22278D01*
X22469Y21830D01*
X22550D01*
X12215Y28015D02*
X16115D01*
X17400Y29300D01*
X15082Y21639D02*
X15200D01*
X13300Y23421D02*
X15082Y21639D01*
X11650Y20939D02*
Y22593D01*
X12050Y22993D01*
Y23050D01*
X35311Y34250D02*
X35961Y34900D01*
X35311Y37250D02*
X35961Y36600D01*
Y34900D02*
Y36600D01*
X35311Y34250D02*
X38450D01*
D34*
X13345Y31097D02*
X13396Y31148D01*
X16348D01*
X16400Y31200D01*
X12950Y30200D02*
X16800D01*
X12450Y29700D02*
X12950Y30200D01*
X11400Y29700D02*
X12450D01*
X11400Y35000D02*
X16650D01*
X13370Y35825D02*
X16375D01*
X13345Y35850D02*
X13370Y35825D01*
X16375D02*
X16400Y35800D01*
X11400Y39842D02*
X16800D01*
X13400Y41050D02*
X16400D01*
X18400Y38750D02*
Y40600D01*
D35*
X16400Y32200D02*
D03*
X35750Y23050D02*
D03*
X13400Y46450D02*
D03*
X16400Y47500D02*
D03*
X13400Y41050D02*
D03*
X16400Y42050D02*
D03*
Y35800D02*
D03*
X13345Y31097D02*
D03*
Y36850D02*
D03*
X12050Y23050D02*
D03*
D36*
X16400Y31200D02*
D03*
X35750Y24050D02*
D03*
X13400Y47450D02*
D03*
X16400Y46500D02*
D03*
X13400Y42050D02*
D03*
X16400Y41050D02*
D03*
Y36800D02*
D03*
X13345Y32097D02*
D03*
Y35850D02*
D03*
X12050Y24050D02*
D03*
D37*
X38350Y21150D02*
D03*
X11650Y20939D02*
D03*
D38*
X37350Y21150D02*
D03*
X36350D02*
D03*
X35350D02*
D03*
X12650Y20939D02*
D03*
X34550Y48100D02*
D03*
X35550D02*
D03*
X34550Y47100D02*
D03*
X35550D02*
D03*
X34550Y46100D02*
D03*
X35550D02*
D03*
X34550Y45100D02*
D03*
X35550D02*
D03*
X34550Y44100D02*
D03*
X11400Y28700D02*
D03*
Y34000D02*
D03*
Y38842D02*
D03*
Y44467D02*
D03*
X31561Y48100D02*
D03*
X32561D02*
D03*
X31561Y47100D02*
D03*
X32561D02*
D03*
X31561Y46100D02*
D03*
X32561D02*
D03*
X31561Y45100D02*
D03*
X32561D02*
D03*
X31561Y44100D02*
D03*
D39*
X35311Y38250D02*
D03*
X38450D02*
D03*
D40*
X35311Y31250D02*
D03*
Y32250D02*
D03*
Y33250D02*
D03*
Y34250D02*
D03*
Y35250D02*
D03*
Y36250D02*
D03*
Y37250D02*
D03*
X38450D02*
D03*
Y36250D02*
D03*
Y35250D02*
D03*
Y34250D02*
D03*
Y33250D02*
D03*
Y32250D02*
D03*
Y31250D02*
D03*
X14400Y44374D02*
D03*
X16400D02*
D03*
X17400D02*
D03*
X15400D02*
D03*
X18400D02*
D03*
Y29300D02*
D03*
X15400D02*
D03*
X17400D02*
D03*
X16400D02*
D03*
X14400D02*
D03*
Y38750D02*
D03*
X16400D02*
D03*
X17400D02*
D03*
X15400D02*
D03*
X18400D02*
D03*
X18450Y34000D02*
D03*
X15450D02*
D03*
X17450D02*
D03*
X16450D02*
D03*
X14450D02*
D03*
D41*
X13400Y44374D02*
D03*
Y29300D02*
D03*
Y38750D02*
D03*
X13450Y34000D02*
D03*
D42*
X37300Y47025D02*
D03*
Y42800D02*
D03*
D43*
X38678Y47025D02*
D03*
Y42800D02*
D03*
X25450Y46336D02*
D03*
X29000D02*
D03*
D44*
X35550Y44100D02*
D03*
X11400Y29700D02*
D03*
Y35000D02*
D03*
Y39842D02*
D03*
Y45467D02*
D03*
X32561Y44100D02*
D03*
D45*
X25450Y47714D02*
D03*
X29000D02*
D03*
D46*
X15200Y21639D02*
D03*
Y23450D02*
D03*
Y25261D02*
D03*
D47*
X32550Y39870D02*
D03*
Y38830D02*
D03*
Y37830D02*
D03*
Y36830D02*
D03*
Y35830D02*
D03*
Y34830D02*
D03*
Y33830D02*
D03*
Y32830D02*
D03*
Y31830D02*
D03*
Y30830D02*
D03*
Y29830D02*
D03*
Y28830D02*
D03*
Y27830D02*
D03*
Y26830D02*
D03*
Y25830D02*
D03*
Y24830D02*
D03*
Y23830D02*
D03*
Y22830D02*
D03*
Y21830D02*
D03*
X22550D02*
D03*
Y22870D02*
D03*
Y23870D02*
D03*
Y24870D02*
D03*
Y25870D02*
D03*
Y26870D02*
D03*
Y27870D02*
D03*
Y28870D02*
D03*
Y29870D02*
D03*
Y30870D02*
D03*
Y31870D02*
D03*
Y32870D02*
D03*
Y33870D02*
D03*
Y34870D02*
D03*
Y35870D02*
D03*
Y36870D02*
D03*
Y37870D02*
D03*
Y38870D02*
D03*
D48*
Y39870D02*
D03*
D49*
X12900Y25550D02*
D03*
X16800Y30200D02*
D03*
X16650Y35000D02*
D03*
X16800Y39800D02*
D03*
X18400Y40600D02*
D03*
M02*
