G04*
G04 #@! TF.GenerationSoftware,Altium Limited,Altium Designer,20.2.6 (244)*
G04*
G04 Layer_Color=2752767*
%FSLAX24Y24*%
%MOIN*%
G70*
G04*
G04 #@! TF.SameCoordinates,67DAE9A7-D567-40AA-987E-AE02A1C53A3D*
G04*
G04*
G04 #@! TF.FilePolarity,Positive*
G04*
G01*
G75*
%ADD10C,0.0100*%
%ADD50C,0.0020*%
%ADD51C,0.0027*%
D10*
X10050Y49850D02*
X40050D01*
X10050Y19800D02*
Y49850D01*
X10050Y19800D02*
X40050D01*
X40050Y49850D02*
X40050Y19850D01*
D50*
X16320Y32120D02*
Y32280D01*
X16480D01*
Y32120D01*
X16320D01*
Y31120D02*
Y31280D01*
X16480D01*
Y31120D01*
X16320D01*
X35670Y22970D02*
Y23130D01*
X35830D01*
Y22970D01*
X35670D01*
Y23970D02*
Y24130D01*
X35830D01*
Y23970D01*
X35670D01*
X13320Y47370D02*
Y47530D01*
X13480D01*
Y47370D01*
X13320D01*
Y46370D02*
Y46530D01*
X13480D01*
Y46370D01*
X13320D01*
X16320Y47420D02*
Y47580D01*
X16480D01*
Y47420D01*
X16320D01*
Y46420D02*
Y46580D01*
X16480D01*
Y46420D01*
X16320D01*
X13320Y41970D02*
Y42130D01*
X13480D01*
Y41970D01*
X13320D01*
Y40970D02*
Y41130D01*
X13480D01*
Y40970D01*
X13320D01*
X16320Y41970D02*
Y42130D01*
X16480D01*
Y41970D01*
X16320D01*
Y40970D02*
Y41130D01*
X16480D01*
Y40970D01*
X16320D01*
Y36720D02*
Y36880D01*
X16480D01*
Y36720D01*
X16320D01*
Y35720D02*
Y35880D01*
X16480D01*
Y35720D01*
X16320D01*
X13265Y31017D02*
Y31177D01*
X13425D01*
Y31017D01*
X13265D01*
Y32017D02*
Y32177D01*
X13425D01*
Y32017D01*
X13265D01*
Y35770D02*
Y35930D01*
X13425D01*
Y35770D01*
X13265D01*
Y36770D02*
Y36930D01*
X13425D01*
Y36770D01*
X13265D01*
X11970Y23970D02*
Y24130D01*
X12130D01*
Y23970D01*
X11970D01*
Y22970D02*
Y23130D01*
X12130D01*
Y22970D01*
X11970D01*
X35231Y38170D02*
Y38330D01*
X35391D01*
Y38170D01*
X35231D01*
Y31170D02*
Y31330D01*
X35391D01*
Y31170D01*
X35231D01*
Y32170D02*
Y32330D01*
X35391D01*
Y32170D01*
X35231D01*
Y33170D02*
Y33330D01*
X35391D01*
Y33170D01*
X35231D01*
Y34170D02*
Y34330D01*
X35391D01*
Y34170D01*
X35231D01*
Y35170D02*
Y35330D01*
X35391D01*
Y35170D01*
X35231D01*
Y36170D02*
Y36330D01*
X35391D01*
Y36170D01*
X35231D01*
Y37170D02*
Y37330D01*
X35391D01*
Y37170D01*
X35231D01*
X38370D02*
Y37330D01*
X38530D01*
Y37170D01*
X38370D01*
Y36170D02*
Y36330D01*
X38530D01*
Y36170D01*
X38370D01*
Y35170D02*
Y35330D01*
X38530D01*
Y35170D01*
X38370D01*
Y34170D02*
Y34330D01*
X38530D01*
Y34170D01*
X38370D01*
Y33170D02*
Y33330D01*
X38530D01*
Y33170D01*
X38370D01*
Y32170D02*
Y32330D01*
X38530D01*
Y32170D01*
X38370D01*
Y31170D02*
Y31330D01*
X38530D01*
Y31170D01*
X38370D01*
Y38170D02*
Y38330D01*
X38530D01*
Y38170D01*
X38370D01*
X14320Y44294D02*
Y44454D01*
X14480D01*
Y44294D01*
X14320D01*
X13320D02*
Y44454D01*
X13480D01*
Y44294D01*
X13320D01*
X16320D02*
Y44454D01*
X16480D01*
Y44294D01*
X16320D01*
X17320D02*
Y44454D01*
X17480D01*
Y44294D01*
X17320D01*
X15320D02*
Y44454D01*
X15480D01*
Y44294D01*
X15320D01*
X18320D02*
Y44454D01*
X18480D01*
Y44294D01*
X18320D01*
Y29220D02*
Y29380D01*
X18480D01*
Y29220D01*
X18320D01*
X15320D02*
Y29380D01*
X15480D01*
Y29220D01*
X15320D01*
X17320D02*
Y29380D01*
X17480D01*
Y29220D01*
X17320D01*
X16320D02*
Y29380D01*
X16480D01*
Y29220D01*
X16320D01*
X13320D02*
Y29380D01*
X13480D01*
Y29220D01*
X13320D01*
X14320D02*
Y29380D01*
X14480D01*
Y29220D01*
X14320D01*
Y38670D02*
Y38830D01*
X14480D01*
Y38670D01*
X14320D01*
X13320D02*
Y38830D01*
X13480D01*
Y38670D01*
X13320D01*
X16320D02*
Y38830D01*
X16480D01*
Y38670D01*
X16320D01*
X17320D02*
Y38830D01*
X17480D01*
Y38670D01*
X17320D01*
X15320D02*
Y38830D01*
X15480D01*
Y38670D01*
X15320D01*
X18320D02*
Y38830D01*
X18480D01*
Y38670D01*
X18320D01*
X18370Y33920D02*
Y34080D01*
X18530D01*
Y33920D01*
X18370D01*
X15370D02*
Y34080D01*
X15530D01*
Y33920D01*
X15370D01*
X17370D02*
Y34080D01*
X17530D01*
Y33920D01*
X17370D01*
X16370D02*
Y34080D01*
X16530D01*
Y33920D01*
X16370D01*
X13370D02*
Y34080D01*
X13530D01*
Y33920D01*
X13370D01*
X14370D02*
Y34080D01*
X14530D01*
Y33920D01*
X14370D01*
X37300Y46945D02*
X37220Y47105D01*
X37380D01*
X37300Y46945D01*
X38678D02*
X38598Y47105D01*
X38758D01*
X38678Y46945D01*
X37300Y42720D02*
X37220Y42880D01*
X37380D01*
X37300Y42720D01*
X38678D02*
X38598Y42880D01*
X38758D01*
X38678Y42720D01*
X25450Y47634D02*
X25370Y47794D01*
X25530D01*
X25450Y47634D01*
Y46256D02*
X25370Y46416D01*
X25530D01*
X25450Y46256D01*
X29000Y47634D02*
X28920Y47794D01*
X29080D01*
X29000Y47634D01*
Y46256D02*
X28920Y46416D01*
X29080D01*
X29000Y46256D01*
X15200Y21559D02*
X15240Y21599D01*
X15280D01*
X15240Y21639D01*
X15280Y21679D01*
X15240D01*
X15200Y21719D01*
X15160Y21679D01*
X15120D01*
X15160Y21639D01*
X15120Y21599D01*
X15160D01*
X15200Y21559D01*
Y23370D02*
X15240Y23410D01*
X15280D01*
X15240Y23450D01*
X15280Y23490D01*
X15240D01*
X15200Y23530D01*
X15160Y23490D01*
X15120D01*
X15160Y23450D01*
X15120Y23410D01*
X15160D01*
X15200Y23370D01*
Y25181D02*
X15240Y25221D01*
X15280D01*
X15240Y25261D01*
X15280Y25301D01*
X15240D01*
X15200Y25341D01*
X15160Y25301D01*
X15120D01*
X15160Y25261D01*
X15120Y25221D01*
X15160D01*
X15200Y25181D01*
X32470Y39790D02*
Y39950D01*
X32630D01*
Y39790D01*
X32470D01*
Y38750D02*
Y38910D01*
X32630D01*
Y38750D01*
X32470D01*
Y37750D02*
Y37910D01*
X32630D01*
Y37750D01*
X32470D01*
Y36750D02*
Y36910D01*
X32630D01*
Y36750D01*
X32470D01*
Y35750D02*
Y35910D01*
X32630D01*
Y35750D01*
X32470D01*
Y34750D02*
Y34910D01*
X32630D01*
Y34750D01*
X32470D01*
Y33750D02*
Y33910D01*
X32630D01*
Y33750D01*
X32470D01*
Y32750D02*
Y32910D01*
X32630D01*
Y32750D01*
X32470D01*
Y31750D02*
Y31910D01*
X32630D01*
Y31750D01*
X32470D01*
Y30750D02*
Y30910D01*
X32630D01*
Y30750D01*
X32470D01*
Y29750D02*
Y29910D01*
X32630D01*
Y29750D01*
X32470D01*
Y28750D02*
Y28910D01*
X32630D01*
Y28750D01*
X32470D01*
Y27750D02*
Y27910D01*
X32630D01*
Y27750D01*
X32470D01*
Y26750D02*
Y26910D01*
X32630D01*
Y26750D01*
X32470D01*
Y25750D02*
Y25910D01*
X32630D01*
Y25750D01*
X32470D01*
Y24750D02*
Y24910D01*
X32630D01*
Y24750D01*
X32470D01*
Y23750D02*
Y23910D01*
X32630D01*
Y23750D01*
X32470D01*
Y22750D02*
Y22910D01*
X32630D01*
Y22750D01*
X32470D01*
Y21750D02*
Y21910D01*
X32630D01*
Y21750D01*
X32470D01*
X22470D02*
Y21910D01*
X22630D01*
Y21750D01*
X22470D01*
Y22790D02*
Y22950D01*
X22630D01*
Y22790D01*
X22470D01*
Y23790D02*
Y23950D01*
X22630D01*
Y23790D01*
X22470D01*
Y24790D02*
Y24950D01*
X22630D01*
Y24790D01*
X22470D01*
Y25790D02*
Y25950D01*
X22630D01*
Y25790D01*
X22470D01*
Y26790D02*
Y26950D01*
X22630D01*
Y26790D01*
X22470D01*
Y27790D02*
Y27950D01*
X22630D01*
Y27790D01*
X22470D01*
Y28790D02*
Y28950D01*
X22630D01*
Y28790D01*
X22470D01*
Y29790D02*
Y29950D01*
X22630D01*
Y29790D01*
X22470D01*
Y30790D02*
Y30950D01*
X22630D01*
Y30790D01*
X22470D01*
Y31790D02*
Y31950D01*
X22630D01*
Y31790D01*
X22470D01*
Y32790D02*
Y32950D01*
X22630D01*
Y32790D01*
X22470D01*
Y33790D02*
Y33950D01*
X22630D01*
Y33790D01*
X22470D01*
Y34790D02*
Y34950D01*
X22630D01*
Y34790D01*
X22470D01*
Y35790D02*
Y35950D01*
X22630D01*
Y35790D01*
X22470D01*
Y36790D02*
Y36950D01*
X22630D01*
Y36790D01*
X22470D01*
Y37790D02*
Y37950D01*
X22630D01*
Y37790D01*
X22470D01*
Y38790D02*
Y38950D01*
X22630D01*
Y38790D01*
X22470D01*
Y39790D02*
Y39950D01*
X22630D01*
Y39790D01*
X22470D01*
X12820Y25470D02*
X12860Y25550D01*
X12820Y25630D01*
X12900Y25590D01*
X12980Y25630D01*
X12940Y25550D01*
X12980Y25470D01*
X12900Y25510D01*
X12820Y25470D01*
X16720Y30120D02*
X16760Y30200D01*
X16720Y30280D01*
X16800Y30240D01*
X16880Y30280D01*
X16840Y30200D01*
X16880Y30120D01*
X16800Y30160D01*
X16720Y30120D01*
X16570Y34920D02*
X16610Y35000D01*
X16570Y35080D01*
X16650Y35040D01*
X16730Y35080D01*
X16690Y35000D01*
X16730Y34920D01*
X16650Y34960D01*
X16570Y34920D01*
X16720Y39720D02*
X16760Y39800D01*
X16720Y39880D01*
X16800Y39840D01*
X16880Y39880D01*
X16840Y39800D01*
X16880Y39720D01*
X16800Y39760D01*
X16720Y39720D01*
X18320Y40520D02*
X18360Y40600D01*
X18320Y40680D01*
X18400Y40640D01*
X18480Y40680D01*
X18440Y40600D01*
X18480Y40520D01*
X18400Y40560D01*
X18320Y40520D01*
D51*
X38430Y21150D02*
G03*
X38430Y21150I-80J0D01*
G01*
X37430D02*
G03*
X37430Y21150I-80J0D01*
G01*
X36430D02*
G03*
X36430Y21150I-80J0D01*
G01*
X35430D02*
G03*
X35430Y21150I-80J0D01*
G01*
X11730Y20939D02*
G03*
X11730Y20939I-80J0D01*
G01*
X12730D02*
G03*
X12730Y20939I-80J0D01*
G01*
X34630Y48100D02*
G03*
X34630Y48100I-80J0D01*
G01*
X35630D02*
G03*
X35630Y48100I-80J0D01*
G01*
X34630Y47100D02*
G03*
X34630Y47100I-80J0D01*
G01*
X35630D02*
G03*
X35630Y47100I-80J0D01*
G01*
X34630Y46100D02*
G03*
X34630Y46100I-80J0D01*
G01*
X35630D02*
G03*
X35630Y46100I-80J0D01*
G01*
X34630Y45100D02*
G03*
X34630Y45100I-80J0D01*
G01*
X35630D02*
G03*
X35630Y45100I-80J0D01*
G01*
X34630Y44100D02*
G03*
X34630Y44100I-80J0D01*
G01*
X35630D02*
G03*
X35630Y44100I-80J0D01*
G01*
X11480Y29700D02*
G03*
X11480Y29700I-80J0D01*
G01*
Y28700D02*
G03*
X11480Y28700I-80J0D01*
G01*
Y35000D02*
G03*
X11480Y35000I-80J0D01*
G01*
Y34000D02*
G03*
X11480Y34000I-80J0D01*
G01*
Y39842D02*
G03*
X11480Y39842I-80J0D01*
G01*
Y38842D02*
G03*
X11480Y38842I-80J0D01*
G01*
Y45467D02*
G03*
X11480Y45467I-80J0D01*
G01*
Y44467D02*
G03*
X11480Y44467I-80J0D01*
G01*
X31641Y48100D02*
G03*
X31641Y48100I-80J0D01*
G01*
X32641D02*
G03*
X32641Y48100I-80J0D01*
G01*
X31641Y47100D02*
G03*
X31641Y47100I-80J0D01*
G01*
X32641D02*
G03*
X32641Y47100I-80J0D01*
G01*
X31641Y46100D02*
G03*
X31641Y46100I-80J0D01*
G01*
X32641D02*
G03*
X32641Y46100I-80J0D01*
G01*
X31641Y45100D02*
G03*
X31641Y45100I-80J0D01*
G01*
X32641D02*
G03*
X32641Y45100I-80J0D01*
G01*
X31641Y44100D02*
G03*
X31641Y44100I-80J0D01*
G01*
X32641D02*
G03*
X32641Y44100I-80J0D01*
G01*
M02*
